Monda-Light.ufo
<glyph name="exclam" format="1">
  <advance width="281"/>
  <unicode hex="0021"/>
  <outline>
    <contour>
      <point x="98" y="0" type="line"/>
      <point x="184" y="0" type="line"/>
      <point x="184" y="89" type="line"/>
      <point x="98" y="89" type="line"/>
    </contour>
    <contour>
      <point x="129" y="170" type="curve"/>
      <point x="150" y="170" type="line"/>
      <point x="150" y="170"/>
      <point x="183" y="430"/>
      <point x="183" y="697" type="curve"/>
      <point x="101" y="697" type="line"/>
      <point x="101" y="430"/>
      <point x="129" y="170"/>
    </contour>
  </outline>
</glyph>
<glyph name="quotedbl" format="1">
  <advance width="395"/>
  <unicode hex="0022"/>
  <outline>
    <contour>
      <point x="91" y="471" type="line"/>
      <point x="144" y="471" type="line"/>
      <point x="166" y="732" type="line"/>
      <point x="80" y="732" type="line"/>
    </contour>
    <contour>
      <point x="248" y="471" type="line"/>
      <point x="300" y="471" type="line"/>
      <point x="316" y="732" type="line"/>
      <point x="230" y="732" type="line"/>
    </contour>
  </outline>
</glyph>
<glyph name="numbersign" format="1">
  <advance width="1196"/>
  <unicode hex="0023"/>
  <outline>
    <contour>
      <point x="154" y="0" type="line"/>
      <point x="315" y="0" type="line"/>
      <point x="400" y="473" type="line"/>
      <point x="723" y="473" type="line"/>
      <point x="635" y="0" type="line"/>
      <point x="796" y="0" type="line"/>
      <point x="881" y="473" type="line"/>
      <point x="1132" y="473" type="line"/>
      <point x="1132" y="580" type="line"/>
      <point x="900" y="580" type="line"/>
      <point x="961" y="918" type="line"/>
      <point x="1156" y="918" type="line"/>
      <point x="1156" y="1025" type="line"/>
      <point x="979" y="1025" type="line"/>
      <point x="1052" y="1427" type="line"/>
      <point x="899" y="1427" type="line"/>
      <point x="825" y="1025" type="line"/>
      <point x="499" y="1025" type="line"/>
      <point x="571" y="1427" type="line"/>
      <point x="418" y="1427" type="line"/>
      <point x="344" y="1025" type="line"/>
      <point x="99" y="1025" type="line"/>
      <point x="99" y="918" type="line"/>
      <point x="323" y="918" type="line"/>
      <point x="262" y="580" type="line"/>
      <point x="75" y="580" type="line"/>
      <point x="75" y="473" type="line"/>
      <point x="242" y="473" type="line"/>
    </contour>
    <contour>
      <point x="419" y="580" type="line"/>
      <point x="480" y="918" type="line"/>
      <point x="805" y="918" type="line"/>
      <point x="743" y="580" type="line"/>
    </contour>
  </outline>
</glyph>
<glyph name="dollar" format="1">
  <advance width="1316"/>
  <unicode hex="0024"/>
  <outline>
    <component base="S"/>
    <contour>
      <point x="623" y="-408" type="line"/>
      <point x="733" y="-408" type="line"/>
      <point x="733" y="1758" type="line"/>
      <point x="623" y="1758" type="line"/>
    </contour>
  </outline>
</glyph>
<glyph name="percent" format="1">
  <advance width="2008"/>
  <unicode hex="0025"/>
  <outline>
    <contour>
      <point x="454" y="794" type="curve" smooth="yes"/>
      <point x="310" y="794"/>
      <point x="290" y="902"/>
      <point x="290" y="1047" type="curve" smooth="yes"/>
      <point x="290" y="1145" type="line" smooth="yes"/>
      <point x="290" y="1285"/>
      <point x="304" y="1382"/>
      <point x="454" y="1382" type="curve" smooth="yes"/>
      <point x="605" y="1382"/>
      <point x="620" y="1285"/>
      <point x="620" y="1143" type="curve" smooth="yes"/>
      <point x="620" y="1047" type="line" smooth="yes"/>
      <point x="620" y="902"/>
      <point x="599" y="794"/>
    </contour>
    <contour>
      <point x="454" y="686" type="curve" smooth="yes"/>
      <point x="684" y="686"/>
      <point x="755" y="836"/>
      <point x="755" y="1065" type="curve" smooth="yes"/>
      <point x="755" y="1119" type="line" smooth="yes"/>
      <point x="753" y="1352"/>
      <point x="684" y="1489"/>
      <point x="454" y="1489" type="curve" smooth="yes"/>
      <point x="223" y="1489"/>
      <point x="158" y="1351"/>
      <point x="158" y="1118" type="curve" smooth="yes"/>
      <point x="158" y="1065" type="line" smooth="yes"/>
      <point x="158" y="837"/>
      <point x="224" y="686"/>
    </contour>
    <contour>
      <point x="1550" y="89" type="curve" smooth="yes"/>
      <point x="1406" y="89"/>
      <point x="1387" y="197"/>
      <point x="1387" y="341" type="curve" smooth="yes"/>
      <point x="1387" y="440" type="line" smooth="yes"/>
      <point x="1387" y="579"/>
      <point x="1400" y="676"/>
      <point x="1550" y="676" type="curve" smooth="yes"/>
      <point x="1701" y="676"/>
      <point x="1717" y="579"/>
      <point x="1717" y="438" type="curve" smooth="yes"/>
      <point x="1717" y="341" type="line" smooth="yes"/>
      <point x="1717" y="197"/>
      <point x="1695" y="89"/>
    </contour>
    <contour>
      <point x="1550" y="-19" type="curve" smooth="yes"/>
      <point x="1780" y="-19"/>
      <point x="1851" y="131"/>
      <point x="1851" y="360" type="curve" smooth="yes"/>
      <point x="1851" y="414" type="line" smooth="yes"/>
      <point x="1849" y="647"/>
      <point x="1780" y="784"/>
      <point x="1550" y="784" type="curve" smooth="yes"/>
      <point x="1319" y="784"/>
      <point x="1254" y="646"/>
      <point x="1254" y="413" type="curve" smooth="yes"/>
      <point x="1254" y="360" type="line" smooth="yes"/>
      <point x="1254" y="132"/>
      <point x="1320" y="-19"/>
    </contour>
    <contour>
      <point x="652" y="0" type="line"/>
      <point x="792" y="0" type="line"/>
      <point x="1330" y="1446" type="line"/>
      <point x="1195" y="1446" type="line"/>
    </contour>
  </outline>
</glyph>
<glyph name="ampersand" format="1">
  <advance width="699"/>
  <unicode hex="0026"/>
  <outline>
    <contour>
      <point x="334" y="-10" type="curve" smooth="yes"/>
      <point x="480" y="-10"/>
      <point x="537" y="22"/>
      <point x="564" y="64" type="curve"/>
      <point x="642" y="-8" type="line"/>
      <point x="677" y="29" type="line"/>
      <point x="589" y="113" type="line"/>
      <point x="596" y="144"/>
      <point x="597" y="174"/>
      <point x="597" y="207" type="curve" smooth="yes"/>
      <point x="597" y="367" type="line"/>
      <point x="540" y="367" type="line"/>
      <point x="540" y="162" type="line"/>
      <point x="250" y="435" type="line" smooth="yes"/>
      <point x="204" y="479"/>
      <point x="188" y="500"/>
      <point x="188" y="553" type="curve" smooth="yes"/>
      <point x="188" y="616"/>
      <point x="228" y="658"/>
      <point x="323" y="658" type="curve" smooth="yes"/>
      <point x="419" y="658"/>
      <point x="445" y="639"/>
      <point x="445" y="572" type="curve" smooth="yes"/>
      <point x="445" y="537" type="line"/>
      <point x="505" y="537" type="line"/>
      <point x="505" y="582" type="line" smooth="yes"/>
      <point x="505" y="697"/>
      <point x="435" y="717"/>
      <point x="323" y="717" type="curve" smooth="yes"/>
      <point x="177" y="717"/>
      <point x="121" y="645"/>
      <point x="121" y="551" type="curve" smooth="yes"/>
      <point x="121" y="476"/>
      <point x="155" y="443"/>
      <point x="206" y="396" type="curve"/>
      <point x="112" y="368"/>
      <point x="84" y="306"/>
      <point x="84" y="208" type="curve" smooth="yes"/>
      <point x="84" y="123"/>
      <point x="121" y="-10"/>
    </contour>
    <contour>
      <point x="334" y="48" type="curve" smooth="yes"/>
      <point x="206" y="48"/>
      <point x="152" y="110"/>
      <point x="152" y="211" type="curve" smooth="yes"/>
      <point x="152" y="271"/>
      <point x="169" y="335"/>
      <point x="246" y="358" type="curve"/>
      <point x="521" y="103" type="line"/>
      <point x="492" y="53"/>
      <point x="444" y="48"/>
    </contour>
  </outline>
</glyph>
<glyph name="quotesingle" format="1">
  <advance width="474"/>
  <unicode hex="0027"/>
  <outline>
    <contour>
      <point x="76" y="471" type="line"/>
      <point x="128" y="471" type="line"/>
      <point x="150" y="732" type="line"/>
      <point x="64" y="732" type="line"/>
    </contour>
  </outline>
</glyph>
<glyph name="parenleft" format="1">
  <advance width="322"/>
  <unicode hex="0028"/>
  <outline>
    <contour>
      <point x="274" y="-71" type="curve"/>
      <point x="274" y="-17" type="line"/>
      <point x="154" y="-17"/>
      <point x="140" y="43"/>
      <point x="140" y="125" type="curve" smooth="yes"/>
      <point x="140" y="150"/>
      <point x="142" y="177"/>
      <point x="142" y="205" type="curve" smooth="yes"/>
      <point x="142" y="479" type="line" smooth="yes"/>
      <point x="142" y="508"/>
      <point x="140" y="536"/>
      <point x="140" y="562" type="curve" smooth="yes"/>
      <point x="140" y="645"/>
      <point x="154" y="708"/>
      <point x="274" y="708" type="curve"/>
      <point x="274" y="763" type="line"/>
      <point x="93" y="763"/>
      <point x="71" y="666"/>
      <point x="71" y="561" type="curve" smooth="yes"/>
      <point x="71" y="527"/>
      <point x="73" y="493"/>
      <point x="73" y="460" type="curve" smooth="yes"/>
      <point x="73" y="221" type="line" smooth="yes"/>
      <point x="73" y="189"/>
      <point x="71" y="155"/>
      <point x="71" y="122" type="curve" smooth="yes"/>
      <point x="71" y="20"/>
      <point x="93" y="-71"/>
    </contour>
  </outline>
</glyph>
<glyph name="parenright" format="1">
  <advance width="661"/>
  <unicode hex="0029"/>
  <outline>
    <contour>
      <point x="90" y="-145" type="line"/>
      <point x="461" y="-144"/>
      <point x="506" y="53"/>
      <point x="506" y="269" type="curve" smooth="yes"/>
      <point x="506" y="338"/>
      <point x="501" y="408"/>
      <point x="501" y="475" type="curve" smooth="yes"/>
      <point x="501" y="966" type="line" smooth="yes"/>
      <point x="501" y="1032"/>
      <point x="506" y="1101"/>
      <point x="506" y="1168" type="curve" smooth="yes"/>
      <point x="506" y="1375"/>
      <point x="461" y="1562"/>
      <point x="90" y="1562" type="curve"/>
      <point x="90" y="1452" type="line"/>
      <point x="335" y="1452"/>
      <point x="364" y="1331"/>
      <point x="364" y="1163" type="curve" smooth="yes"/>
      <point x="364" y="1112"/>
      <point x="361" y="1056"/>
      <point x="361" y="998" type="curve" smooth="yes"/>
      <point x="361" y="437" type="line" smooth="yes"/>
      <point x="361" y="378"/>
      <point x="364" y="319"/>
      <point x="364" y="266" type="curve" smooth="yes"/>
      <point x="364" y="94"/>
      <point x="335" y="-33"/>
      <point x="90" y="-33" type="curve"/>
    </contour>
  </outline>
</glyph>
<glyph name="asterisk" format="1">
  <advance width="507"/>
  <unicode hex="002A"/>
  <outline>
    <contour>
      <point x="210" y="292" type="line"/>
      <point x="297" y="292" type="line"/>
      <point x="283" y="445" type="line"/>
      <point x="404" y="353" type="line"/>
      <point x="450" y="427" type="line"/>
      <point x="313" y="497" type="line"/>
      <point x="456" y="554" type="line"/>
      <point x="416" y="632" type="line"/>
      <point x="283" y="547" type="line"/>
      <point x="297" y="706" type="line"/>
      <point x="210" y="706" type="line"/>
      <point x="224" y="553" type="line"/>
      <point x="104" y="646" type="line"/>
      <point x="57" y="571" type="line"/>
      <point x="194" y="502" type="line"/>
      <point x="52" y="445" type="line"/>
      <point x="91" y="366" type="line"/>
      <point x="225" y="451" type="line"/>
    </contour>
  </outline>
</glyph>
<glyph name="plus" format="1">
  <advance width="1059"/>
  <unicode hex="002B"/>
  <outline>
    <contour>
      <point x="469" y="156" type="line"/>
      <point x="592" y="156" type="line"/>
      <point x="592" y="511" type="line"/>
      <point x="879" y="511" type="line"/>
      <point x="879" y="618" type="line"/>
      <point x="592" y="618" type="line"/>
      <point x="592" y="968" type="line"/>
      <point x="469" y="968" type="line"/>
      <point x="469" y="618" type="line"/>
      <point x="180" y="618" type="line"/>
      <point x="180" y="511" type="line"/>
      <point x="469" y="511" type="line"/>
    </contour>
  </outline>
</glyph>
<glyph name="comma" format="1">
  <advance width="275"/>
  <unicode hex="002C"/>
  <outline>
    <contour>
      <point x="114" y="-150" type="line"/>
      <point x="141" y="-125"/>
      <point x="191" y="-67"/>
      <point x="191" y="23" type="curve" smooth="yes"/>
      <point x="191" y="101" type="line"/>
      <point x="84" y="101" type="line"/>
      <point x="84" y="0" type="line"/>
      <point x="146" y="0" type="line"/>
      <point x="146" y="-62"/>
      <point x="104" y="-103"/>
      <point x="82" y="-129" type="curve"/>
    </contour>
  </outline>
</glyph>
<glyph name="hyphen" format="1">
  <advance width="1058"/>
  <unicode hex="002D"/>
  <outline>
    <contour>
      <point x="508" y="566" type="move" name="_mid"/>
    </contour>
    <contour>
      <point x="197" y="521" type="line"/>
      <point x="811" y="521" type="line"/>
      <point x="811" y="622" type="line"/>
      <point x="197" y="622" type="line"/>
    </contour>
  </outline>
</glyph>
<glyph name="period" format="1">
  <advance width="624"/>
  <unicode hex="002E"/>
  <outline>
    <contour>
      <point x="199" y="0" type="line"/>
      <point x="430" y="0" type="line"/>
      <point x="430" y="217" type="line"/>
      <point x="199" y="217" type="line"/>
    </contour>
  </outline>
</glyph>
<glyph name="slash" format="1">
  <advance width="299"/>
  <unicode hex="002F"/>
  <outline>
    <contour>
      <point x="19" y="0" type="line"/>
      <point x="94" y="0" type="line"/>
      <point x="281" y="732" type="line"/>
      <point x="209" y="732" type="line"/>
    </contour>
  </outline>
</glyph>
<glyph name="zero" format="1">
  <advance width="1148"/>
  <unicode hex="0030"/>
  <outline>
    <contour>
      <point x="583" y="101" type="curve" smooth="yes"/>
      <point x="252" y="101"/>
      <point x="264" y="358"/>
      <point x="264" y="690" type="curve" smooth="yes"/>
      <point x="264" y="722" type="line" smooth="yes"/>
      <point x="264" y="1056"/>
      <point x="261" y="1328"/>
      <point x="583" y="1328" type="curve" smooth="yes"/>
      <point x="907" y="1328"/>
      <point x="905" y="1056"/>
      <point x="905" y="722" type="curve" smooth="yes"/>
      <point x="905" y="690" type="line" smooth="yes"/>
      <point x="905" y="358"/>
      <point x="913" y="101"/>
    </contour>
    <contour>
      <point x="583" y="-23" type="curve" smooth="yes"/>
      <point x="1121" y="-23"/>
      <point x="1056" y="389"/>
      <point x="1056" y="712" type="curve" smooth="yes"/>
      <point x="1056" y="688" type="line" smooth="yes"/>
      <point x="1056" y="1014"/>
      <point x="1119" y="1451"/>
      <point x="583" y="1451" type="curve" smooth="yes"/>
      <point x="51" y="1451"/>
      <point x="121" y="1012"/>
      <point x="121" y="686" type="curve" smooth="yes"/>
      <point x="121" y="715" type="line" smooth="yes"/>
      <point x="121" y="393"/>
      <point x="51" y="-23"/>
    </contour>
  </outline>
</glyph>
<glyph name="one" format="1">
  <advance width="1148"/>
  <unicode hex="0031"/>
  <outline>
    <contour>
      <point x="177" y="0" type="line"/>
      <point x="1056" y="0" type="line"/>
      <point x="1056" y="123" type="line"/>
      <point x="716" y="123" type="line"/>
      <point x="716" y="1428" type="line"/>
      <point x="576" y="1428" type="line"/>
      <point x="224" y="1391" type="line"/>
      <point x="237" y="1267" type="line"/>
      <point x="572" y="1299" type="line"/>
      <point x="572" y="123" type="line"/>
      <point x="177" y="123" type="line"/>
    </contour>
  </outline>
</glyph>
<glyph name="two" format="1">
  <advance width="560"/>
  <unicode hex="0032"/>
  <outline>
    <contour>
      <point x="88" y="0" type="line"/>
      <point x="497" y="0" type="line"/>
      <point x="497" y="57" type="line"/>
      <point x="165" y="57" type="line"/>
      <point x="380" y="294" type="line" smooth="yes"/>
      <point x="442" y="362"/>
      <point x="500" y="405"/>
      <point x="500" y="517" type="curve" smooth="yes"/>
      <point x="500" y="623"/>
      <point x="457" y="708"/>
      <point x="284" y="708" type="curve" smooth="yes"/>
      <point x="133" y="708"/>
      <point x="58" y="656"/>
      <point x="58" y="509" type="curve"/>
      <point x="125" y="509" type="line"/>
      <point x="125" y="618"/>
      <point x="169" y="646"/>
      <point x="284" y="646" type="curve" smooth="yes"/>
      <point x="395" y="646"/>
      <point x="433" y="608"/>
      <point x="433" y="516" type="curve" smooth="yes"/>
      <point x="433" y="435"/>
      <point x="398" y="408"/>
      <point x="320" y="322" type="curve" smooth="yes"/>
      <point x="84" y="61" type="line"/>
    </contour>
  </outline>
</glyph>
<glyph name="three" format="1">
  <advance width="560"/>
  <unicode hex="0033"/>
  <outline>
    <contour>
      <point x="302" y="-10" type="curve" smooth="yes"/>
      <point x="430" y="-10"/>
      <point x="498" y="55"/>
      <point x="498" y="186" type="curve" smooth="yes"/>
      <point x="498" y="323"/>
      <point x="452" y="358"/>
      <point x="367" y="372" type="curve"/>
      <point x="456" y="384"/>
      <point x="479" y="433"/>
      <point x="479" y="530" type="curve" smooth="yes"/>
      <point x="479" y="674"/>
      <point x="395" y="708"/>
      <point x="294" y="708" type="curve" smooth="yes"/>
      <point x="174" y="708"/>
      <point x="80" y="698"/>
      <point x="80" y="498" type="curve"/>
      <point x="148" y="498" type="line"/>
      <point x="148" y="645"/>
      <point x="193" y="646"/>
      <point x="290" y="646" type="curve" smooth="yes"/>
      <point x="294" y="646" type="line" smooth="yes"/>
      <point x="394" y="646"/>
      <point x="411" y="603"/>
      <point x="411" y="532" type="curve" smooth="yes"/>
      <point x="411" y="512" type="line" smooth="yes"/>
      <point x="411" y="437"/>
      <point x="404" y="399"/>
      <point x="246" y="399" type="curve"/>
      <point x="246" y="341" type="line"/>
      <point x="410" y="341"/>
      <point x="429" y="312"/>
      <point x="429" y="183" type="curve" smooth="yes"/>
      <point x="429" y="99"/>
      <point x="399" y="51"/>
      <point x="302" y="51" type="curve" smooth="yes"/>
      <point x="193" y="51"/>
      <point x="148" y="59"/>
      <point x="142" y="209" type="curve"/>
      <point x="74" y="209" type="line"/>
      <point x="88" y="29"/>
      <point x="135" y="-10"/>
    </contour>
  </outline>
</glyph>
<glyph name="four" format="1">
  <advance width="1148"/>
  <unicode hex="0034"/>
  <outline>
    <contour>
      <point x="723" y="0" type="line"/>
      <point x="848" y="0" type="line"/>
      <point x="848" y="384" type="line"/>
      <point x="1056" y="384" type="line"/>
      <point x="1056" y="493" type="line"/>
      <point x="848" y="493" type="line"/>
      <point x="848" y="822" type="line"/>
      <point x="723" y="822" type="line"/>
      <point x="723" y="493" type="line"/>
      <point x="254" y="493" type="line"/>
      <point x="739" y="1428" type="line"/>
      <point x="598" y="1428" type="line"/>
      <point x="101" y="494" type="line"/>
      <point x="101" y="384" type="line"/>
      <point x="723" y="384" type="line"/>
    </contour>
  </outline>
</glyph>
<glyph name="five" format="1">
  <advance width="1148"/>
  <unicode hex="0035"/>
  <outline>
    <contour>
      <point x="546" y="-20" type="curve" smooth="yes"/>
      <point x="844" y="-20"/>
      <point x="1000" y="158"/>
      <point x="1000" y="434" type="curve" smooth="yes"/>
      <point x="1000" y="760"/>
      <point x="809" y="883"/>
      <point x="597" y="883" type="curve" smooth="yes"/>
      <point x="505" y="883"/>
      <point x="402" y="856"/>
      <point x="325" y="790" type="curve"/>
      <point x="368" y="1312" type="line"/>
      <point x="919" y="1312" type="line"/>
      <point x="919" y="1428" type="line"/>
      <point x="245" y="1428" type="line"/>
      <point x="212" y="693" type="line"/>
      <point x="317" y="661" type="line"/>
      <point x="398" y="730"/>
      <point x="499" y="760"/>
      <point x="597" y="760" type="curve" smooth="yes"/>
      <point x="742" y="760"/>
      <point x="872" y="668"/>
      <point x="872" y="419" type="curve" smooth="yes"/>
      <point x="872" y="228"/>
      <point x="759" y="103"/>
      <point x="546" y="103" type="curve" smooth="yes"/>
      <point x="376" y="103"/>
      <point x="257" y="170"/>
      <point x="178" y="221" type="curve"/>
      <point x="142" y="96" type="line"/>
      <point x="254" y="37"/>
      <point x="369" y="-20"/>
    </contour>
  </outline>
</glyph>
<glyph name="six" format="1">
  <advance width="1148"/>
  <unicode hex="0036"/>
  <outline>
    <contour>
      <point x="584" y="-20" type="curve" smooth="yes"/>
      <point x="895" y="-20"/>
      <point x="1037" y="113"/>
      <point x="1037" y="404" type="curve" smooth="yes"/>
      <point x="1037" y="692"/>
      <point x="885" y="822"/>
      <point x="590" y="822" type="curve" smooth="yes"/>
      <point x="426" y="822"/>
      <point x="360" y="769"/>
      <point x="316" y="715" type="curve"/>
      <point x="360" y="721" type="line"/>
      <point x="783" y="1428" type="line"/>
      <point x="622" y="1428" type="line"/>
      <point x="290" y="856" type="line" smooth="yes"/>
      <point x="189" y="682"/>
      <point x="145" y="541"/>
      <point x="145" y="404" type="curve" smooth="yes"/>
      <point x="145" y="113"/>
      <point x="283" y="-20"/>
    </contour>
    <contour>
      <point x="584" y="100" type="curve" smooth="yes"/>
      <point x="354" y="100"/>
      <point x="278" y="196"/>
      <point x="278" y="404" type="curve" smooth="yes"/>
      <point x="278" y="613"/>
      <point x="374" y="708"/>
      <point x="590" y="708" type="curve" smooth="yes"/>
      <point x="802" y="708"/>
      <point x="902" y="611"/>
      <point x="902" y="404" type="curve" smooth="yes"/>
      <point x="902" y="196"/>
      <point x="822" y="100"/>
    </contour>
  </outline>
</glyph>
<glyph name="seven" format="1">
  <advance width="560"/>
  <unicode hex="0037"/>
  <outline>
    <contour>
      <point x="185" y="0" type="line"/>
      <point x="257" y="0" type="line"/>
      <point x="478" y="635" type="line"/>
      <point x="478" y="697" type="line"/>
      <point x="82" y="697" type="line"/>
      <point x="82" y="644" type="line"/>
      <point x="416" y="644" type="line"/>
    </contour>
  </outline>
</glyph>
<glyph name="eight" format="1">
  <advance width="560"/>
  <unicode hex="0038"/>
  <outline>
    <contour>
      <point x="280" y="-10" type="curve" smooth="yes"/>
      <point x="424" y="-10"/>
      <point x="505" y="45"/>
      <point x="505" y="177" type="curve" smooth="yes"/>
      <point x="505" y="291"/>
      <point x="417" y="346"/>
      <point x="363" y="375" type="curve"/>
      <point x="421" y="410"/>
      <point x="495" y="432"/>
      <point x="495" y="535" type="curve" smooth="yes"/>
      <point x="495" y="683"/>
      <point x="369" y="708"/>
      <point x="281" y="708" type="curve" smooth="yes"/>
      <point x="190" y="708"/>
      <point x="69" y="683"/>
      <point x="69" y="533" type="curve" smooth="yes"/>
      <point x="69" y="434"/>
      <point x="143" y="410"/>
      <point x="203" y="375" type="curve"/>
      <point x="137" y="346"/>
      <point x="55" y="286"/>
      <point x="55" y="178" type="curve" smooth="yes"/>
      <point x="55" y="44"/>
      <point x="139" y="-10"/>
    </contour>
    <contour>
      <point x="280" y="49" type="curve" smooth="yes"/>
      <point x="193" y="49"/>
      <point x="125" y="69"/>
      <point x="125" y="176" type="curve" smooth="yes"/>
      <point x="125" y="266"/>
      <point x="208" y="313"/>
      <point x="281" y="351" type="curve"/>
      <point x="353" y="313"/>
      <point x="438" y="266"/>
      <point x="438" y="176" type="curve" smooth="yes"/>
      <point x="438" y="69"/>
      <point x="368" y="49"/>
    </contour>
    <contour>
      <point x="281" y="396" type="curve"/>
      <point x="217" y="427"/>
      <point x="139" y="467"/>
      <point x="139" y="537" type="curve" smooth="yes"/>
      <point x="139" y="604"/>
      <point x="178" y="646"/>
      <point x="281" y="646" type="curve" smooth="yes"/>
      <point x="383" y="646"/>
      <point x="423" y="605"/>
      <point x="423" y="537" type="curve" smooth="yes"/>
      <point x="423" y="466"/>
      <point x="348" y="428"/>
    </contour>
  </outline>
</glyph>
<glyph name="nine" format="1">
  <advance width="1173"/>
  <unicode hex="0039"/>
  <outline>
    <contour>
      <point x="430" y="0" type="line"/>
      <point x="558" y="0" type="line"/>
      <point x="886" y="562" type="line" smooth="yes"/>
      <point x="990" y="743"/>
      <point x="1031" y="905"/>
      <point x="1031" y="1018" type="curve" smooth="yes"/>
      <point x="1031" y="1348"/>
      <point x="834" y="1451"/>
      <point x="594" y="1451" type="curve" smooth="yes"/>
      <point x="362" y="1451"/>
      <point x="141" y="1348"/>
      <point x="141" y="1016" type="curve" smooth="yes"/>
      <point x="141" y="703"/>
      <point x="329" y="567"/>
      <point x="614" y="567" type="curve" smooth="yes"/>
      <point x="692" y="567"/>
      <point x="761" y="591"/>
      <point x="808" y="615" type="curve"/>
    </contour>
    <contour>
      <point x="590" y="700" type="curve" smooth="yes"/>
      <point x="419" y="700"/>
      <point x="270" y="738"/>
      <point x="270" y="1016" type="curve" smooth="yes"/>
      <point x="270" y="1282"/>
      <point x="401" y="1320"/>
      <point x="592" y="1320" type="curve" smooth="yes"/>
      <point x="791" y="1320"/>
      <point x="907" y="1281"/>
      <point x="907" y="1010" type="curve" smooth="yes"/>
      <point x="907" y="771"/>
      <point x="775" y="700"/>
    </contour>
  </outline>
</glyph>
<glyph name="less" format="1">
  <advance width="676"/>
  <unicode hex="003C"/>
  <outline>
    <contour>
      <point x="563" y="-9" type="line"/>
      <point x="563" y="86" type="line"/>
      <point x="157" y="285" type="line"/>
      <point x="563" y="486" type="line"/>
      <point x="563" y="577" type="line"/>
      <point x="89" y="331" type="line"/>
      <point x="89" y="238" type="line"/>
    </contour>
  </outline>
</glyph>
<glyph name="equal" format="1">
  <advance width="1472"/>
  <unicode hex="003D"/>
  <outline>
    <contour>
      <point x="291" y="525" type="line"/>
      <point x="1181" y="525" type="line"/>
      <point x="1181" y="658" type="line"/>
      <point x="291" y="658" type="line"/>
    </contour>
    <contour>
      <point x="291" y="844" type="line"/>
      <point x="1181" y="844" type="line"/>
      <point x="1181" y="977" type="line"/>
      <point x="291" y="977" type="line"/>
    </contour>
  </outline>
</glyph>
<glyph name="greater" format="1">
  <advance width="676"/>
  <unicode hex="003E"/>
  <outline>
    <contour>
      <point x="118" y="-9" type="line"/>
      <point x="592" y="238" type="line"/>
      <point x="592" y="331" type="line"/>
      <point x="118" y="577" type="line"/>
      <point x="118" y="482" type="line"/>
      <point x="524" y="283" type="line"/>
      <point x="118" y="83" type="line"/>
    </contour>
  </outline>
</glyph>
<glyph name="question" format="1">
  <advance width="528"/>
  <unicode hex="003F"/>
  <outline>
    <contour>
      <point x="195" y="210" type="line"/>
      <point x="253" y="210" type="line"/>
      <point x="341" y="318" type="line" smooth="yes"/>
      <point x="409" y="401"/>
      <point x="464" y="475"/>
      <point x="464" y="558" type="curve" smooth="yes"/>
      <point x="464" y="630"/>
      <point x="421" y="707"/>
      <point x="273" y="707" type="curve" smooth="yes"/>
      <point x="132" y="707"/>
      <point x="76" y="648"/>
      <point x="76" y="551" type="curve" smooth="yes"/>
      <point x="76" y="530" type="line"/>
      <point x="141" y="530" type="line"/>
      <point x="141" y="546" type="line" smooth="yes"/>
      <point x="141" y="608"/>
      <point x="174" y="646"/>
      <point x="273" y="646" type="curve" smooth="yes"/>
      <point x="360" y="646"/>
      <point x="395" y="613"/>
      <point x="395" y="552" type="curve" smooth="yes"/>
      <point x="395" y="496"/>
      <point x="352" y="439"/>
      <point x="315" y="385" type="curve" smooth="yes"/>
    </contour>
    <contour>
      <point x="174" y="0" type="line"/>
      <point x="260" y="0" type="line"/>
      <point x="260" y="89" type="line"/>
      <point x="174" y="89" type="line"/>
    </contour>
  </outline>
</glyph>
<glyph name="at" format="1">
  <advance width="1000"/>
  <unicode hex="0040"/>
  <outline>
    <contour>
      <point x="545" y="-62" type="curve" smooth="yes"/>
      <point x="648" y="-62"/>
      <point x="752" y="-38"/>
      <point x="789" y="-14" type="curve"/>
      <point x="766" y="37" type="line"/>
      <point x="735" y="13"/>
      <point x="643" y="-12"/>
      <point x="538" y="-12" type="curve" smooth="yes"/>
      <point x="377" y="-12"/>
      <point x="286" y="46"/>
      <point x="286" y="126" type="curve" smooth="yes"/>
      <point x="286" y="514" type="line" smooth="yes"/>
      <point x="286" y="590"/>
      <point x="368" y="653"/>
      <point x="519" y="653" type="curve" smooth="yes"/>
      <point x="722" y="653"/>
      <point x="733" y="574"/>
      <point x="733" y="484" type="curve"/>
      <point x="732" y="484"/>
      <point x="693" y="475"/>
      <point x="601" y="453" type="curve" smooth="yes"/>
      <point x="406" y="409"/>
      <point x="368" y="368"/>
      <point x="368" y="291" type="curve" smooth="yes"/>
      <point x="368" y="220"/>
      <point x="412" y="137"/>
      <point x="543" y="137" type="curve" smooth="yes"/>
      <point x="666" y="137"/>
      <point x="722" y="196"/>
      <point x="744" y="233" type="curve"/>
      <point x="753" y="192"/>
      <point x="766" y="148"/>
      <point x="843" y="148" type="curve"/>
      <point x="853" y="206" type="line"/>
      <point x="795" y="206"/>
      <point x="793" y="219"/>
      <point x="793" y="259" type="curve" smooth="yes"/>
      <point x="793" y="284"/>
      <point x="794" y="351"/>
      <point x="794" y="507" type="curve" smooth="yes"/>
      <point x="794" y="510"/>
      <point x="796" y="523"/>
      <point x="796" y="540" type="curve" smooth="yes"/>
      <point x="796" y="599"/>
      <point x="770" y="712"/>
      <point x="533" y="712" type="curve" smooth="yes"/>
      <point x="273" y="712"/>
      <point x="212" y="597"/>
      <point x="212" y="474" type="curve" smooth="yes"/>
      <point x="212" y="157" type="line" smooth="yes"/>
      <point x="212" y="77"/>
      <point x="267" y="-62"/>
    </contour>
    <contour>
      <point x="553" y="190" type="curve" smooth="yes"/>
      <point x="488" y="190"/>
      <point x="451" y="224"/>
      <point x="451" y="291" type="curve" smooth="yes"/>
      <point x="451" y="336"/>
      <point x="474" y="360"/>
      <point x="593" y="390" type="curve" smooth="yes"/>
      <point x="698" y="417"/>
      <point x="719" y="421"/>
      <point x="732" y="427" type="curve"/>
      <point x="732" y="297" type="line"/>
      <point x="709" y="226"/>
      <point x="616" y="190"/>
    </contour>
  </outline>
</glyph>
<glyph name="A" format="1">
  <advance width="664"/>
  <unicode hex="0041"/>
  <outline>
    <contour>
      <point x="42" y="0" type="line"/>
      <point x="116" y="0" type="line"/>
      <point x="168" y="138" type="line"/>
      <point x="501" y="138" type="line"/>
      <point x="553" y="0" type="line"/>
      <point x="622" y="0" type="line"/>
      <point x="359" y="697" type="line"/>
      <point x="307" y="697" type="line"/>
    </contour>
    <contour>
      <point x="186" y="192" type="line"/>
      <point x="335" y="600" type="line"/>
      <point x="484" y="192" type="line"/>
    </contour>
    <contour>
      <point x="626" y="0" type="move" name="ogonek"/>
    </contour>
  </outline>
</glyph>
<glyph name="B" format="1">
  <advance width="672"/>
  <unicode hex="0042"/>
  <outline>
    <contour>
      <point x="108" y="0" type="line"/>
      <point x="364" y="0" type="line" smooth="yes"/>
      <point x="532" y="0"/>
      <point x="607" y="56"/>
      <point x="609" y="190" type="curve" smooth="yes"/>
      <point x="609" y="277"/>
      <point x="558" y="347"/>
      <point x="486" y="368" type="curve"/>
      <point x="546" y="393"/>
      <point x="571" y="445"/>
      <point x="573" y="501" type="curve"/>
      <point x="573" y="620"/>
      <point x="543" y="697"/>
      <point x="351" y="697" type="curve" smooth="yes"/>
      <point x="108" y="697" type="line"/>
    </contour>
    <contour>
      <point x="179" y="56" type="line"/>
      <point x="179" y="338" type="line"/>
      <point x="398" y="338" type="line" smooth="yes"/>
      <point x="505" y="338"/>
      <point x="541" y="265"/>
      <point x="541" y="205" type="curve" smooth="yes"/>
      <point x="541" y="80"/>
      <point x="476" y="56"/>
      <point x="369" y="56" type="curve" smooth="yes"/>
    </contour>
    <contour>
      <point x="179" y="393" type="line"/>
      <point x="179" y="639" type="line"/>
      <point x="333" y="639" type="line" smooth="yes"/>
      <point x="465" y="639"/>
      <point x="505" y="618"/>
      <point x="505" y="500" type="curve" smooth="yes"/>
      <point x="505" y="438"/>
      <point x="470" y="393"/>
      <point x="379" y="393" type="curve" smooth="yes"/>
    </contour>
  </outline>
</glyph>
<glyph name="C" format="1">
  <advance width="1424"/>
  <unicode hex="0043"/>
  <outline>
    <contour>
      <point x="745" y="-20" type="curve" smooth="yes"/>
      <point x="1174" y="-20"/>
      <point x="1255" y="111"/>
      <point x="1258" y="403" type="curve"/>
      <point x="1258" y="413" type="line"/>
      <point x="1127" y="413" type="line"/>
      <point x="1127" y="402" type="line" smooth="yes"/>
      <point x="1127" y="119"/>
      <point x="1017" y="100"/>
      <point x="751" y="100" type="curve" smooth="yes"/>
      <point x="474" y="100"/>
      <point x="335" y="167"/>
      <point x="335" y="456" type="curve" smooth="yes"/>
      <point x="335" y="956" type="line" smooth="yes"/>
      <point x="335" y="1245"/>
      <point x="467" y="1329"/>
      <point x="742" y="1329" type="curve" smooth="yes"/>
      <point x="1019" y="1329"/>
      <point x="1127" y="1315"/>
      <point x="1127" y="1019" type="curve" smooth="yes"/>
      <point x="1127" y="1009" type="line"/>
      <point x="1258" y="1016" type="line"/>
      <point x="1258" y="1026" type="line" smooth="yes"/>
      <point x="1258" y="1334"/>
      <point x="1140" y="1448"/>
      <point x="742" y="1448" type="curve" smooth="yes"/>
      <point x="283" y="1448"/>
      <point x="190" y="1229"/>
      <point x="190" y="918" type="curve" smooth="yes"/>
      <point x="190" y="487" type="line" smooth="yes"/>
      <point x="190" y="180"/>
      <point x="288" y="-20"/>
    </contour>
  </outline>
</glyph>
<glyph name="D" format="1">
  <advance width="730"/>
  <unicode hex="0044"/>
  <outline>
    <contour>
      <point x="179" y="49" type="line"/>
      <point x="179" y="647" type="line"/>
      <point x="362" y="647" type="line" smooth="yes"/>
      <point x="463" y="647"/>
      <point x="568" y="628"/>
      <point x="568" y="466" type="curve" smooth="yes"/>
      <point x="568" y="223" type="line" smooth="yes"/>
      <point x="568" y="63"/>
      <point x="464" y="49"/>
      <point x="362" y="49" type="curve" smooth="yes"/>
    </contour>
    <contour>
      <point x="108" y="0" type="line"/>
      <point x="371" y="0" type="line" smooth="yes"/>
      <point x="546" y="0"/>
      <point x="638" y="70"/>
      <point x="638" y="228" type="curve" smooth="yes"/>
      <point x="638" y="468" type="line" smooth="yes"/>
      <point x="638" y="599"/>
      <point x="567" y="697"/>
      <point x="369" y="697" type="curve" smooth="yes"/>
      <point x="108" y="697" type="line"/>
    </contour>
  </outline>
</glyph>
<glyph name="E" format="1">
  <advance width="594"/>
  <unicode hex="0045"/>
  <outline>
    <contour>
      <point x="108" y="0" type="line"/>
      <point x="537" y="0" type="line"/>
      <point x="537" y="52" type="line"/>
      <point x="179" y="52" type="line"/>
      <point x="179" y="334" type="line"/>
      <point x="489" y="334" type="line"/>
      <point x="489" y="389" type="line"/>
      <point x="179" y="389" type="line"/>
      <point x="179" y="646" type="line"/>
      <point x="530" y="646" type="line"/>
      <point x="530" y="697" type="line"/>
      <point x="108" y="697" type="line"/>
    </contour>
    <contour>
      <point x="417" y="0" type="move" name="ogonek"/>
    </contour>
  </outline>
</glyph>
<glyph name="F" format="1">
  <advance width="1137"/>
  <unicode hex="0046"/>
  <outline>
    <contour>
      <point x="222" y="0" type="line"/>
      <point x="365" y="0" type="line"/>
      <point x="365" y="682" type="line"/>
      <point x="966" y="682" type="line"/>
      <point x="966" y="794" type="line"/>
      <point x="365" y="794" type="line"/>
      <point x="365" y="1324" type="line"/>
      <point x="999" y="1324" type="line"/>
      <point x="999" y="1428" type="line"/>
      <point x="222" y="1428" type="line"/>
    </contour>
  </outline>
</glyph>
<glyph name="G" format="1">
  <advance width="740"/>
  <unicode hex="0047"/>
  <outline>
    <contour>
      <point x="375" y="-10" type="curve" smooth="yes"/>
      <point x="505" y="-10"/>
      <point x="585" y="34"/>
      <point x="599" y="143" type="curve"/>
      <point x="604" y="0" type="line"/>
      <point x="645" y="0" type="line"/>
      <point x="645" y="353" type="line"/>
      <point x="384" y="353" type="line"/>
      <point x="384" y="295" type="line"/>
      <point x="565" y="295" type="line"/>
      <point x="565" y="223" type="line" smooth="yes"/>
      <point x="565" y="82"/>
      <point x="511" y="49"/>
      <point x="375" y="49" type="curve" smooth="yes"/>
      <point x="240" y="49"/>
      <point x="167" y="82"/>
      <point x="167" y="223" type="curve" smooth="yes"/>
      <point x="167" y="467" type="line" smooth="yes"/>
      <point x="167" y="608"/>
      <point x="241" y="649"/>
      <point x="375" y="649" type="curve" smooth="yes"/>
      <point x="519" y="649"/>
      <point x="568" y="642"/>
      <point x="574" y="511" type="curve"/>
      <point x="574" y="500" type="line"/>
      <point x="632" y="505" type="line"/>
      <point x="632" y="520" type="line"/>
      <point x="628" y="636"/>
      <point x="585" y="707"/>
      <point x="375" y="707" type="curve" smooth="yes"/>
      <point x="151" y="707"/>
      <point x="96" y="600"/>
      <point x="96" y="448" type="curve" smooth="yes"/>
      <point x="96" y="238" type="line" smooth="yes"/>
      <point x="96" y="88"/>
      <point x="152" y="-10"/>
    </contour>
  </outline>
</glyph>
<glyph name="H" format="1">
  <advance width="705"/>
  <unicode hex="0048"/>
  <outline>
    <contour>
      <point x="104" y="0" type="line"/>
      <point x="173" y="0" type="line"/>
      <point x="173" y="334" type="line"/>
      <point x="532" y="334" type="line"/>
      <point x="532" y="0" type="line"/>
      <point x="602" y="0" type="line"/>
      <point x="602" y="697" type="line"/>
      <point x="532" y="697" type="line"/>
      <point x="532" y="382" type="line"/>
      <point x="173" y="382" type="line"/>
      <point x="173" y="697" type="line"/>
      <point x="104" y="697" type="line"/>
    </contour>
  </outline>
</glyph>
<glyph name="I" format="1">
  <advance width="1122"/>
  <unicode hex="0049"/>
  <outline>
    <contour>
      <point x="551" y="1428" type="move" name="top"/>
    </contour>
    <contour>
      <point x="676" y="0" type="move" name="ogonek"/>
    </contour>
    <contour>
      <point x="209" y="0" type="line"/>
      <point x="913" y="0" type="line"/>
      <point x="913" y="107" type="line"/>
      <point x="633" y="107" type="line"/>
      <point x="633" y="1322" type="line"/>
      <point x="913" y="1322" type="line"/>
      <point x="913" y="1428" type="line"/>
      <point x="209" y="1428" type="line"/>
      <point x="209" y="1322" type="line"/>
      <point x="489" y="1322" type="line"/>
      <point x="489" y="107" type="line"/>
      <point x="209" y="107" type="line"/>
    </contour>
  </outline>
</glyph>
<glyph name="J" format="1">
  <advance width="583"/>
  <unicode hex="004A"/>
  <outline>
    <contour>
      <point x="260" y="-6" type="curve" smooth="yes"/>
      <point x="417" y="-6"/>
      <point x="468" y="82"/>
      <point x="468" y="213" type="curve" smooth="yes"/>
      <point x="468" y="697" type="line"/>
      <point x="115" y="697" type="line"/>
      <point x="115" y="635" type="line"/>
      <point x="398" y="635" type="line"/>
      <point x="398" y="210" type="line" smooth="yes"/>
      <point x="398" y="102"/>
      <point x="356" y="54"/>
      <point x="261" y="54" type="curve" smooth="yes"/>
      <point x="177" y="54"/>
      <point x="90" y="88"/>
      <point x="82" y="92" type="curve"/>
      <point x="59" y="35" type="line"/>
      <point x="72" y="26"/>
      <point x="171" y="-6"/>
    </contour>
  </outline>
</glyph>
<glyph name="K" format="1">
  <advance width="677"/>
  <unicode hex="004B"/>
  <outline>
    <contour>
      <point x="108" y="0" type="line"/>
      <point x="178" y="0" type="line"/>
      <point x="178" y="223" type="line"/>
      <point x="301" y="354" type="line"/>
      <point x="554" y="0" type="line"/>
      <point x="630" y="0" type="line"/>
      <point x="346" y="388" type="line"/>
      <point x="619" y="697" type="line"/>
      <point x="544" y="697" type="line"/>
      <point x="178" y="291" type="line"/>
      <point x="178" y="697" type="line"/>
      <point x="108" y="697" type="line"/>
    </contour>
  </outline>
</glyph>
<glyph name="L" format="1">
  <advance width="544"/>
  <unicode hex="004C"/>
  <outline>
    <contour>
      <point x="108" y="0" type="line"/>
      <point x="504" y="0" type="line"/>
      <point x="504" y="53" type="line"/>
      <point x="178" y="53" type="line"/>
      <point x="178" y="697" type="line"/>
      <point x="108" y="697" type="line"/>
    </contour>
  </outline>
</glyph>
<glyph name="M" format="1">
  <advance width="827"/>
  <unicode hex="004D"/>
  <outline>
    <contour>
      <point x="108" y="0" type="line"/>
      <point x="177" y="0" type="line"/>
      <point x="177" y="554" type="line"/>
      <point x="391" y="221" type="line"/>
      <point x="439" y="221" type="line"/>
      <point x="652" y="556" type="line"/>
      <point x="652" y="0" type="line"/>
      <point x="719" y="0" type="line"/>
      <point x="719" y="697" type="line"/>
      <point x="677" y="697" type="line"/>
      <point x="415" y="290" type="line"/>
      <point x="157" y="697" type="line"/>
      <point x="108" y="697" type="line"/>
    </contour>
  </outline>
</glyph>
<glyph name="N" format="1">
  <advance width="753"/>
  <unicode hex="004E"/>
  <outline>
    <contour>
      <point x="108" y="0" type="line"/>
      <point x="168" y="0" type="line"/>
      <point x="168" y="571" type="line"/>
      <point x="571" y="0" type="line"/>
      <point x="646" y="0" type="line"/>
      <point x="646" y="697" type="line"/>
      <point x="584" y="697" type="line"/>
      <point x="584" y="91" type="line"/>
      <point x="163" y="697" type="line"/>
      <point x="108" y="697" type="line"/>
    </contour>
  </outline>
</glyph>
<glyph name="O" format="1">
  <advance width="732"/>
  <unicode hex="004F"/>
  <outline>
    <contour>
      <point x="380" y="0" type="move" name="ogonek"/>
    </contour>
    <contour>
      <point x="370" y="49" type="curve" smooth="yes"/>
      <point x="235" y="49"/>
      <point x="167" y="77"/>
      <point x="167" y="218" type="curve" smooth="yes"/>
      <point x="167" y="470" type="line" smooth="yes"/>
      <point x="167" y="612"/>
      <point x="236" y="649"/>
      <point x="370" y="649" type="curve" smooth="yes"/>
      <point x="505" y="649"/>
      <point x="567" y="613"/>
      <point x="567" y="470" type="curve" smooth="yes"/>
      <point x="567" y="218" type="line" smooth="yes"/>
      <point x="567" y="77"/>
      <point x="506" y="49"/>
    </contour>
    <contour>
      <point x="370" y="-10" type="curve" smooth="yes"/>
      <point x="584" y="-10"/>
      <point x="637" y="92"/>
      <point x="637" y="239" type="curve" smooth="yes"/>
      <point x="637" y="447" type="line" smooth="yes"/>
      <point x="637" y="598"/>
      <point x="585" y="707"/>
      <point x="370" y="707" type="curve" smooth="yes"/>
      <point x="147" y="707"/>
      <point x="96" y="604"/>
      <point x="96" y="453" type="curve" smooth="yes"/>
      <point x="96" y="233" type="line" smooth="yes"/>
      <point x="96" y="84"/>
      <point x="148" y="-10"/>
    </contour>
  </outline>
</glyph>
<glyph name="P" format="1">
  <advance width="623"/>
  <unicode hex="0050"/>
  <outline>
    <contour>
      <point x="108" y="0" type="line"/>
      <point x="179" y="0" type="line"/>
      <point x="179" y="264" type="line"/>
      <point x="396" y="264" type="line" smooth="yes"/>
      <point x="475" y="264"/>
      <point x="563" y="310"/>
      <point x="563" y="480" type="curve" smooth="yes"/>
      <point x="563" y="640"/>
      <point x="484" y="697"/>
      <point x="390" y="697" type="curve" smooth="yes"/>
      <point x="108" y="697" type="line"/>
    </contour>
    <contour>
      <point x="179" y="320" type="line"/>
      <point x="179" y="640" type="line"/>
      <point x="387" y="640" type="line" smooth="yes"/>
      <point x="487" y="640"/>
      <point x="487" y="538"/>
      <point x="487" y="473" type="curve" smooth="yes"/>
      <point x="487" y="409"/>
      <point x="479" y="320"/>
      <point x="386" y="320" type="curve" smooth="yes"/>
    </contour>
  </outline>
</glyph>
<glyph name="Q" format="1">
  <advance width="729"/>
  <unicode hex="0051"/>
  <outline>
    <contour>
      <point x="475" y="-192" type="line"/>
      <point x="523" y="-155" type="line"/>
      <point x="427" y="-8" type="line"/>
      <point x="596" y="7"/>
      <point x="637" y="103"/>
      <point x="637" y="239" type="curve" smooth="yes"/>
      <point x="637" y="447" type="line" smooth="yes"/>
      <point x="637" y="598"/>
      <point x="585" y="707"/>
      <point x="370" y="707" type="curve" smooth="yes"/>
      <point x="147" y="707"/>
      <point x="96" y="604"/>
      <point x="96" y="453" type="curve" smooth="yes"/>
      <point x="96" y="233" type="line" smooth="yes"/>
      <point x="96" y="87"/>
      <point x="146" y="-6"/>
      <point x="354" y="-10" type="curve"/>
    </contour>
    <contour>
      <point x="370" y="49" type="curve" smooth="yes"/>
      <point x="235" y="49"/>
      <point x="167" y="77"/>
      <point x="167" y="218" type="curve" smooth="yes"/>
      <point x="167" y="470" type="line" smooth="yes"/>
      <point x="167" y="612"/>
      <point x="236" y="649"/>
      <point x="370" y="649" type="curve" smooth="yes"/>
      <point x="505" y="649"/>
      <point x="567" y="613"/>
      <point x="567" y="470" type="curve" smooth="yes"/>
      <point x="567" y="218" type="line" smooth="yes"/>
      <point x="567" y="77"/>
      <point x="506" y="49"/>
    </contour>
  </outline>
</glyph>
<glyph name="R" format="1">
  <advance width="697"/>
  <unicode hex="0052"/>
  <outline>
    <contour>
      <point x="108" y="0" type="line"/>
      <point x="179" y="0" type="line"/>
      <point x="179" y="297" type="line"/>
      <point x="179" y="297"/>
      <point x="429" y="298"/>
      <point x="438" y="298" type="curve"/>
      <point x="586" y="0" type="line"/>
      <point x="657" y="0" type="line"/>
      <point x="501" y="313" type="line"/>
      <point x="543" y="332"/>
      <point x="597" y="372"/>
      <point x="597" y="497" type="curve" smooth="yes"/>
      <point x="597" y="676"/>
      <point x="516" y="697"/>
      <point x="413" y="697" type="curve" smooth="yes"/>
      <point x="108" y="697" type="line"/>
    </contour>
    <contour>
      <point x="179" y="354" type="line"/>
      <point x="179" y="640" type="line"/>
      <point x="413" y="640" type="line" smooth="yes"/>
      <point x="508" y="640"/>
      <point x="522" y="584"/>
      <point x="522" y="497" type="curve" smooth="yes"/>
      <point x="522" y="395"/>
      <point x="497" y="354"/>
      <point x="405" y="354" type="curve" smooth="yes"/>
    </contour>
  </outline>
</glyph>
<glyph name="S" format="1">
  <advance width="643"/>
  <unicode hex="0053"/>
  <outline>
    <contour>
      <point x="338" y="-10" type="curve" smooth="yes"/>
      <point x="503" y="-10"/>
      <point x="567" y="57"/>
      <point x="567" y="193" type="curve" smooth="yes"/>
      <point x="567" y="304"/>
      <point x="532" y="337"/>
      <point x="437" y="370" type="curve" smooth="yes"/>
      <point x="235" y="439" type="line" smooth="yes"/>
      <point x="175" y="460"/>
      <point x="163" y="476"/>
      <point x="163" y="539" type="curve" smooth="yes"/>
      <point x="163" y="614"/>
      <point x="193" y="649"/>
      <point x="333" y="649" type="curve" smooth="yes"/>
      <point x="457" y="649"/>
      <point x="506" y="629"/>
      <point x="543" y="610" type="curve"/>
      <point x="561" y="664" type="line"/>
      <point x="527" y="683"/>
      <point x="458" y="707"/>
      <point x="333" y="707" type="curve" smooth="yes"/>
      <point x="192" y="707"/>
      <point x="94" y="673"/>
      <point x="94" y="539" type="curve" smooth="yes"/>
      <point x="94" y="428"/>
      <point x="139" y="405"/>
      <point x="225" y="375" type="curve" smooth="yes"/>
      <point x="423" y="307" type="line" smooth="yes"/>
      <point x="491" y="283"/>
      <point x="501" y="257"/>
      <point x="501" y="198" type="curve" smooth="yes"/>
      <point x="501" y="89"/>
      <point x="461" y="49"/>
      <point x="338" y="49" type="curve" smooth="yes"/>
      <point x="228" y="49"/>
      <point x="159" y="72"/>
      <point x="103" y="110" type="curve"/>
      <point x="77" y="57" type="line"/>
      <point x="142" y="18"/>
      <point x="205" y="-10"/>
    </contour>
  </outline>
</glyph>
<glyph name="T" format="1">
  <advance width="590"/>
  <unicode hex="0054"/>
  <outline>
    <contour>
      <point x="260" y="0" type="line"/>
      <point x="330" y="0" type="line"/>
      <point x="330" y="635" type="line"/>
      <point x="536" y="635" type="line"/>
      <point x="536" y="697" type="line"/>
      <point x="55" y="697" type="line"/>
      <point x="55" y="635" type="line"/>
      <point x="260" y="635" type="line"/>
    </contour>
  </outline>
</glyph>
<glyph name="U" format="1">
  <advance width="1497"/>
  <unicode hex="0055"/>
  <outline>
    <contour>
      <point x="812" y="0" type="move" name="ogonek"/>
    </contour>
    <contour>
      <point x="759" y="-20" type="curve" smooth="yes"/>
      <point x="1185" y="-20"/>
      <point x="1292" y="209"/>
      <point x="1292" y="469" type="curve" smooth="yes"/>
      <point x="1292" y="1427" type="line"/>
      <point x="1147" y="1427" type="line"/>
      <point x="1147" y="450" type="line" smooth="yes"/>
      <point x="1147" y="140"/>
      <point x="959" y="100"/>
      <point x="759" y="100" type="curve" smooth="yes"/>
      <point x="561" y="100"/>
      <point x="350" y="142"/>
      <point x="350" y="450" type="curve" smooth="yes"/>
      <point x="350" y="1427" type="line"/>
      <point x="205" y="1427" type="line"/>
      <point x="205" y="476" type="line" smooth="yes"/>
      <point x="205" y="212"/>
      <point x="305" y="-20"/>
    </contour>
  </outline>
</glyph>
<glyph name="V" format="1">
  <advance width="647"/>
  <unicode hex="0056"/>
  <outline>
    <contour>
      <point x="305" y="0" type="line"/>
      <point x="338" y="0" type="line"/>
      <point x="593" y="697" type="line"/>
      <point x="521" y="697" type="line"/>
      <point x="321" y="146" type="line"/>
      <point x="125" y="697" type="line"/>
      <point x="56" y="697" type="line"/>
    </contour>
  </outline>
</glyph>
<glyph name="W" format="1">
  <advance width="1009"/>
  <unicode hex="0057"/>
  <outline>
    <contour>
      <point x="277" y="0" type="line"/>
      <point x="318" y="0" type="line"/>
      <point x="516" y="654" type="line"/>
      <point x="700" y="0" type="line"/>
      <point x="745" y="0" type="line"/>
      <point x="943" y="697" type="line"/>
      <point x="883" y="697" type="line"/>
      <point x="722" y="134" type="line"/>
      <point x="557" y="697" type="line"/>
      <point x="462" y="697" type="line"/>
      <point x="295" y="137" type="line"/>
      <point x="128" y="697" type="line"/>
      <point x="67" y="697" type="line"/>
    </contour>
  </outline>
</glyph>
<glyph name="X" format="1">
  <advance width="1326"/>
  <unicode hex="0058"/>
  <outline>
    <contour>
      <point x="128" y="0" type="line"/>
      <point x="281" y="0" type="line"/>
      <point x="666" y="608" type="line"/>
      <point x="1046" y="0" type="line"/>
      <point x="1199" y="0" type="line"/>
      <point x="739" y="725" type="line"/>
      <point x="1185" y="1428" type="line"/>
      <point x="1035" y="1428" type="line"/>
      <point x="669" y="839" type="line"/>
      <point x="295" y="1428" type="line"/>
      <point x="156" y="1428" type="line"/>
      <point x="596" y="721" type="line"/>
    </contour>
  </outline>
</glyph>
<glyph name="Y" format="1">
  <advance width="637"/>
  <unicode hex="0059"/>
  <outline>
    <contour>
      <point x="283" y="0" type="line"/>
      <point x="354" y="0" type="line"/>
      <point x="354" y="278" type="line"/>
      <point x="605" y="697" type="line"/>
      <point x="531" y="697" type="line"/>
      <point x="318" y="330" type="line"/>
      <point x="107" y="697" type="line"/>
      <point x="32" y="697" type="line"/>
      <point x="283" y="278" type="line"/>
    </contour>
  </outline>
</glyph>
<glyph name="Z" format="1">
  <advance width="612"/>
  <unicode hex="005A"/>
  <outline>
    <contour>
      <point x="105" y="0" type="line"/>
      <point x="522" y="0" type="line"/>
      <point x="522" y="64" type="line"/>
      <point x="185" y="64" type="line"/>
      <point x="516" y="644" type="line"/>
      <point x="516" y="697" type="line"/>
      <point x="122" y="697" type="line"/>
      <point x="122" y="635" type="line"/>
      <point x="436" y="635" type="line"/>
      <point x="105" y="61" type="line"/>
    </contour>
  </outline>
</glyph>
<glyph name="bracketleft" format="1">
  <advance width="353"/>
  <unicode hex="005B"/>
  <outline>
    <contour>
      <point x="138" y="-33" type="line"/>
      <point x="292" y="-33" type="line"/>
      <point x="292" y="24" type="line"/>
      <point x="205" y="24" type="line"/>
      <point x="205" y="671" type="line"/>
      <point x="292" y="671" type="line"/>
      <point x="292" y="728" type="line"/>
      <point x="138" y="728" type="line"/>
    </contour>
  </outline>
</glyph>
<glyph name="backslash" format="1">
  <advance width="299"/>
  <unicode hex="005C"/>
  <outline>
    <contour>
      <point x="209" y="0" type="line"/>
      <point x="281" y="0" type="line"/>
      <point x="94" y="732" type="line"/>
      <point x="19" y="732" type="line"/>
    </contour>
  </outline>
</glyph>
<glyph name="bracketright" format="1">
  <advance width="724"/>
  <unicode hex="005D"/>
  <outline>
    <contour>
      <point x="224" y="-68" type="line"/>
      <point x="540" y="-68" type="line"/>
      <point x="540" y="1491" type="line"/>
      <point x="224" y="1491" type="line"/>
      <point x="224" y="1373" type="line"/>
      <point x="402" y="1373" type="line"/>
      <point x="402" y="48" type="line"/>
      <point x="224" y="48" type="line"/>
    </contour>
  </outline>
</glyph>
<glyph name="asciicircum" format="1">
  <advance width="1257"/>
  <unicode hex="005E"/>
  <outline>
    <contour>
      <point x="198" y="695" type="line"/>
      <point x="367" y="695" type="line"/>
      <point x="632" y="1190" type="line"/>
      <point x="900" y="695" type="line"/>
      <point x="1073" y="695" type="line"/>
      <point x="729" y="1283" type="line"/>
      <point x="529" y="1283" type="line"/>
    </contour>
  </outline>
</glyph>
<glyph name="underscore" format="1">
  <advance width="944"/>
  <unicode hex="005F"/>
  <outline>
    <contour>
      <point x="18" y="-147" type="line"/>
      <point x="929" y="-147" type="line"/>
      <point x="929" y="-12" type="line"/>
      <point x="18" y="-12" type="line"/>
    </contour>
  </outline>
</glyph>
<glyph name="grave" format="1">
  <advance width="318"/>
  <unicode hex="0060"/>
  <outline>
    <contour>
      <point x="-3" y="774" type="line"/>
      <point x="113" y="584" type="line"/>
      <point x="169" y="584" type="line"/>
      <point x="95" y="774" type="line"/>
    </contour>
  </outline>
</glyph>
<glyph name="a" format="1">
  <advance width="1171"/>
  <unicode hex="0061"/>
  <outline>
    <contour>
      <point x="468" y="-21" type="curve" smooth="yes"/>
      <point x="685" y="-21"/>
      <point x="783" y="104"/>
      <point x="819" y="162" type="curve"/>
      <point x="851" y="54"/>
      <point x="894" y="-8"/>
      <point x="1024" y="-8" type="curve" smooth="yes"/>
      <point x="1030" y="-8" type="line"/>
      <point x="1058" y="104" type="line"/>
      <point x="972" y="104"/>
      <point x="948" y="124"/>
      <point x="948" y="244" type="curve" smooth="yes"/>
      <point x="948" y="712" type="line" smooth="yes"/>
      <point x="948" y="928"/>
      <point x="859" y="1070"/>
      <point x="604" y="1070" type="curve" smooth="yes"/>
      <point x="335" y="1070"/>
      <point x="192" y="1003"/>
      <point x="192" y="793" type="curve" smooth="yes"/>
      <point x="192" y="736" type="line"/>
      <point x="328" y="736" type="line"/>
      <point x="328" y="786" type="line" smooth="yes"/>
      <point x="328" y="872"/>
      <point x="339" y="953"/>
      <point x="598" y="953" type="curve" smooth="yes"/>
      <point x="795" y="953"/>
      <point x="809" y="857"/>
      <point x="809" y="771" type="curve"/>
      <point x="809" y="707"/>
      <point x="807" y="675"/>
      <point x="773" y="663" type="curve" smooth="yes"/>
      <point x="538" y="576" type="line" smooth="yes"/>
      <point x="222" y="459"/>
      <point x="154" y="402"/>
      <point x="163" y="238" type="curve" smooth="yes"/>
      <point x="173" y="88"/>
      <point x="230" y="-21"/>
    </contour>
    <contour>
      <point x="483" y="92" type="curve" smooth="yes"/>
      <point x="313" y="92"/>
      <point x="298" y="134"/>
      <point x="293" y="252" type="curve" smooth="yes"/>
      <point x="288" y="363"/>
      <point x="361" y="402"/>
      <point x="555" y="476" type="curve" smooth="yes"/>
      <point x="809" y="571" type="line"/>
      <point x="809" y="302" type="line"/>
      <point x="792" y="194"/>
      <point x="625" y="92"/>
    </contour>
    <contour>
      <point x="578" y="1052" type="move" name="top"/>
    </contour>
    <contour>
      <point x="1084" y="16" type="move" name="ogonek"/>
    </contour>
  </outline>
</glyph>
<glyph name="b" format="1">
  <advance width="579"/>
  <unicode hex="0062"/>
  <outline>
    <contour>
      <point x="294" y="-10" type="curve" smooth="yes"/>
      <point x="433" y="-10"/>
      <point x="505" y="74"/>
      <point x="505" y="179" type="curve" smooth="yes"/>
      <point x="505" y="354" type="line" smooth="yes"/>
      <point x="505" y="460"/>
      <point x="431" y="522"/>
      <point x="308" y="522" type="curve" smooth="yes"/>
      <point x="257" y="522"/>
      <point x="197" y="505"/>
      <point x="163" y="484" type="curve"/>
      <point x="163" y="732" type="line"/>
      <point x="96" y="732" type="line"/>
      <point x="96" y="0" type="line"/>
      <point x="149" y="0" type="line"/>
      <point x="160" y="37" type="line"/>
      <point x="183" y="23"/>
      <point x="230" y="-10"/>
    </contour>
    <contour>
      <point x="286" y="49" type="curve" smooth="yes"/>
      <point x="238" y="49"/>
      <point x="194" y="68"/>
      <point x="163" y="83" type="curve"/>
      <point x="163" y="429" type="line"/>
      <point x="212" y="451"/>
      <point x="275" y="465"/>
      <point x="315" y="465" type="curve" smooth="yes"/>
      <point x="387" y="465"/>
      <point x="438" y="432"/>
      <point x="438" y="364" type="curve" smooth="yes"/>
      <point x="438" y="165" type="line" smooth="yes"/>
      <point x="438" y="95"/>
      <point x="367" y="49"/>
    </contour>
  </outline>
</glyph>
<glyph name="c" format="1">
  <advance width="1075"/>
  <unicode hex="0063"/>
  <outline>
    <contour>
      <point x="573" y="-21" type="curve" smooth="yes"/>
      <point x="827" y="-21"/>
      <point x="938" y="59"/>
      <point x="968" y="268" type="curve"/>
      <point x="842" y="268" type="line"/>
      <point x="819" y="122"/>
      <point x="780" y="94"/>
      <point x="569" y="94" type="curve" smooth="yes"/>
      <point x="401" y="94"/>
      <point x="290" y="157"/>
      <point x="290" y="332" type="curve" smooth="yes"/>
      <point x="290" y="735" type="line" smooth="yes"/>
      <point x="290" y="894"/>
      <point x="380" y="953"/>
      <point x="569" y="953" type="curve" smooth="yes"/>
      <point x="765" y="953"/>
      <point x="837" y="917"/>
      <point x="838" y="724" type="curve"/>
      <point x="970" y="739" type="line"/>
      <point x="970" y="1010"/>
      <point x="799" y="1070"/>
      <point x="567" y="1070" type="curve" smooth="yes"/>
      <point x="315" y="1070"/>
      <point x="153" y="934"/>
      <point x="153" y="743" type="curve" smooth="yes"/>
      <point x="153" y="354" type="line" smooth="yes"/>
      <point x="153" y="153"/>
      <point x="288" y="-21"/>
    </contour>
  </outline>
</glyph>
<glyph name="d" format="1">
  <advance width="577"/>
  <unicode hex="0064"/>
  <outline>
    <contour>
      <point x="364" y="514" type="move" name="caron.alt"/>
    </contour>
    <contour>
      <point x="278" y="-10" type="curve" smooth="yes"/>
      <point x="331" y="-10"/>
      <point x="392" y="13"/>
      <point x="420" y="36" type="curve"/>
      <point x="436" y="0" type="line"/>
      <point x="482" y="0" type="line"/>
      <point x="482" y="732" type="line"/>
      <point x="415" y="732" type="line"/>
      <point x="415" y="502" type="line"/>
      <point x="382" y="514"/>
      <point x="325" y="522"/>
      <point x="290" y="522" type="curve" smooth="yes"/>
      <point x="141" y="522"/>
      <point x="75" y="462"/>
      <point x="75" y="354" type="curve" smooth="yes"/>
      <point x="75" y="167" type="line" smooth="yes"/>
      <point x="75" y="71"/>
      <point x="125" y="-10"/>
    </contour>
    <contour>
      <point x="278" y="49" type="curve" smooth="yes"/>
      <point x="205" y="49"/>
      <point x="142" y="86"/>
      <point x="142" y="157" type="curve" smooth="yes"/>
      <point x="142" y="368" type="line" smooth="yes"/>
      <point x="142" y="438"/>
      <point x="206" y="465"/>
      <point x="285" y="465" type="curve" smooth="yes"/>
      <point x="332" y="465"/>
      <point x="382" y="458"/>
      <point x="415" y="442" type="curve"/>
      <point x="415" y="86" type="line"/>
      <point x="394" y="73"/>
      <point x="340" y="49"/>
    </contour>
  </outline>
</glyph>
<glyph name="e" format="1">
  <advance width="542"/>
  <unicode hex="0065"/>
  <outline>
    <contour>
      <point x="338" y="0" type="move" name="ogonek"/>
    </contour>
    <contour>
      <point x="276" y="-10" type="curve" smooth="yes"/>
      <point x="422" y="-10"/>
      <point x="461" y="21"/>
      <point x="472" y="124" type="curve"/>
      <point x="415" y="124" type="line"/>
      <point x="406" y="51"/>
      <point x="374" y="47"/>
      <point x="274" y="47" type="curve" smooth="yes"/>
      <point x="156" y="47"/>
      <point x="142" y="91"/>
      <point x="142" y="188" type="curve" smooth="yes"/>
      <point x="142" y="253" type="line"/>
      <point x="477" y="253" type="line"/>
      <point x="477" y="374" type="line" smooth="yes"/>
      <point x="477" y="468"/>
      <point x="409" y="522"/>
      <point x="279" y="522" type="curve" smooth="yes"/>
      <point x="123" y="522"/>
      <point x="75" y="451"/>
      <point x="75" y="359" type="curve" smooth="yes"/>
      <point x="75" y="194" type="line" smooth="yes"/>
      <point x="75" y="64"/>
      <point x="106" y="-10"/>
    </contour>
    <contour>
      <point x="142" y="304" type="line"/>
      <point x="142" y="368" type="line" smooth="yes"/>
      <point x="142" y="437"/>
      <point x="192" y="465"/>
      <point x="277" y="465" type="curve" smooth="yes"/>
      <point x="359" y="465"/>
      <point x="410" y="445"/>
      <point x="410" y="380" type="curve" smooth="yes"/>
      <point x="410" y="304" type="line"/>
    </contour>
  </outline>
</glyph>
<glyph name="f" format="1">
  <advance width="784"/>
  <unicode hex="0066"/>
  <outline>
    <contour>
      <point x="368" y="1428" type="move" name="top"/>
    </contour>
    <contour>
      <point x="309" y="0" type="line"/>
      <point x="447" y="0" type="line"/>
      <point x="447" y="928" type="line"/>
      <point x="729" y="928" type="line"/>
      <point x="729" y="1052" type="line"/>
      <point x="447" y="1052" type="line"/>
      <point x="447" y="1271" type="line" smooth="yes"/>
      <point x="447" y="1349"/>
      <point x="495" y="1399"/>
      <point x="608" y="1399" type="curve" smooth="yes"/>
      <point x="743" y="1399" type="line"/>
      <point x="728" y="1498" type="line"/>
      <point x="613" y="1498" type="line" smooth="yes"/>
      <point x="418" y="1498"/>
      <point x="309" y="1442"/>
      <point x="309" y="1279" type="curve" smooth="yes"/>
      <point x="309" y="1052" type="line"/>
      <point x="112" y="1052" type="line"/>
      <point x="112" y="928" type="line"/>
      <point x="309" y="928" type="line"/>
    </contour>
  </outline>
</glyph>
<glyph name="g" format="1">
  <advance width="1145"/>
  <unicode hex="0067"/>
  <outline>
    <contour>
      <point x="557" y="1052" type="move" name="top"/>
    </contour>
    <contour>
      <point x="611" y="-388" type="curve" smooth="yes"/>
      <point x="852" y="-388"/>
      <point x="971" y="-191"/>
      <point x="971" y="47" type="curve" smooth="yes"/>
      <point x="971" y="1051" type="line"/>
      <point x="851" y="1051" type="line"/>
      <point x="835" y="971" type="line"/>
      <point x="797" y="1018"/>
      <point x="712" y="1070"/>
      <point x="551" y="1070" type="curve" smooth="yes"/>
      <point x="291" y="1070"/>
      <point x="153" y="945"/>
      <point x="153" y="714" type="curve" smooth="yes"/>
      <point x="153" y="387" type="line" smooth="yes"/>
      <point x="153" y="161"/>
      <point x="266" y="45"/>
      <point x="545" y="45" type="curve" smooth="yes"/>
      <point x="612" y="45"/>
      <point x="776" y="66"/>
      <point x="833" y="133" type="curve"/>
      <point x="833" y="-32" type="line" smooth="yes"/>
      <point x="833" y="-194"/>
      <point x="757" y="-279"/>
      <point x="555" y="-279" type="curve" smooth="yes"/>
      <point x="445" y="-279"/>
      <point x="329" y="-260"/>
      <point x="297" y="-243" type="curve"/>
      <point x="264" y="-358" type="line"/>
      <point x="344" y="-383"/>
      <point x="462" y="-388"/>
    </contour>
    <contour>
      <point x="564" y="167" type="curve" smooth="yes"/>
      <point x="411" y="167"/>
      <point x="290" y="208"/>
      <point x="290" y="346" type="curve" smooth="yes"/>
      <point x="290" y="743" type="line" smooth="yes"/>
      <point x="290" y="886"/>
      <point x="400" y="953"/>
      <point x="562" y="953" type="curve" smooth="yes"/>
      <point x="756" y="953"/>
      <point x="833" y="895"/>
      <point x="833" y="765" type="curve" smooth="yes"/>
      <point x="833" y="266" type="line"/>
      <point x="808" y="244"/>
      <point x="733" y="167"/>
    </contour>
  </outline>
</glyph>
<glyph name="h" format="1">
  <advance width="583"/>
  <unicode hex="0068"/>
  <outline>
    <contour>
      <point x="96" y="0" type="line"/>
      <point x="163" y="0" type="line"/>
      <point x="163" y="373" type="line" smooth="yes"/>
      <point x="163" y="422"/>
      <point x="206" y="469"/>
      <point x="321" y="469" type="curve" smooth="yes"/>
      <point x="399" y="469"/>
      <point x="428" y="439"/>
      <point x="428" y="390" type="curve" smooth="yes"/>
      <point x="428" y="0" type="line"/>
      <point x="495" y="0" type="line"/>
      <point x="495" y="371" type="line" smooth="yes"/>
      <point x="495" y="449"/>
      <point x="466" y="522"/>
      <point x="322" y="522" type="curve" smooth="yes"/>
      <point x="236" y="522"/>
      <point x="188" y="495"/>
      <point x="163" y="461" type="curve"/>
      <point x="163" y="732" type="line"/>
      <point x="96" y="732" type="line"/>
    </contour>
  </outline>
</glyph>
<glyph name="k" format="1">
  <advance width="1105"/>
  <unicode hex="006B"/>
  <outline>
    <contour>
      <point x="196" y="0" type="line"/>
      <point x="333" y="0" type="line"/>
      <point x="333" y="310" type="line"/>
      <point x="516" y="489" type="line"/>
      <point x="922" y="0" type="line"/>
      <point x="1091" y="0" type="line"/>
      <point x="586" y="584" type="line"/>
      <point x="1033" y="1052" type="line"/>
      <point x="889" y="1052" type="line"/>
      <point x="333" y="477" type="line"/>
      <point x="333" y="1500" type="line"/>
      <point x="196" y="1500" type="line"/>
    </contour>
    <contour>
      <point x="669" y="1052" type="move" name="top"/>
    </contour>
    <contour>
      <point x="603" y="0" type="move" name="bot"/>
    </contour>
  </outline>
</glyph>
<glyph name="l" format="1">
  <advance width="667"/>
  <unicode hex="006C"/>
  <outline>
    <contour>
      <point x="325" y="0" type="move" name="bot"/>
    </contour>
    <contour>
      <point x="281" y="1502" type="move" name="top"/>
    </contour>
    <contour>
      <point x="200" y="815" type="move" name="mid"/>
    </contour>
    <contour>
      <point x="179" y="1052" type="move" name="caron.alt"/>
    </contour>
    <contour>
      <point x="528" y="-6" type="curve" smooth="yes"/>
      <point x="546" y="-6" type="line"/>
      <point x="569" y="126" type="line"/>
      <point x="536" y="126" type="line" smooth="yes"/>
      <point x="373" y="126"/>
      <point x="340" y="149"/>
      <point x="340" y="355" type="curve" smooth="yes"/>
      <point x="340" y="1499" type="line"/>
      <point x="202" y="1499" type="line"/>
      <point x="202" y="361" type="line" smooth="yes"/>
      <point x="202" y="29"/>
      <point x="300" y="-6"/>
    </contour>
  </outline>
</glyph>
<glyph name="m" format="1">
  <advance width="1829"/>
  <unicode hex="006D"/>
  <outline>
    <contour>
      <point x="197" y="0" type="line"/>
      <point x="334" y="0" type="line"/>
      <point x="334" y="765" type="line" smooth="yes"/>
      <point x="334" y="865"/>
      <point x="373" y="959"/>
      <point x="609" y="959" type="curve" smooth="yes"/>
      <point x="768" y="959"/>
      <point x="855" y="893"/>
      <point x="855" y="792" type="curve" smooth="yes"/>
      <point x="855" y="0" type="line"/>
      <point x="993" y="0" type="line"/>
      <point x="993" y="758" type="line"/>
      <point x="988" y="864"/>
      <point x="1030" y="959"/>
      <point x="1266" y="959" type="curve" smooth="yes"/>
      <point x="1425" y="959"/>
      <point x="1507" y="893"/>
      <point x="1507" y="792" type="curve" smooth="yes"/>
      <point x="1507" y="0" type="line"/>
      <point x="1644" y="0" type="line"/>
      <point x="1644" y="756" type="line" smooth="yes"/>
      <point x="1644" y="916"/>
      <point x="1586" y="1070"/>
      <point x="1292" y="1070" type="curve" smooth="yes"/>
      <point x="1148" y="1070"/>
      <point x="1054" y="1024"/>
      <point x="951" y="927" type="curve"/>
      <point x="904" y="1005"/>
      <point x="810" y="1070"/>
      <point x="631" y="1070" type="curve" smooth="yes"/>
      <point x="492" y="1070"/>
      <point x="415" y="1040"/>
      <point x="334" y="944" type="curve"/>
      <point x="334" y="1052" type="line"/>
      <point x="197" y="1052" type="line"/>
    </contour>
    <contour>
      <point x="953" y="1052" type="move" name="top"/>
    </contour>
  </outline>
</glyph>
<glyph name="n" format="1">
  <advance width="583"/>
  <unicode hex="006E"/>
  <outline>
    <contour>
      <point x="96" y="0" type="line"/>
      <point x="164" y="0" type="line"/>
      <point x="164" y="375" type="line" smooth="yes"/>
      <point x="164" y="424"/>
      <point x="210" y="469"/>
      <point x="321" y="469" type="curve" smooth="yes"/>
      <point x="402" y="469"/>
      <point x="428" y="438"/>
      <point x="428" y="389" type="curve" smooth="yes"/>
      <point x="428" y="0" type="line"/>
      <point x="495" y="0" type="line"/>
      <point x="495" y="386" type="line" smooth="yes"/>
      <point x="495" y="464"/>
      <point x="456" y="522"/>
      <point x="321" y="522" type="curve" smooth="yes"/>
      <point x="247" y="522"/>
      <point x="199" y="505"/>
      <point x="164" y="461" type="curve"/>
      <point x="164" y="514" type="line"/>
      <point x="96" y="514" type="line"/>
    </contour>
  </outline>
</glyph>
<glyph name="o" format="1">
  <advance width="1151"/>
  <unicode hex="006F"/>
  <outline>
    <contour>
      <point x="576" y="96" type="curve" smooth="yes"/>
      <point x="411" y="96"/>
      <point x="290" y="146"/>
      <point x="290" y="291" type="curve" smooth="yes"/>
      <point x="290" y="757" type="line" smooth="yes"/>
      <point x="290" y="901"/>
      <point x="406" y="953"/>
      <point x="576" y="953" type="curve" smooth="yes"/>
      <point x="737" y="953"/>
      <point x="861" y="901"/>
      <point x="861" y="757" type="curve" smooth="yes"/>
      <point x="861" y="291" type="line" smooth="yes"/>
      <point x="861" y="146"/>
      <point x="741" y="96"/>
    </contour>
    <contour>
      <point x="576" y="-21" type="curve" smooth="yes"/>
      <point x="872" y="-21"/>
      <point x="998" y="123"/>
      <point x="998" y="309" type="curve" smooth="yes"/>
      <point x="998" y="738" type="line" smooth="yes"/>
      <point x="998" y="921"/>
      <point x="905" y="1070"/>
      <point x="576" y="1070" type="curve" smooth="yes"/>
      <point x="242" y="1070"/>
      <point x="153" y="921"/>
      <point x="153" y="738" type="curve" smooth="yes"/>
      <point x="153" y="309" type="line" smooth="yes"/>
      <point x="153" y="124"/>
      <point x="269" y="-21"/>
    </contour>
    <contour>
      <point x="571" y="1052" type="move" name="top"/>
    </contour>
    <contour>
      <point x="612" y="0" type="move" name="ogonek"/>
    </contour>
    <contour>
      <point x="586" y="0" type="move" name="bot"/>
    </contour>
  </outline>
</glyph>
<glyph name="p" format="1">
  <advance width="581"/>
  <unicode hex="0070"/>
  <outline>
    <contour>
      <point x="96" y="-199" type="line"/>
      <point x="163" y="-199" type="line"/>
      <point x="163" y="21" type="line"/>
      <point x="188" y="7"/>
      <point x="230" y="-10"/>
      <point x="298" y="-10" type="curve" smooth="yes"/>
      <point x="425" y="-10"/>
      <point x="502" y="60"/>
      <point x="502" y="173" type="curve" smooth="yes"/>
      <point x="502" y="350" type="line" smooth="yes"/>
      <point x="502" y="449"/>
      <point x="443" y="522"/>
      <point x="308" y="522" type="curve" smooth="yes"/>
      <point x="247" y="522"/>
      <point x="189" y="495"/>
      <point x="166" y="472" type="curve"/>
      <point x="156" y="514" type="line"/>
      <point x="96" y="514" type="line"/>
    </contour>
    <contour>
      <point x="296" y="47" type="curve" smooth="yes"/>
      <point x="242" y="47"/>
      <point x="196" y="59"/>
      <point x="163" y="78" type="curve"/>
      <point x="163" y="397" type="line"/>
      <point x="167" y="408"/>
      <point x="220" y="465"/>
      <point x="299" y="465" type="curve" smooth="yes"/>
      <point x="373" y="465"/>
      <point x="435" y="428"/>
      <point x="435" y="360" type="curve" smooth="yes"/>
      <point x="435" y="159" type="line" smooth="yes"/>
      <point x="435" y="90"/>
      <point x="375" y="47"/>
    </contour>
  </outline>
</glyph>
<glyph name="q" format="1">
  <advance width="1194"/>
  <unicode hex="0071"/>
  <outline>
    <contour>
      <point x="860" y="-407" type="line"/>
      <point x="997" y="-407" type="line"/>
      <point x="997" y="1052" type="line"/>
      <point x="818" y="1052" type="line"/>
      <point x="830" y="957" type="line"/>
      <point x="818" y="1006"/>
      <point x="676" y="1070"/>
      <point x="570" y="1070" type="curve" smooth="yes"/>
      <point x="285" y="1070"/>
      <point x="162" y="930"/>
      <point x="162" y="715" type="curve" smooth="yes"/>
      <point x="162" y="312" type="line" smooth="yes"/>
      <point x="162" y="94"/>
      <point x="342" y="-21"/>
      <point x="595" y="-21" type="curve" smooth="yes"/>
      <point x="662" y="-21"/>
      <point x="795" y="-2"/>
      <point x="860" y="55" type="curve"/>
    </contour>
    <contour>
      <point x="583" y="96" type="curve" smooth="yes"/>
      <point x="435" y="96"/>
      <point x="300" y="131"/>
      <point x="300" y="270" type="curve" smooth="yes"/>
      <point x="300" y="743" type="line" smooth="yes"/>
      <point x="300" y="886"/>
      <point x="421" y="953"/>
      <point x="588" y="953" type="curve" smooth="yes"/>
      <point x="780" y="953"/>
      <point x="862" y="877"/>
      <point x="862" y="810" type="curve" smooth="yes"/>
      <point x="862" y="804"/>
      <point x="861" y="799"/>
      <point x="860" y="793" type="curve"/>
      <point x="860" y="190" type="line"/>
      <point x="845" y="160"/>
      <point x="739" y="96"/>
    </contour>
  </outline>
</glyph>
<glyph name="r" format="1">
  <advance width="373"/>
  <unicode hex="0072"/>
  <outline>
    <contour>
      <point x="99" y="0" type="line"/>
      <point x="166" y="0" type="line"/>
      <point x="166" y="353" type="line" smooth="yes"/>
      <point x="166" y="355"/>
      <point x="165" y="357"/>
      <point x="165" y="359" type="curve" smooth="yes"/>
      <point x="165" y="413"/>
      <point x="239" y="462"/>
      <point x="334" y="462" type="curve" smooth="yes"/>
      <point x="339" y="462" type="line"/>
      <point x="342" y="521" type="line"/>
      <point x="259" y="518"/>
      <point x="191" y="496"/>
      <point x="166" y="418" type="curve"/>
      <point x="166" y="514" type="line"/>
      <point x="99" y="514" type="line"/>
    </contour>
  </outline>
</glyph>
<glyph name="s" format="1">
  <advance width="453"/>
  <unicode hex="0073"/>
  <outline>
    <contour>
      <point x="251" y="522" type="curve" smooth="yes"/>
      <point x="121" y="522"/>
      <point x="75" y="474"/>
      <point x="75" y="393" type="curve" smooth="yes"/>
      <point x="75" y="314"/>
      <point x="101" y="288"/>
      <point x="174" y="262" type="curve" smooth="yes"/>
      <point x="282" y="223" type="line" smooth="yes"/>
      <point x="341" y="202"/>
      <point x="340" y="178"/>
      <point x="340" y="129" type="curve" smooth="yes"/>
      <point x="340" y="71"/>
      <point x="311" y="46"/>
      <point x="230" y="46" type="curve" smooth="yes"/>
      <point x="148" y="46"/>
      <point x="111" y="65"/>
      <point x="83" y="81" type="curve"/>
      <point x="63" y="28" type="line"/>
      <point x="95" y="9"/>
      <point x="139" y="-10"/>
      <point x="230" y="-10" type="curve" smooth="yes"/>
      <point x="373" y="-10"/>
      <point x="403" y="60"/>
      <point x="403" y="132" type="curve" smooth="yes"/>
      <point x="403" y="210"/>
      <point x="399" y="248"/>
      <point x="310" y="280" type="curve" smooth="yes"/>
      <point x="190" y="322" type="line"/>
      <point x="148" y="338"/>
      <point x="142" y="351"/>
      <point x="142" y="394" type="curve" smooth="yes"/>
      <point x="142" y="450"/>
      <point x="177" y="466"/>
      <point x="253" y="466" type="curve" smooth="yes"/>
      <point x="306" y="466"/>
      <point x="353" y="455"/>
      <point x="375" y="444" type="curve"/>
      <point x="393" y="495" type="line"/>
      <point x="369" y="507"/>
      <point x="326" y="522"/>
    </contour>
  </outline>
</glyph>
<glyph name="t" format="1">
  <advance width="397"/>
  <unicode hex="0074"/>
  <outline>
    <contour>
      <point x="76" y="514" type="move" name="caron.alt"/>
    </contour>
    <contour>
      <point x="338" y="-3" type="curve" smooth="yes"/>
      <point x="348" y="-3" type="line"/>
      <point x="354" y="51" type="line"/>
      <point x="347" y="51" type="line" smooth="yes"/>
      <point x="245" y="51"/>
      <point x="204" y="71"/>
      <point x="204" y="141" type="curve" smooth="yes"/>
      <point x="204" y="459" type="line"/>
      <point x="336" y="459" type="line"/>
      <point x="336" y="514" type="line"/>
      <point x="204" y="514" type="line"/>
      <point x="204" y="668" type="line"/>
      <point x="150" y="668" type="line"/>
      <point x="140" y="514" type="line"/>
      <point x="48" y="514" type="line"/>
      <point x="48" y="459" type="line"/>
      <point x="136" y="459" type="line"/>
      <point x="136" y="137" type="line" smooth="yes"/>
      <point x="136" y="36"/>
      <point x="207" y="-3"/>
    </contour>
  </outline>
</glyph>
<glyph name="u" format="1">
  <advance width="583"/>
  <unicode hex="0075"/>
  <outline>
    <contour>
      <point x="487" y="514" type="line"/>
      <point x="419" y="514" type="line"/>
      <point x="419" y="135" type="line" smooth="yes"/>
      <point x="419" y="86"/>
      <point x="373" y="43"/>
      <point x="262" y="43" type="curve" smooth="yes"/>
      <point x="181" y="43"/>
      <point x="155" y="78"/>
      <point x="155" y="127" type="curve" smooth="yes"/>
      <point x="155" y="514" type="line"/>
      <point x="88" y="514" type="line"/>
      <point x="88" y="131" type="line" smooth="yes"/>
      <point x="88" y="53"/>
      <point x="127" y="-10"/>
      <point x="262" y="-10" type="curve" smooth="yes"/>
      <point x="341" y="-10"/>
      <point x="389" y="15"/>
      <point x="419" y="59" type="curve"/>
      <point x="429" y="6" type="line"/>
      <point x="487" y="6" type="line"/>
    </contour>
    <contour>
      <point x="463" y="0" type="move" name="ogonek"/>
    </contour>
  </outline>
</glyph>
<glyph name="v" format="1">
  <advance width="519"/>
  <unicode hex="0076"/>
  <outline>
    <contour>
      <point x="239" y="0" type="line"/>
      <point x="303" y="0" type="line"/>
      <point x="489" y="514" type="line"/>
      <point x="421" y="514" type="line"/>
      <point x="272" y="78" type="line"/>
      <point x="98" y="514" type="line"/>
      <point x="30" y="514" type="line"/>
    </contour>
  </outline>
</glyph>
<glyph name="w" format="1">
  <advance width="765"/>
  <unicode hex="0077"/>
  <outline>
    <contour>
      <point x="172" y="0" type="line"/>
      <point x="235" y="0" type="line"/>
      <point x="380" y="443" type="line"/>
      <point x="527" y="0" type="line"/>
      <point x="586" y="0" type="line"/>
      <point x="745" y="514" type="line"/>
      <point x="683" y="514" type="line"/>
      <point x="558" y="92" type="line"/>
      <point x="418" y="514" type="line"/>
      <point x="341" y="514" type="line"/>
      <point x="208" y="89" type="line"/>
      <point x="81" y="514" type="line"/>
      <point x="21" y="514" type="line"/>
    </contour>
  </outline>
</glyph>
<glyph name="x" format="1">
  <advance width="497"/>
  <unicode hex="0078"/>
  <outline>
    <contour>
      <point x="34" y="0" type="line"/>
      <point x="96" y="0" type="line"/>
      <point x="251" y="216" type="line"/>
      <point x="406" y="0" type="line"/>
      <point x="470" y="0" type="line"/>
      <point x="283" y="261" type="line"/>
      <point x="466" y="514" type="line"/>
      <point x="406" y="514" type="line"/>
      <point x="253" y="304" type="line"/>
      <point x="103" y="514" type="line"/>
      <point x="39" y="514" type="line"/>
      <point x="220" y="258" type="line"/>
    </contour>
  </outline>
</glyph>
<glyph name="y" format="1">
  <advance width="1117"/>
  <unicode hex="0079"/>
  <outline>
    <contour>
      <point x="215" y="-371" type="line"/>
      <point x="231" y="-372"/>
      <point x="246" y="-372"/>
      <point x="261" y="-372" type="curve" smooth="yes"/>
      <point x="522" y="-372"/>
      <point x="615" y="-223"/>
      <point x="684" y="-12" type="curve"/>
      <point x="1046" y="1052" type="line"/>
      <point x="904" y="1052" type="line"/>
      <point x="604" y="134" type="line"/>
      <point x="253" y="1052" type="line"/>
      <point x="92" y="1052" type="line"/>
      <point x="548" y="-15" type="line"/>
      <point x="506" y="-173"/>
      <point x="383" y="-259"/>
      <point x="254" y="-259" type="curve" smooth="yes"/>
      <point x="245" y="-259"/>
      <point x="236" y="-259"/>
      <point x="227" y="-258" type="curve"/>
    </contour>
  </outline>
</glyph>
<glyph name="z" format="1">
  <advance width="451"/>
  <unicode hex="007A"/>
  <outline>
    <contour>
      <point x="71" y="0" type="line"/>
      <point x="406" y="0" type="line"/>
      <point x="406" y="47" type="line"/>
      <point x="139" y="47" type="line"/>
      <point x="402" y="464" type="line"/>
      <point x="402" y="514" type="line"/>
      <point x="84" y="514" type="line"/>
      <point x="84" y="462" type="line"/>
      <point x="331" y="462" type="line"/>
      <point x="71" y="49" type="line"/>
    </contour>
  </outline>
</glyph>
<glyph name="braceleft" format="1">
  <advance width="453"/>
  <unicode hex="007B"/>
  <outline>
    <contour>
      <point x="239" y="109" type="curve" smooth="yes"/>
      <point x="239" y="183" type="line" smooth="yes"/>
      <point x="239" y="259"/>
      <point x="203" y="289"/>
      <point x="180" y="295" type="curve"/>
      <point x="205" y="304"/>
      <point x="239" y="327"/>
      <point x="239" y="408" type="curve" smooth="yes"/>
      <point x="239" y="477" type="line" smooth="yes"/>
      <point x="239" y="618"/>
      <point x="240" y="654"/>
      <point x="409" y="654" type="curve"/>
      <point x="409" y="711" type="line"/>
      <point x="190" y="711"/>
      <point x="170" y="638"/>
      <point x="170" y="546" type="curve" smooth="yes"/>
      <point x="170" y="526"/>
      <point x="171" y="505"/>
      <point x="171" y="484" type="curve" smooth="yes"/>
      <point x="171" y="481" type="line" smooth="yes"/>
      <point x="171" y="328"/>
      <point x="157" y="322"/>
      <point x="48" y="322" type="curve"/>
      <point x="48" y="274" type="line"/>
      <point x="157" y="274"/>
      <point x="171" y="254"/>
      <point x="171" y="110" type="curve" smooth="yes"/>
      <point x="171" y="103" type="line" smooth="yes"/>
      <point x="171" y="83"/>
      <point x="170" y="64"/>
      <point x="170" y="46" type="curve" smooth="yes"/>
      <point x="170" y="-54"/>
      <point x="187" y="-114"/>
      <point x="409" y="-114" type="curve"/>
      <point x="409" y="-57" type="line"/>
      <point x="239" y="-57"/>
      <point x="239" y="-28"/>
    </contour>
  </outline>
</glyph>
<glyph name="bar" format="1">
  <advance width="643"/>
  <unicode hex="007C"/>
  <outline>
    <contour>
      <point x="252" y="-192" type="line"/>
      <point x="391" y="-192" type="line"/>
      <point x="391" y="1523" type="line"/>
      <point x="252" y="1523" type="line"/>
    </contour>
  </outline>
</glyph>
<glyph name="braceright" format="1">
  <advance width="453"/>
  <unicode hex="007D"/>
  <outline>
    <contour>
      <point x="48" y="-114" type="line"/>
      <point x="270" y="-114"/>
      <point x="287" y="-54"/>
      <point x="287" y="46" type="curve" smooth="yes"/>
      <point x="287" y="64"/>
      <point x="286" y="83"/>
      <point x="286" y="103" type="curve" smooth="yes"/>
      <point x="286" y="110" type="line" smooth="yes"/>
      <point x="286" y="254"/>
      <point x="300" y="274"/>
      <point x="409" y="274" type="curve"/>
      <point x="409" y="322" type="line"/>
      <point x="300" y="322"/>
      <point x="286" y="328"/>
      <point x="286" y="481" type="curve" smooth="yes"/>
      <point x="286" y="484" type="line" smooth="yes"/>
      <point x="286" y="505"/>
      <point x="287" y="526"/>
      <point x="287" y="546" type="curve" smooth="yes"/>
      <point x="287" y="638"/>
      <point x="267" y="711"/>
      <point x="48" y="711" type="curve"/>
      <point x="48" y="654" type="line"/>
      <point x="217" y="654"/>
      <point x="218" y="618"/>
      <point x="218" y="477" type="curve" smooth="yes"/>
      <point x="218" y="408" type="line" smooth="yes"/>
      <point x="218" y="327"/>
      <point x="252" y="304"/>
      <point x="277" y="295" type="curve"/>
      <point x="254" y="289"/>
      <point x="218" y="259"/>
      <point x="218" y="183" type="curve" smooth="yes"/>
      <point x="218" y="109" type="line" smooth="yes"/>
      <point x="218" y="-28"/>
      <point x="218" y="-57"/>
      <point x="48" y="-57" type="curve"/>
    </contour>
  </outline>
</glyph>
<glyph name="asciitilde" format="1">
  <advance width="388"/>
  <unicode hex="007E"/>
  <outline>
    <contour>
      <point x="267" y="585" type="curve" smooth="yes"/>
      <point x="321" y="585"/>
      <point x="365" y="635"/>
      <point x="365" y="709" type="curve"/>
      <point x="321" y="709" type="line"/>
      <point x="321" y="682"/>
      <point x="308" y="650"/>
      <point x="271" y="650" type="curve" smooth="yes"/>
      <point x="239" y="650"/>
      <point x="184" y="716"/>
      <point x="122" y="716" type="curve" smooth="yes"/>
      <point x="68" y="716"/>
      <point x="23" y="665"/>
      <point x="23" y="591" type="curve"/>
      <point x="68" y="591" type="line"/>
      <point x="68" y="619"/>
      <point x="80" y="650"/>
      <point x="117" y="650" type="curve" smooth="yes"/>
      <point x="150" y="650"/>
      <point x="205" y="585"/>
    </contour>
  </outline>
</glyph>
<glyph name="cent" format="1">
  <advance width="542"/>
  <unicode hex="00A2"/>
  <outline>
    <component base="c"/>
    <contour>
      <point x="264" y="497" type="line"/>
      <point x="317" y="497" type="line"/>
      <point x="317" y="620" type="line"/>
      <point x="264" y="620" type="line"/>
    </contour>
    <contour>
      <point x="264" y="-98" type="line"/>
      <point x="317" y="-98" type="line"/>
      <point x="317" y="25" type="line"/>
      <point x="264" y="25" type="line"/>
    </contour>
  </outline>
</glyph>
<glyph name="sterling" format="1">
  <advance width="618"/>
  <unicode hex="00A3"/>
  <outline>
    <contour>
      <point x="144" y="0" type="line"/>
      <point x="480" y="0" type="line"/>
      <point x="480" y="61" type="line"/>
      <point x="210" y="61" type="line"/>
      <point x="240" y="340" type="line"/>
      <point x="485" y="340" type="line"/>
      <point x="485" y="394" type="line"/>
      <point x="247" y="394" type="line"/>
      <point x="265" y="557" type="line" smooth="yes"/>
      <point x="276" y="651"/>
      <point x="333" y="662"/>
      <point x="369" y="662" type="curve" smooth="yes"/>
      <point x="427" y="662"/>
      <point x="490" y="629"/>
      <point x="489" y="628" type="curve" smooth="yes"/>
      <point x="510" y="678" type="line"/>
      <point x="434" y="710"/>
      <point x="389" y="715"/>
      <point x="358" y="715" type="curve" smooth="yes"/>
      <point x="272" y="715"/>
      <point x="211" y="637"/>
      <point x="202" y="568" type="curve"/>
      <point x="183" y="394" type="line"/>
      <point x="90" y="394" type="line"/>
      <point x="90" y="340" type="line"/>
      <point x="177" y="340" type="line"/>
    </contour>
  </outline>
</glyph>
<glyph name="currency" format="1">
  <advance width="567"/>
  <unicode hex="00A4"/>
  <outline>
    <contour>
      <point x="410" y="405" type="curve"/>
      <point x="485" y="470" type="line"/>
      <point x="466" y="496" type="line"/>
      <point x="394" y="430" type="line"/>
      <point x="362" y="464"/>
      <point x="323" y="481"/>
      <point x="279" y="481" type="curve" smooth="yes"/>
      <point x="235" y="481"/>
      <point x="197" y="464"/>
      <point x="165" y="430" type="curve"/>
      <point x="92" y="496" type="line"/>
      <point x="73" y="470" type="line"/>
      <point x="149" y="405" type="line"/>
      <point x="135" y="378"/>
      <point x="130" y="349"/>
      <point x="130" y="328" type="curve" smooth="yes"/>
      <point x="130" y="307"/>
      <point x="135" y="277"/>
      <point x="149" y="250" type="curve"/>
      <point x="78" y="185" type="line"/>
      <point x="97" y="160" type="line"/>
      <point x="165" y="225" type="line"/>
      <point x="197" y="191"/>
      <point x="235" y="174"/>
      <point x="279" y="174" type="curve" smooth="yes"/>
      <point x="323" y="174"/>
      <point x="362" y="191"/>
      <point x="394" y="225" type="curve"/>
      <point x="461" y="160" type="line"/>
      <point x="480" y="185" type="line"/>
      <point x="410" y="250" type="line"/>
      <point x="424" y="277"/>
      <point x="429" y="307"/>
      <point x="429" y="328" type="curve" smooth="yes"/>
      <point x="429" y="349"/>
      <point x="424" y="378"/>
    </contour>
    <contour>
      <point x="160" y="328" type="curve" smooth="yes"/>
      <point x="160" y="414"/>
      <point x="219" y="458"/>
      <point x="279" y="458" type="curve" smooth="yes"/>
      <point x="339" y="458"/>
      <point x="399" y="414"/>
      <point x="399" y="328" type="curve" smooth="yes"/>
      <point x="399" y="242"/>
      <point x="339" y="198"/>
      <point x="279" y="198" type="curve" smooth="yes"/>
      <point x="219" y="198"/>
      <point x="160" y="242"/>
    </contour>
  </outline>
</glyph>
<glyph name="yen" format="1">
  <advance width="1326"/>
  <unicode hex="00A5"/>
  <outline>
    <component base="Y"/>
    <contour>
      <point x="1073" y="529" type="line"/>
      <point x="1073" y="636" type="line"/>
      <point x="233" y="636" type="line"/>
      <point x="233" y="529" type="line"/>
    </contour>
    <contour>
      <point x="1073" y="251" type="line"/>
      <point x="1073" y="357" type="line"/>
      <point x="233" y="357" type="line"/>
      <point x="233" y="251" type="line"/>
    </contour>
  </outline>
</glyph>
<glyph name="brokenbar" format="1">
  <advance width="301"/>
  <unicode hex="00A6"/>
  <outline>
    <contour>
      <point x="116" y="-95" type="line"/>
      <point x="194" y="-95" type="line"/>
      <point x="194" y="228" type="line"/>
      <point x="116" y="228" type="line"/>
    </contour>
    <contour>
      <point x="116" y="428" type="line"/>
      <point x="194" y="428" type="line"/>
      <point x="194" y="782" type="line"/>
      <point x="116" y="782" type="line"/>
    </contour>
  </outline>
</glyph>
<glyph name="section" format="1">
  <advance width="464"/>
  <unicode hex="00A7"/>
  <outline>
    <contour>
      <point x="76" y="17" type="line"/>
      <point x="87" y="13"/>
      <point x="155" y="-11"/>
      <point x="261" y="-11" type="curve" smooth="yes"/>
      <point x="391" y="-11"/>
      <point x="430" y="59"/>
      <point x="430" y="126" type="curve" smooth="yes"/>
      <point x="430" y="173"/>
      <point x="411" y="219"/>
      <point x="390" y="238" type="curve"/>
      <point x="401" y="281"/>
      <point x="413" y="321"/>
      <point x="413" y="357" type="curve" smooth="yes"/>
      <point x="413" y="406"/>
      <point x="390" y="447"/>
      <point x="313" y="473" type="curve"/>
      <point x="189" y="513" type="line"/>
      <point x="147" y="528"/>
      <point x="141" y="539"/>
      <point x="141" y="572" type="curve" smooth="yes"/>
      <point x="141" y="636"/>
      <point x="190" y="658"/>
      <point x="253" y="658" type="curve" smooth="yes"/>
      <point x="299" y="658"/>
      <point x="352" y="647"/>
      <point x="401" y="632" type="curve"/>
      <point x="412" y="692" type="line"/>
      <point x="364" y="704"/>
      <point x="310" y="713"/>
      <point x="258" y="713" type="curve" smooth="yes"/>
      <point x="160" y="713"/>
      <point x="74" y="680"/>
      <point x="74" y="571" type="curve" smooth="yes"/>
      <point x="74" y="533"/>
      <point x="81" y="506"/>
      <point x="104" y="486" type="curve"/>
      <point x="91" y="449"/>
      <point x="83" y="418"/>
      <point x="83" y="391" type="curve" smooth="yes"/>
      <point x="83" y="333"/>
      <point x="113" y="296"/>
      <point x="170" y="276" type="curve" smooth="yes"/>
      <point x="315" y="226" type="line" smooth="yes"/>
      <point x="372" y="206"/>
      <point x="373" y="184"/>
      <point x="373" y="136" type="curve" smooth="yes"/>
      <point x="373" y="86"/>
      <point x="355" y="44"/>
      <point x="250" y="44" type="curve" smooth="yes"/>
      <point x="159" y="44"/>
      <point x="100" y="72"/>
      <point x="85" y="76" type="curve"/>
    </contour>
    <contour>
      <point x="355" y="354" type="curve" smooth="yes"/>
      <point x="355" y="327"/>
      <point x="344" y="297"/>
      <point x="336" y="274" type="curve"/>
      <point x="177" y="332" type="line" smooth="yes"/>
      <point x="153" y="341"/>
      <point x="143" y="365"/>
      <point x="143" y="394" type="curve" smooth="yes"/>
      <point x="143" y="416"/>
      <point x="148" y="441"/>
      <point x="157" y="464" type="curve"/>
      <point x="308" y="416" type="line" smooth="yes"/>
      <point x="344" y="405"/>
      <point x="355" y="381"/>
    </contour>
  </outline>
</glyph>
<glyph name="dieresis" format="1">
  <advance width="517"/>
  <unicode hex="00A8"/>
  <outline>
    <contour>
      <point x="119" y="597" type="line"/>
      <point x="203" y="597" type="line"/>
      <point x="203" y="670" type="line"/>
      <point x="119" y="670" type="line"/>
    </contour>
    <contour>
      <point x="304" y="597" type="line"/>
      <point x="388" y="597" type="line"/>
      <point x="388" y="670" type="line"/>
      <point x="304" y="670" type="line"/>
    </contour>
  </outline>
</glyph>
<glyph name="copyright" format="1">
  <advance width="873"/>
  <unicode hex="00A9"/>
  <outline>
    <contour>
      <point x="442" y="140" type="curve" smooth="yes"/>
      <point x="577" y="140"/>
      <point x="601" y="206"/>
      <point x="601" y="292" type="curve" smooth="yes"/>
      <point x="601" y="309" type="line"/>
      <point x="544" y="309" type="line"/>
      <point x="544" y="279" type="line" smooth="yes"/>
      <point x="544" y="205"/>
      <point x="517" y="184"/>
      <point x="442" y="184" type="curve" smooth="yes"/>
      <point x="368" y="184"/>
      <point x="329" y="205"/>
      <point x="329" y="279" type="curve" smooth="yes"/>
      <point x="329" y="435" type="line" smooth="yes"/>
      <point x="329" y="509"/>
      <point x="367" y="533"/>
      <point x="441" y="533" type="curve" smooth="yes"/>
      <point x="515" y="533"/>
      <point x="544" y="509"/>
      <point x="544" y="435" type="curve" smooth="yes"/>
      <point x="544" y="403" type="line"/>
      <point x="601" y="408" type="line"/>
      <point x="601" y="420" type="line" smooth="yes"/>
      <point x="601" y="509"/>
      <point x="576" y="577"/>
      <point x="441" y="577" type="curve" smooth="yes"/>
      <point x="300" y="577"/>
      <point x="270" y="513"/>
      <point x="270" y="424" type="curve" smooth="yes"/>
      <point x="270" y="288" type="line" smooth="yes"/>
      <point x="270" y="201"/>
      <point x="302" y="140"/>
    </contour>
    <contour>
      <point x="438" y="40" type="curve" smooth="yes"/>
      <point x="260" y="40"/>
      <point x="130" y="175"/>
      <point x="130" y="353" type="curve" smooth="yes"/>
      <point x="130" y="531"/>
      <point x="260" y="665"/>
      <point x="438" y="665" type="curve" smooth="yes"/>
      <point x="617" y="665"/>
      <point x="744" y="531"/>
      <point x="744" y="353" type="curve" smooth="yes"/>
      <point x="744" y="175"/>
      <point x="617" y="40"/>
    </contour>
    <contour>
      <point x="437" y="-7" type="curve" smooth="yes"/>
      <point x="640" y="-7"/>
      <point x="796" y="148"/>
      <point x="796" y="353" type="curve" smooth="yes"/>
      <point x="796" y="557"/>
      <point x="640" y="711"/>
      <point x="437" y="711" type="curve" smooth="yes"/>
      <point x="235" y="711"/>
      <point x="77" y="557"/>
      <point x="77" y="353" type="curve" smooth="yes"/>
      <point x="77" y="148"/>
      <point x="235" y="-7"/>
    </contour>
  </outline>
</glyph>
<glyph name="guillemotleft" format="1">
  <advance width="1072"/>
  <unicode hex="00AB"/>
  <outline>
    <contour>
      <point x="800" y="80" type="line"/>
      <point x="890" y="130" type="line"/>
      <point x="683" y="530" type="line"/>
      <point x="890" y="930" type="line"/>
      <point x="793" y="980" type="line"/>
      <point x="530" y="530" type="line"/>
    </contour>
    <contour>
      <point x="444" y="80" type="line"/>
      <point x="534" y="130" type="line"/>
      <point x="327" y="530" type="line"/>
      <point x="534" y="930" type="line"/>
      <point x="437" y="980" type="line"/>
      <point x="174" y="530" type="line"/>
    </contour>
  </outline>
</glyph>
<glyph name="logicalnot" format="1">
  <advance width="768"/>
  <unicode hex="00AC"/>
  <outline>
    <contour>
      <point x="519" y="397" type="line"/>
      <point x="642" y="397" type="line"/>
      <point x="642" y="653" type="line"/>
      <point x="79" y="653" type="line"/>
      <point x="79" y="537" type="line"/>
      <point x="519" y="537" type="line"/>
    </contour>
  </outline>
</glyph>
<glyph name="softhyphen" format="1">
  <advance width="1058"/>
  <unicode hex="00AD"/>
  <outline>
    <contour>
      <point x="197" y="521" type="line"/>
      <point x="811" y="521" type="line"/>
      <point x="811" y="622" type="line"/>
      <point x="197" y="622" type="line"/>
    </contour>
  </outline>
</glyph>
<glyph name="uni00AD" format="1">
  <advance width="516"/>
  <unicode hex="00AD"/>
  <outline>
    <contour>
      <point x="96" y="254" type="line"/>
      <point x="396" y="254" type="line"/>
      <point x="396" y="304" type="line"/>
      <point x="96" y="304" type="line"/>
    </contour>
  </outline>
</glyph>
<glyph name="registered" format="1">
  <advance width="873"/>
  <unicode hex="00AE"/>
  <outline>
    <contour>
      <point x="292" y="156" type="line"/>
      <point x="356" y="156" type="line"/>
      <point x="356" y="318" type="line"/>
      <point x="482" y="318" type="line"/>
      <point x="570" y="156" type="line"/>
      <point x="633" y="156" type="line"/>
      <point x="543" y="325" type="line"/>
      <point x="588" y="337"/>
      <point x="617" y="372"/>
      <point x="617" y="437" type="curve" smooth="yes"/>
      <point x="617" y="443" type="line"/>
      <point x="615" y="528"/>
      <point x="566" y="563"/>
      <point x="489" y="563" type="curve" smooth="yes"/>
      <point x="292" y="563" type="line"/>
    </contour>
    <contour>
      <point x="356" y="362" type="line"/>
      <point x="356" y="519" type="line"/>
      <point x="491" y="519" type="line" smooth="yes"/>
      <point x="549" y="519"/>
      <point x="553" y="469"/>
      <point x="553" y="440" type="curve" smooth="yes"/>
      <point x="553" y="428" type="line" smooth="yes"/>
      <point x="553" y="397"/>
      <point x="542" y="362"/>
      <point x="486" y="362" type="curve" smooth="yes"/>
    </contour>
    <contour>
      <point x="438" y="40" type="curve" smooth="yes"/>
      <point x="260" y="40"/>
      <point x="130" y="175"/>
      <point x="130" y="353" type="curve" smooth="yes"/>
      <point x="130" y="531"/>
      <point x="260" y="665"/>
      <point x="438" y="665" type="curve" smooth="yes"/>
      <point x="617" y="665"/>
      <point x="744" y="531"/>
      <point x="744" y="353" type="curve" smooth="yes"/>
      <point x="744" y="175"/>
      <point x="617" y="40"/>
    </contour>
    <contour>
      <point x="437" y="-7" type="curve" smooth="yes"/>
      <point x="640" y="-7"/>
      <point x="796" y="148"/>
      <point x="796" y="353" type="curve" smooth="yes"/>
      <point x="796" y="557"/>
      <point x="640" y="711"/>
      <point x="437" y="711" type="curve" smooth="yes"/>
      <point x="235" y="711"/>
      <point x="77" y="557"/>
      <point x="77" y="353" type="curve" smooth="yes"/>
      <point x="77" y="148"/>
      <point x="235" y="-7"/>
    </contour>
  </outline>
</glyph>
<glyph name="macron" format="1">
  <advance width="514"/>
  <unicode hex="00AF"/>
  <outline>
    <contour>
      <point x="15" y="1265" type="line"/>
      <point x="499" y="1265" type="line"/>
      <point x="499" y="1376" type="line"/>
      <point x="15" y="1376" type="line"/>
    </contour>
  </outline>
</glyph>
<glyph name="degree" format="1">
  <advance width="1073"/>
  <unicode hex="00B0"/>
  <outline>
    <contour>
      <point x="537" y="821" type="curve" smooth="yes"/>
      <point x="410" y="821"/>
      <point x="293" y="938"/>
      <point x="293" y="1088" type="curve" smooth="yes"/>
      <point x="293" y="1240"/>
      <point x="410" y="1356"/>
      <point x="537" y="1356" type="curve" smooth="yes"/>
      <point x="665" y="1356"/>
      <point x="782" y="1240"/>
      <point x="782" y="1088" type="curve" smooth="yes"/>
      <point x="782" y="938"/>
      <point x="666" y="821"/>
    </contour>
    <contour>
      <point x="535" y="767" type="curve" smooth="yes"/>
      <point x="679" y="767"/>
      <point x="840" y="903"/>
      <point x="840" y="1087" type="curve" smooth="yes"/>
      <point x="840" y="1269"/>
      <point x="679" y="1407"/>
      <point x="535" y="1407" type="curve" smooth="yes"/>
      <point x="394" y="1407"/>
      <point x="234" y="1269"/>
      <point x="234" y="1087" type="curve" smooth="yes"/>
      <point x="234" y="903"/>
      <point x="395" y="767"/>
    </contour>
  </outline>
</glyph>
<glyph name="plusminus" format="1">
  <advance width="1051"/>
  <unicode hex="00B1"/>
  <outline>
    <contour>
      <point x="479" y="339" type="line"/>
      <point x="573" y="339" type="line"/>
      <point x="573" y="623" type="line"/>
      <point x="823" y="623" type="line"/>
      <point x="823" y="709" type="line"/>
      <point x="573" y="709" type="line"/>
      <point x="573" y="976" type="line"/>
      <point x="479" y="976" type="line"/>
      <point x="479" y="709" type="line"/>
      <point x="229" y="709" type="line"/>
      <point x="229" y="623" type="line"/>
      <point x="479" y="623" type="line"/>
    </contour>
    <contour>
      <point x="229" y="0" type="line"/>
      <point x="823" y="0" type="line"/>
      <point x="823" y="93" type="line"/>
      <point x="229" y="93" type="line"/>
    </contour>
  </outline>
</glyph>
<glyph name="twosuperior" format="1">
  <advance width="1077"/>
  <unicode hex="00B2"/>
  <outline>
    <contour>
      <point x="275" y="736" type="line"/>
      <point x="820" y="736" type="line"/>
      <point x="820" y="823" type="line"/>
      <point x="408" y="823" type="line"/>
      <point x="603" y="976" type="line" smooth="yes"/>
      <point x="724" y="1091"/>
      <point x="811" y="1166"/>
      <point x="811" y="1332" type="curve" smooth="yes"/>
      <point x="811" y="1500"/>
      <point x="692" y="1585"/>
      <point x="543" y="1585" type="curve" smooth="yes"/>
      <point x="400" y="1585"/>
      <point x="240" y="1505"/>
      <point x="243" y="1278" type="curve"/>
      <point x="351" y="1278" type="line"/>
      <point x="349" y="1463"/>
      <point x="431" y="1505"/>
      <point x="550" y="1505" type="curve" smooth="yes"/>
      <point x="644" y="1505"/>
      <point x="713" y="1458"/>
      <point x="713" y="1334" type="curve" smooth="yes"/>
      <point x="713" y="1208"/>
      <point x="663" y="1158"/>
      <point x="549" y="1053" type="curve" smooth="yes"/>
      <point x="272" y="830" type="line"/>
    </contour>
  </outline>
</glyph>
<glyph name="uni00B2" format="1">
  <advance width="452"/>
  <unicode hex="00B2"/>
  <outline>
    <contour>
      <point x="113" y="372" type="line"/>
      <point x="359" y="372" type="line"/>
      <point x="359" y="409" type="line"/>
      <point x="175" y="409" type="line"/>
      <point x="290" y="522" type="line" smooth="yes"/>
      <point x="329" y="561"/>
      <point x="359" y="596"/>
      <point x="359" y="658" type="curve" smooth="yes"/>
      <point x="359" y="717"/>
      <point x="336" y="774"/>
      <point x="242" y="774" type="curve" smooth="yes"/>
      <point x="140" y="774"/>
      <point x="104" y="742"/>
      <point x="104" y="664" type="curve"/>
      <point x="152" y="664" type="line"/>
      <point x="152" y="732"/>
      <point x="192" y="735"/>
      <point x="243" y="735" type="curve" smooth="yes"/>
      <point x="293" y="735"/>
      <point x="314" y="708"/>
      <point x="314" y="658" type="curve" smooth="yes"/>
      <point x="314" y="616"/>
      <point x="306" y="598"/>
      <point x="262" y="553" type="curve" smooth="yes"/>
      <point x="113" y="403" type="line"/>
    </contour>
  </outline>
</glyph>
<glyph name="threesuperior" format="1">
  <advance width="1124"/>
  <unicode hex="00B3"/>
  <outline>
    <contour>
      <point x="610" y="701" type="curve" smooth="yes"/>
      <point x="781" y="701"/>
      <point x="906" y="784"/>
      <point x="906" y="956" type="curve" smooth="yes"/>
      <point x="906" y="1083"/>
      <point x="845" y="1145"/>
      <point x="723" y="1168" type="curve"/>
      <point x="843" y="1201"/>
      <point x="882" y="1265"/>
      <point x="885" y="1352" type="curve" smooth="yes"/>
      <point x="890" y="1497"/>
      <point x="747" y="1585"/>
      <point x="613" y="1585" type="curve" smooth="yes"/>
      <point x="453" y="1585"/>
      <point x="274" y="1560"/>
      <point x="274" y="1297" type="curve"/>
      <point x="368" y="1297" type="line"/>
      <point x="361" y="1477"/>
      <point x="464" y="1501"/>
      <point x="608" y="1501" type="curve" smooth="yes"/>
      <point x="742" y="1501"/>
      <point x="800" y="1429"/>
      <point x="800" y="1363" type="curve" smooth="yes"/>
      <point x="800" y="1284"/>
      <point x="811" y="1204"/>
      <point x="522" y="1206" type="curve"/>
      <point x="522" y="1122" type="line"/>
      <point x="768" y="1124"/>
      <point x="823" y="1071"/>
      <point x="823" y="941" type="curve" smooth="yes"/>
      <point x="823" y="843"/>
      <point x="725" y="782"/>
      <point x="620" y="782" type="curve" smooth="yes"/>
      <point x="483" y="782"/>
      <point x="355" y="791"/>
      <point x="355" y="1003" type="curve"/>
      <point x="259" y="1003" type="line"/>
      <point x="268" y="742"/>
      <point x="407" y="700"/>
    </contour>
  </outline>
</glyph>
<glyph name="uni00B3" format="1">
  <advance width="548"/>
  <unicode hex="00B3"/>
  <outline>
    <contour>
      <point x="267" y="364" type="curve" smooth="yes"/>
      <point x="345" y="364"/>
      <point x="417" y="399"/>
      <point x="417" y="476" type="curve" smooth="yes"/>
      <point x="417" y="560"/>
      <point x="370" y="577"/>
      <point x="327" y="583" type="curve"/>
      <point x="369" y="588"/>
      <point x="402" y="608"/>
      <point x="402" y="672" type="curve" smooth="yes"/>
      <point x="402" y="749"/>
      <point x="330" y="772"/>
      <point x="267" y="772" type="curve" smooth="yes"/>
      <point x="177" y="772"/>
      <point x="121" y="763"/>
      <point x="117" y="654" type="curve"/>
      <point x="160" y="654" type="line"/>
      <point x="165" y="728"/>
      <point x="201" y="734"/>
      <point x="267" y="734" type="curve" smooth="yes"/>
      <point x="321" y="734"/>
      <point x="347" y="715"/>
      <point x="347" y="674" type="curve" smooth="yes"/>
      <point x="347" y="624"/>
      <point x="340" y="602"/>
      <point x="233" y="602" type="curve"/>
      <point x="233" y="565" type="line"/>
      <point x="342" y="565"/>
      <point x="367" y="547"/>
      <point x="367" y="474" type="curve" smooth="yes"/>
      <point x="367" y="424"/>
      <point x="328" y="402"/>
      <point x="267" y="402" type="curve" smooth="yes"/>
      <point x="194" y="402"/>
      <point x="166" y="418"/>
      <point x="158" y="498" type="curve"/>
      <point x="112" y="498" type="line"/>
      <point x="126" y="399"/>
      <point x="160" y="364"/>
    </contour>
  </outline>
</glyph>
<glyph name="acute" format="1">
  <advance width="318"/>
  <unicode hex="00B4"/>
  <outline>
    <contour>
      <point x="128" y="584" type="line"/>
      <point x="185" y="584" type="line"/>
      <point x="300" y="774" type="line"/>
      <point x="203" y="774" type="line"/>
    </contour>
  </outline>
</glyph>
<glyph name="paragraph" format="1">
  <advance width="1267"/>
  <unicode hex="00B6"/>
  <outline>
    <contour>
      <point x="589" y="-336" type="line"/>
      <point x="726" y="-336" type="line"/>
      <point x="726" y="1340" type="line"/>
      <point x="810" y="1340" type="line"/>
      <point x="810" y="-336" type="line"/>
      <point x="924" y="-336" type="line"/>
      <point x="924" y="1428" type="line"/>
      <point x="638" y="1428" type="line" smooth="yes"/>
      <point x="444" y="1428"/>
      <point x="212" y="1362"/>
      <point x="212" y="1146" type="curve" smooth="yes"/>
      <point x="212" y="984"/>
      <point x="431" y="883"/>
      <point x="589" y="877" type="curve"/>
    </contour>
  </outline>
</glyph>
<glyph name="periodcentered" format="1">
  <advance width="423"/>
  <unicode hex="00B7"/>
  <outline>
    <contour>
      <point x="258" y="257" type="line"/>
      <point x="345" y="257" type="line"/>
      <point x="345" y="347" type="line"/>
      <point x="258" y="347" type="line"/>
    </contour>
  </outline>
</glyph>
<glyph name="cedilla" format="1">
  <advance width="250"/>
  <unicode hex="00B8"/>
  <outline>
    <contour>
      <point x="96" y="-230" type="curve" smooth="yes"/>
      <point x="177" y="-230"/>
      <point x="217" y="-187"/>
      <point x="217" y="-141" type="curve" smooth="yes"/>
      <point x="217" y="-98"/>
      <point x="172" y="-52"/>
      <point x="100" y="-39" type="curve"/>
      <point x="97" y="5" type="line"/>
      <point x="80" y="5" type="line"/>
      <point x="80" y="-68" type="line"/>
      <point x="130" y="-69"/>
      <point x="162" y="-105"/>
      <point x="162" y="-137" type="curve" smooth="yes"/>
      <point x="162" y="-162"/>
      <point x="141" y="-189"/>
      <point x="87" y="-189" type="curve" smooth="yes"/>
      <point x="76" y="-189"/>
      <point x="64" y="-188"/>
      <point x="51" y="-186" type="curve"/>
      <point x="51" y="-227" type="line"/>
      <point x="67" y="-229"/>
      <point x="82" y="-230"/>
    </contour>
  </outline>
</glyph>
<glyph name="onesuperior" format="1">
  <advance width="490"/>
  <unicode hex="00B9"/>
  <outline>
    <contour>
      <point x="99" y="359" type="line"/>
      <point x="383" y="359" type="line"/>
      <point x="383" y="398" type="line"/>
      <point x="275" y="398" type="line"/>
      <point x="275" y="751" type="line"/>
      <point x="231" y="751" type="line"/>
      <point x="105" y="739" type="line"/>
      <point x="109" y="700" type="line"/>
      <point x="230" y="710" type="line"/>
      <point x="230" y="398" type="line"/>
      <point x="99" y="398" type="line"/>
    </contour>
  </outline>
</glyph>
<glyph name="guillemotright" format="1">
  <advance width="523"/>
  <unicode hex="00BB"/>
  <outline>
    <contour>
      <point x="147" y="479" type="line"/>
      <point x="100" y="454" type="line"/>
      <point x="201" y="259" type="line"/>
      <point x="100" y="63" type="line"/>
      <point x="144" y="39" type="line"/>
      <point x="275" y="259" type="line"/>
    </contour>
    <contour>
      <point x="321" y="479" type="line"/>
      <point x="273" y="454" type="line"/>
      <point x="375" y="259" type="line"/>
      <point x="273" y="63" type="line"/>
      <point x="317" y="39" type="line"/>
      <point x="449" y="259" type="line"/>
    </contour>
  </outline>
</glyph>
<glyph name="onequarter" format="1">
  <advance width="1815"/>
  <unicode hex="00BC"/>
  <outline>
    <contour>
      <point x="1461" y="0" type="line"/>
      <point x="1547" y="0" type="line"/>
      <point x="1547" y="205" type="line"/>
      <point x="1676" y="205" type="line"/>
      <point x="1676" y="273" type="line"/>
      <point x="1547" y="273" type="line"/>
      <point x="1547" y="484" type="line"/>
      <point x="1461" y="484" type="line"/>
      <point x="1461" y="273" type="line"/>
      <point x="1172" y="273" type="line"/>
      <point x="1421" y="783" type="line"/>
      <point x="1334" y="783" type="line"/>
      <point x="1067" y="257" type="line"/>
      <point x="1067" y="205" type="line"/>
      <point x="1461" y="205" type="line"/>
    </contour>
    <contour>
      <point x="184" y="793" type="line"/>
      <point x="766" y="793" type="line"/>
      <point x="766" y="867" type="line"/>
      <point x="544" y="867" type="line"/>
      <point x="544" y="1522" type="line"/>
      <point x="461" y="1522" type="line"/>
      <point x="195" y="1501" type="line"/>
      <point x="204" y="1421" type="line"/>
      <point x="462" y="1440" type="line"/>
      <point x="462" y="867" type="line"/>
      <point x="184" y="867" type="line"/>
    </contour>
    <contour>
      <point x="532" y="0" type="line"/>
      <point x="619" y="0" type="line"/>
      <point x="1339" y="1428" type="line"/>
      <point x="1258" y="1428" type="line"/>
    </contour>
  </outline>
</glyph>
<glyph name="onehalf" format="1">
  <advance width="843"/>
  <unicode hex="00BD"/>
  <outline>
    <contour>
      <point x="559" y="0" type="line"/>
      <point x="782" y="0" type="line"/>
      <point x="782" y="34" type="line"/>
      <point x="616" y="34" type="line"/>
      <point x="719" y="136" type="line" smooth="yes"/>
      <point x="754" y="171"/>
      <point x="782" y="203"/>
      <point x="782" y="259" type="curve" smooth="yes"/>
      <point x="782" y="312"/>
      <point x="761" y="364"/>
      <point x="676" y="364" type="curve" smooth="yes"/>
      <point x="584" y="364"/>
      <point x="552" y="334"/>
      <point x="552" y="264" type="curve"/>
      <point x="595" y="264" type="line"/>
      <point x="595" y="326"/>
      <point x="631" y="329"/>
      <point x="677" y="329" type="curve" smooth="yes"/>
      <point x="722" y="329"/>
      <point x="741" y="304"/>
      <point x="741" y="259" type="curve" smooth="yes"/>
      <point x="741" y="221"/>
      <point x="735" y="205"/>
      <point x="694" y="164" type="curve" smooth="yes"/>
      <point x="559" y="28" type="line"/>
    </contour>
    <contour>
      <point x="90" y="387" type="line"/>
      <point x="374" y="387" type="line"/>
      <point x="374" y="423" type="line"/>
      <point x="266" y="423" type="line"/>
      <point x="266" y="743" type="line"/>
      <point x="225" y="743" type="line"/>
      <point x="95" y="733" type="line"/>
      <point x="100" y="694" type="line"/>
      <point x="226" y="703" type="line"/>
      <point x="226" y="423" type="line"/>
      <point x="90" y="423" type="line"/>
    </contour>
    <contour>
      <point x="260" y="0" type="line"/>
      <point x="302" y="0" type="line"/>
      <point x="654" y="697" type="line"/>
      <point x="614" y="697" type="line"/>
    </contour>
  </outline>
</glyph>
<glyph name="threequarters" format="1">
  <advance width="1546"/>
  <unicode hex="00BE"/>
  <outline>
    <contour>
      <point x="496" y="783" type="curve" smooth="yes"/>
      <point x="649" y="783"/>
      <point x="775" y="828"/>
      <point x="775" y="987" type="curve" smooth="yes"/>
      <point x="775" y="1141"/>
      <point x="689" y="1170"/>
      <point x="581" y="1182" type="curve"/>
      <point x="688" y="1191"/>
      <point x="748" y="1227"/>
      <point x="748" y="1344" type="curve" smooth="yes"/>
      <point x="748" y="1483"/>
      <point x="623" y="1526"/>
      <point x="480" y="1526" type="curve" smooth="yes"/>
      <point x="328" y="1526"/>
      <point x="197" y="1509"/>
      <point x="190" y="1311" type="curve"/>
      <point x="295" y="1311" type="line"/>
      <point x="294" y="1467"/>
      <point x="372" y="1467"/>
      <point x="486" y="1467" type="curve" smooth="yes"/>
      <point x="605" y="1467"/>
      <point x="648" y="1420"/>
      <point x="648" y="1347" type="curve" smooth="yes"/>
      <point x="648" y="1256"/>
      <point x="636" y="1206"/>
      <point x="413" y="1206" type="curve"/>
      <point x="413" y="1155" type="line"/>
      <point x="639" y="1155"/>
      <point x="673" y="1116"/>
      <point x="673" y="983" type="curve" smooth="yes"/>
      <point x="673" y="888"/>
      <point x="618" y="839"/>
      <point x="500" y="839" type="curve" smooth="yes"/>
      <point x="359" y="839"/>
      <point x="288" y="871"/>
      <point x="276" y="1027" type="curve"/>
      <point x="171" y="1027" type="line"/>
      <point x="197" y="828"/>
      <point x="296" y="783"/>
    </contour>
    <contour>
      <point x="1437" y="0" type="line"/>
      <point x="1523" y="0" type="line"/>
      <point x="1523" y="205" type="line"/>
      <point x="1652" y="205" type="line"/>
      <point x="1652" y="253" type="line"/>
      <point x="1523" y="253" type="line"/>
      <point x="1523" y="484" type="line"/>
      <point x="1437" y="484" type="line"/>
      <point x="1437" y="253" type="line"/>
      <point x="1165" y="253" type="line"/>
      <point x="1561" y="783" type="line"/>
      <point x="1450" y="783" type="line"/>
      <point x="1043" y="257" type="line"/>
      <point x="1043" y="205" type="line"/>
      <point x="1437" y="205" type="line"/>
    </contour>
    <contour>
      <point x="566" y="0" type="line"/>
      <point x="673" y="0" type="line"/>
      <point x="1373" y="1411" type="line"/>
      <point x="1276" y="1411" type="line"/>
    </contour>
  </outline>
</glyph>
<glyph name="AE" format="1">
  <advance width="1597"/>
  <unicode hex="00C6"/>
  <outline>
    <contour>
      <point x="970" y="1428" type="move" name="top"/>
    </contour>
    <contour>
      <point x="107" y="5" type="line"/>
      <point x="247" y="0" type="line"/>
      <point x="317" y="283" type="line"/>
      <point x="863" y="283" type="line"/>
      <point x="863" y="0" type="line"/>
      <point x="1468" y="0" type="line"/>
      <point x="1468" y="104" type="line"/>
      <point x="1000" y="104" type="line"/>
      <point x="1000" y="675" type="line"/>
      <point x="1404" y="675" type="line"/>
      <point x="1404" y="788" type="line"/>
      <point x="1000" y="788" type="line"/>
      <point x="1000" y="1324" type="line"/>
      <point x="1460" y="1324" type="line"/>
      <point x="1460" y="1427" type="line"/>
      <point x="464" y="1427" type="line"/>
    </contour>
    <contour>
      <point x="341" y="381" type="line"/>
      <point x="557" y="1324" type="line"/>
      <point x="863" y="1324" type="line"/>
      <point x="863" y="381" type="line"/>
    </contour>
  </outline>
</glyph>
<glyph name="multiply" format="1">
  <advance width="459"/>
  <unicode hex="00D7"/>
  <outline>
    <contour>
      <point x="109" y="105" type="line"/>
      <point x="230" y="224" type="line"/>
      <point x="351" y="105" type="line"/>
      <point x="404" y="168" type="line"/>
      <point x="289" y="281" type="line"/>
      <point x="404" y="394" type="line"/>
      <point x="351" y="458" type="line"/>
      <point x="230" y="339" type="line"/>
      <point x="109" y="458" type="line"/>
      <point x="56" y="394" type="line"/>
      <point x="171" y="281" type="line"/>
      <point x="56" y="168" type="line"/>
    </contour>
  </outline>
</glyph>
<glyph name="Oslash" format="1">
  <advance width="1510"/>
  <unicode hex="00D8"/>
  <outline>
    <contour>
      <point x="325" y="-140" type="line"/>
      <point x="1213" y="1564" type="line"/>
      <point x="1131" y="1600" type="line"/>
      <point x="268" y="-97" type="line"/>
    </contour>
    <component base="O"/>
  </outline>
</glyph>
<glyph name="Oslash" format="1">
  <advance width="1510"/>
  <unicode hex="00D8"/>
  <outline>
    <contour>
      <point x="464" y="-182" type="line"/>
      <point x="1117" y="1616" type="line"/>
      <point x="1002" y="1663" type="line"/>
      <point x="351" y="-135" type="line"/>
    </contour>
    <component base="O"/>
  </outline>
</glyph>
<glyph name="Thorn" format="1">
  <advance width="632"/>
  <unicode hex="00DE"/>
  <outline>
    <contour>
      <point x="103" y="0" type="line"/>
      <point x="173" y="0" type="line"/>
      <point x="173" y="154" type="line"/>
      <point x="387" y="154" type="line" smooth="yes"/>
      <point x="466" y="154"/>
      <point x="559" y="196"/>
      <point x="559" y="366" type="curve" smooth="yes"/>
      <point x="559" y="526"/>
      <point x="473" y="581"/>
      <point x="379" y="581" type="curve" smooth="yes"/>
      <point x="173" y="581" type="line"/>
      <point x="173" y="697" type="line"/>
      <point x="103" y="697" type="line"/>
    </contour>
    <contour>
      <point x="173" y="212" type="line"/>
      <point x="173" y="521" type="line"/>
      <point x="376" y="521" type="line" smooth="yes"/>
      <point x="477" y="521"/>
      <point x="479" y="424"/>
      <point x="479" y="359" type="curve" smooth="yes"/>
      <point x="479" y="295"/>
      <point x="469" y="212"/>
      <point x="376" y="212" type="curve" smooth="yes"/>
    </contour>
  </outline>
</glyph>
<glyph name="Thorn" format="1">
  <advance width="1295"/>
  <unicode hex="00DE"/>
  <outline>
    <contour>
      <point x="210" y="0" type="line"/>
      <point x="355" y="0" type="line"/>
      <point x="355" y="316" type="line"/>
      <point x="792" y="316" type="line" smooth="yes"/>
      <point x="954" y="316"/>
      <point x="1144" y="402"/>
      <point x="1144" y="750" type="curve" smooth="yes"/>
      <point x="1144" y="1077"/>
      <point x="970" y="1189"/>
      <point x="777" y="1189" type="curve" smooth="yes"/>
      <point x="355" y="1189" type="line"/>
      <point x="355" y="1428" type="line"/>
      <point x="210" y="1428" type="line"/>
    </contour>
    <contour>
      <point x="355" y="434" type="line"/>
      <point x="355" y="1068" type="line"/>
      <point x="770" y="1068" type="line" smooth="yes"/>
      <point x="976" y="1068"/>
      <point x="982" y="869"/>
      <point x="982" y="736" type="curve" smooth="yes"/>
      <point x="982" y="605"/>
      <point x="961" y="434"/>
      <point x="771" y="434" type="curve" smooth="yes"/>
    </contour>
  </outline>
</glyph>
<glyph name="germandbls" format="1">
  <advance width="624"/>
  <unicode hex="00DF"/>
  <outline>
    <contour>
      <point x="107" y="0" type="line"/>
      <point x="164" y="0" type="line"/>
      <point x="164" y="553" type="line" smooth="yes"/>
      <point x="164" y="654"/>
      <point x="242" y="654"/>
      <point x="313" y="654" type="curve" smooth="yes"/>
      <point x="329" y="654" type="line" smooth="yes"/>
      <point x="381" y="654"/>
      <point x="434" y="651"/>
      <point x="434" y="549" type="curve" smooth="yes"/>
      <point x="434" y="480"/>
      <point x="405" y="451"/>
      <point x="288" y="451" type="curve"/>
      <point x="288" y="396" type="line"/>
      <point x="333" y="396" type="line" smooth="yes"/>
      <point x="435" y="396"/>
      <point x="504" y="373"/>
      <point x="504" y="255" type="curve" smooth="yes"/>
      <point x="504" y="65"/>
      <point x="364" y="82"/>
      <point x="228" y="66" type="curve"/>
      <point x="236" y="6" type="line"/>
      <point x="428" y="6"/>
      <point x="556" y="47"/>
      <point x="556" y="264" type="curve" smooth="yes"/>
      <point x="556" y="453"/>
      <point x="454" y="425"/>
      <point x="447" y="446" type="curve"/>
      <point x="483" y="456"/>
      <point x="499" y="475"/>
      <point x="499" y="558" type="curve" smooth="yes"/>
      <point x="499" y="661"/>
      <point x="440" y="717"/>
      <point x="330" y="717" type="curve" smooth="yes"/>
      <point x="224" y="717"/>
      <point x="107" y="699"/>
      <point x="107" y="534" type="curve" smooth="yes"/>
    </contour>
  </outline>
</glyph>
<glyph name="ae" format="1">
  <advance width="852"/>
  <unicode hex="00E6"/>
  <outline>
    <contour>
      <point x="395" y="386" type="curve" smooth="yes"/>
      <point x="395" y="375" type="line" smooth="yes"/>
      <point x="395" y="335"/>
      <point x="392" y="300"/>
      <point x="282" y="277" type="curve" smooth="yes"/>
      <point x="118" y="243"/>
      <point x="69" y="208"/>
      <point x="69" y="140" type="curve" smooth="yes"/>
      <point x="69" y="66"/>
      <point x="123" y="-10"/>
      <point x="243" y="-10" type="curve" smooth="yes"/>
      <point x="369" y="-10"/>
      <point x="415" y="44"/>
      <point x="422" y="101" type="curve"/>
      <point x="439" y="50"/>
      <point x="480" y="-10"/>
      <point x="582" y="-10" type="curve" smooth="yes"/>
      <point x="724" y="-10"/>
      <point x="762" y="35"/>
      <point x="777" y="145" type="curve"/>
      <point x="718" y="145" type="line"/>
      <point x="709" y="52"/>
      <point x="674" y="46"/>
      <point x="580" y="46" type="curve" smooth="yes"/>
      <point x="498" y="46"/>
      <point x="460" y="86"/>
      <point x="460" y="162" type="curve" smooth="yes"/>
      <point x="460" y="249" type="line"/>
      <point x="781" y="249" type="line"/>
      <point x="781" y="374" type="line" smooth="yes"/>
      <point x="781" y="468"/>
      <point x="707" y="522"/>
      <point x="587" y="522" type="curve" smooth="yes"/>
      <point x="512" y="522"/>
      <point x="463" y="501"/>
      <point x="436" y="450" type="curve"/>
      <point x="421" y="499"/>
      <point x="362" y="522"/>
      <point x="293" y="522" type="curve" smooth="yes"/>
      <point x="162" y="522"/>
      <point x="92" y="494"/>
      <point x="92" y="375" type="curve" smooth="yes"/>
      <point x="92" y="360" type="line"/>
      <point x="159" y="360" type="line"/>
      <point x="159" y="371" type="line" smooth="yes"/>
      <point x="159" y="424"/>
      <point x="160" y="465"/>
      <point x="286" y="465" type="curve" smooth="yes"/>
      <point x="390" y="465"/>
      <point x="395" y="421"/>
    </contour>
    <contour>
      <point x="241" y="48" type="curve" smooth="yes"/>
      <point x="182" y="48"/>
      <point x="134" y="69"/>
      <point x="134" y="136" type="curve" smooth="yes"/>
      <point x="134" y="193"/>
      <point x="204" y="196"/>
      <point x="285" y="220" type="curve" smooth="yes"/>
      <point x="368" y="244"/>
      <point x="395" y="271"/>
      <point x="395" y="284" type="curve" smooth="yes"/>
      <point x="395" y="285"/>
      <point x="395" y="287"/>
      <point x="394" y="288" type="curve"/>
      <point x="394" y="142" type="line"/>
      <point x="385" y="88"/>
      <point x="310" y="48"/>
    </contour>
    <contour>
      <point x="460" y="303" type="line"/>
      <point x="460" y="371" type="line" smooth="yes"/>
      <point x="460" y="440"/>
      <point x="500" y="467"/>
      <point x="585" y="467" type="curve" smooth="yes"/>
      <point x="666" y="467"/>
      <point x="721" y="449"/>
      <point x="721" y="384" type="curve" smooth="yes"/>
      <point x="721" y="303" type="line"/>
    </contour>
  </outline>
</glyph>
<glyph name="eth" format="1">
  <advance width="1066"/>
  <unicode hex="00F0"/>
  <outline>
    <contour>
      <point x="533" y="-18" type="curve" smooth="yes"/>
      <point x="901" y="-18"/>
      <point x="908" y="142"/>
      <point x="908" y="290" type="curve" smooth="yes"/>
      <point x="908" y="308" type="line" smooth="yes"/>
      <point x="908" y="856" type="line" smooth="yes"/>
      <point x="908" y="901" type="line" smooth="yes"/>
      <point x="908" y="1058"/>
      <point x="899" y="1287"/>
      <point x="698" y="1414" type="curve"/>
      <point x="812" y="1545" type="line"/>
      <point x="732" y="1594" type="line"/>
      <point x="622" y="1461" type="line"/>
      <point x="548" y="1479"/>
      <point x="479" y="1486"/>
      <point x="419" y="1486" type="curve" smooth="yes"/>
      <point x="328" y="1486"/>
      <point x="260" y="1471"/>
      <point x="227" y="1462" type="curve"/>
      <point x="196" y="1357" type="line"/>
      <point x="234" y="1363"/>
      <point x="291" y="1370"/>
      <point x="359" y="1370" type="curve" smooth="yes"/>
      <point x="410" y="1370"/>
      <point x="468" y="1366"/>
      <point x="527" y="1355" type="curve"/>
      <point x="365" y="1143" type="line"/>
      <point x="446" y="1094" type="line"/>
      <point x="618" y="1316" type="line"/>
      <point x="731" y="1238"/>
      <point x="799" y="1119"/>
      <point x="799" y="953" type="curve" smooth="yes"/>
      <point x="799" y="937"/>
      <point x="798" y="921"/>
      <point x="797" y="905" type="curve"/>
      <point x="770" y="928"/>
      <point x="697" y="975"/>
      <point x="551" y="975" type="curve" smooth="yes"/>
      <point x="288" y="975"/>
      <point x="140" y="846"/>
      <point x="140" y="663" type="curve" smooth="yes"/>
      <point x="140" y="297" type="line" smooth="yes"/>
      <point x="140" y="118"/>
      <point x="238" y="-18"/>
    </contour>
    <contour>
      <point x="533" y="87" type="curve"/>
      <point x="398" y="87"/>
      <point x="273" y="133"/>
      <point x="273" y="293" type="curve" smooth="yes"/>
      <point x="273" y="676" type="line" smooth="yes"/>
      <point x="273" y="807"/>
      <point x="387" y="857"/>
      <point x="533" y="857" type="curve" smooth="yes"/>
      <point x="593" y="857"/>
      <point x="738" y="841"/>
      <point x="788" y="811" type="curve"/>
      <point x="788" y="813"/>
      <point x="787" y="814"/>
      <point x="787" y="814" type="curve" smooth="yes"/>
      <point x="779" y="814"/>
      <point x="775" y="353"/>
      <point x="774" y="318" type="curve" smooth="yes"/>
      <point x="775" y="305"/>
      <point x="775" y="292"/>
      <point x="775" y="279" type="curve" smooth="yes"/>
      <point x="775" y="184"/>
      <point x="748" y="87"/>
    </contour>
  </outline>
</glyph>
<glyph name="divide" format="1">
  <advance width="506"/>
  <unicode hex="00F7"/>
  <outline>
    <contour>
      <point x="208" y="43" type="line"/>
      <point x="302" y="43" type="line"/>
      <point x="302" y="139" type="line"/>
      <point x="208" y="139" type="line"/>
    </contour>
    <contour>
      <point x="45" y="229" type="line"/>
      <point x="461" y="229" type="line"/>
      <point x="461" y="288" type="line"/>
      <point x="45" y="288" type="line"/>
    </contour>
    <contour>
      <point x="208" y="383" type="line"/>
      <point x="302" y="383" type="line"/>
      <point x="302" y="479" type="line"/>
      <point x="208" y="479" type="line"/>
    </contour>
  </outline>
</glyph>
<glyph name="oslash" format="1">
  <advance width="556"/>
  <unicode hex="00F8"/>
  <outline>
    <component base="o"/>
    <contour>
      <point x="129" y="-77" type="line"/>
      <point x="450" y="578" type="line"/>
      <point x="420" y="591" type="line"/>
      <point x="100" y="-63" type="line"/>
    </contour>
  </outline>
</glyph>
<glyph name="thorn" format="1">
  <advance width="577"/>
  <unicode hex="00FE"/>
  <outline>
    <contour>
      <point x="92" y="-199" type="line"/>
      <point x="159" y="-199" type="line"/>
      <point x="159" y="21" type="line"/>
      <point x="183" y="7"/>
      <point x="226" y="-12"/>
      <point x="294" y="-12" type="curve" smooth="yes"/>
      <point x="421" y="-12"/>
      <point x="499" y="60"/>
      <point x="499" y="173" type="curve" smooth="yes"/>
      <point x="499" y="350" type="line" smooth="yes"/>
      <point x="499" y="449"/>
      <point x="439" y="520"/>
      <point x="304" y="520" type="curve" smooth="yes"/>
      <point x="245" y="520"/>
      <point x="188" y="498"/>
      <point x="159" y="473" type="curve"/>
      <point x="159" y="732" type="line"/>
      <point x="94" y="732" type="line"/>
    </contour>
    <contour>
      <point x="291" y="43" type="curve" smooth="yes"/>
      <point x="237" y="43"/>
      <point x="192" y="59"/>
      <point x="159" y="78" type="curve"/>
      <point x="159" y="397" type="line"/>
      <point x="163" y="408"/>
      <point x="216" y="464"/>
      <point x="294" y="464" type="curve" smooth="yes"/>
      <point x="369" y="464"/>
      <point x="432" y="426"/>
      <point x="432" y="358" type="curve" smooth="yes"/>
      <point x="432" y="159" type="line" smooth="yes"/>
      <point x="432" y="90"/>
      <point x="371" y="43"/>
    </contour>
  </outline>
</glyph>
<glyph name="Hbar" format="1">
  <advance width="1444"/>
  <unicode hex="0126"/>
  <outline>
    <contour>
      <point x="130" y="1053" type="line"/>
      <point x="1303" y="1053" type="line"/>
      <point x="1303" y="1133" type="line"/>
      <point x="130" y="1133" type="line"/>
    </contour>
    <component base="H"/>
  </outline>
</glyph>
<glyph name="Hbar" format="1">
  <advance width="1483"/>
  <unicode hex="0126"/>
  <outline>
    <contour>
      <point x="180" y="1017" type="line"/>
      <point x="1303" y="1017" type="line"/>
      <point x="1303" y="1153" type="line"/>
      <point x="180" y="1153" type="line"/>
    </contour>
    <component base="H"/>
  </outline>
</glyph>
<glyph name="hbar" format="1">
  <advance width="1206"/>
  <unicode hex="0127"/>
  <outline>
    <component base="h"/>
    <contour>
      <point x="33" y="1256" type="line"/>
      <point x="579" y="1256" type="line"/>
      <point x="579" y="1357" type="line"/>
      <point x="33" y="1357" type="line"/>
    </contour>
  </outline>
</glyph>
<glyph name="dotlessi" format="1">
  <advance width="267"/>
  <unicode hex="0131"/>
  <outline>
    <contour>
      <point x="147" y="0" type="move" name="ogonek"/>
    </contour>
    <contour>
      <point x="100" y="0" type="line"/>
      <point x="173" y="0" type="line"/>
      <point x="173" y="514" type="line"/>
      <point x="100" y="514" type="line"/>
    </contour>
  </outline>
</glyph>
<glyph name="kgreenlandic" format="1">
  <advance width="1109"/>
  <unicode hex="0138"/>
  <outline>
    <contour>
      <point x="195" y="0" type="line"/>
      <point x="332" y="0" type="line"/>
      <point x="332" y="335" type="line"/>
      <point x="510" y="507" type="line"/>
      <point x="930" y="0" type="line"/>
      <point x="1081" y="0" type="line"/>
      <point x="601" y="570" type="line"/>
      <point x="1025" y="1052" type="line"/>
      <point x="887" y="1052" type="line"/>
      <point x="647" y="792"/>
      <point x="573" y="713"/>
      <point x="332" y="455" type="curve"/>
      <point x="332" y="1052" type="line"/>
      <point x="195" y="1052" type="line"/>
    </contour>
  </outline>
</glyph>
<glyph name="Lslash" format="1">
  <advance width="1129"/>
  <unicode hex="0141"/>
  <outline>
    <component base="L"/>
    <contour>
      <point x="50" y="500" type="line"/>
      <point x="637" y="871" type="line"/>
      <point x="637" y="995" type="line"/>
      <point x="50" y="614" type="line"/>
    </contour>
  </outline>
</glyph>
<glyph name="Lslash" format="1">
  <advance width="1129"/>
  <unicode hex="0141"/>
  <outline>
    <contour>
      <point x="69" y="650" type="line"/>
      <point x="846" y="1081" type="line"/>
      <point x="846" y="1145" type="line"/>
      <point x="69" y="714" type="line"/>
    </contour>
    <component base="L"/>
  </outline>
</glyph>
<glyph name="lslash" format="1">
  <advance width="708"/>
  <unicode hex="0142"/>
  <outline>
    <component base="l"/>
    <contour>
      <point x="64" y="658" type="line"/>
      <point x="523" y="940" type="line"/>
      <point x="523" y="1062" type="line"/>
      <point x="64" y="780" type="line"/>
    </contour>
  </outline>
</glyph>
<glyph name="Eng" format="1">
  <advance width="1547"/>
  <unicode hex="014A"/>
  <outline>
    <contour>
      <point x="773" y="-368" type="line"/>
      <point x="1037" y="-368"/>
      <point x="1322" y="-283"/>
      <point x="1322" y="98" type="curve" smooth="yes"/>
      <point x="1322" y="1427" type="line"/>
      <point x="1199" y="1427" type="line"/>
      <point x="1199" y="416" type="line"/>
      <point x="335" y="1427" type="line"/>
      <point x="225" y="1427" type="line"/>
      <point x="225" y="0" type="line"/>
      <point x="348" y="0" type="line"/>
      <point x="348" y="1169" type="line"/>
      <point x="1185" y="212" type="line"/>
      <point x="1185" y="114" type="line" smooth="yes"/>
      <point x="1185" y="-220"/>
      <point x="996" y="-233"/>
      <point x="745" y="-256" type="curve"/>
    </contour>
  </outline>
</glyph>
<glyph name="eng" format="1">
  <advance width="590"/>
  <unicode hex="014B"/>
  <outline>
    <contour>
      <point x="339" y="-140" type="line"/>
      <point x="480" y="-140"/>
      <point x="498" y="-67"/>
      <point x="498" y="119" type="curve" smooth="yes"/>
      <point x="498" y="369" type="line" smooth="yes"/>
      <point x="498" y="447"/>
      <point x="460" y="522"/>
      <point x="316" y="522" type="curve" smooth="yes"/>
      <point x="239" y="522"/>
      <point x="201" y="502"/>
      <point x="166" y="470" type="curve"/>
      <point x="166" y="514" type="line"/>
      <point x="99" y="514" type="line"/>
      <point x="99" y="0" type="line"/>
      <point x="166" y="0" type="line"/>
      <point x="166" y="368" type="line" smooth="yes"/>
      <point x="166" y="417"/>
      <point x="197" y="465"/>
      <point x="312" y="465" type="curve" smooth="yes"/>
      <point x="390" y="465"/>
      <point x="431" y="434"/>
      <point x="431" y="385" type="curve" smooth="yes"/>
      <point x="431" y="115" type="line" smooth="yes"/>
      <point x="431" y="82"/>
      <point x="432" y="55"/>
      <point x="432" y="31" type="curve" smooth="yes"/>
      <point x="432" y="-52"/>
      <point x="423" y="-86"/>
      <point x="343" y="-86" type="curve" smooth="yes"/>
      <point x="338" y="-86"/>
      <point x="331" y="-85"/>
      <point x="325" y="-85" type="curve"/>
    </contour>
  </outline>
</glyph>
<glyph name="OE" format="1">
  <advance width="1511"/>
  <unicode hex="0152"/>
  <outline>
    <contour>
      <point x="810" y="0" type="curve" smooth="yes"/>
      <point x="1334" y="0" type="line"/>
      <point x="1334" y="126" type="line"/>
      <point x="868" y="126" type="line"/>
      <point x="868" y="663" type="line"/>
      <point x="1273" y="663" type="line"/>
      <point x="1273" y="788" type="line"/>
      <point x="868" y="788" type="line"/>
      <point x="868" y="1301" type="line"/>
      <point x="1321" y="1301" type="line"/>
      <point x="1321" y="1428" type="line"/>
      <point x="810" y="1428" type="line" smooth="yes"/>
      <point x="306" y="1429"/>
      <point x="197" y="1210"/>
      <point x="197" y="894" type="curve" smooth="yes"/>
      <point x="197" y="512" type="line" smooth="yes"/>
      <point x="197" y="208"/>
      <point x="308" y="0"/>
    </contour>
    <contour>
      <point x="796" y="125" type="line"/>
      <point x="529" y="125"/>
      <point x="358" y="180"/>
      <point x="358" y="500" type="curve" smooth="yes"/>
      <point x="358" y="915" type="line" smooth="yes"/>
      <point x="358" y="1234"/>
      <point x="530" y="1305"/>
      <point x="795" y="1305" type="curve" smooth="yes"/>
      <point x="708" y="1305" type="line"/>
      <point x="708" y="125" type="line"/>
    </contour>
  </outline>
</glyph>
<glyph name="OE" format="1">
  <advance width="737"/>
  <unicode hex="0152"/>
  <outline>
    <contour>
      <point x="396" y="0" type="curve" smooth="yes"/>
      <point x="651" y="0" type="line"/>
      <point x="651" y="62" type="line"/>
      <point x="424" y="62" type="line"/>
      <point x="424" y="324" type="line"/>
      <point x="622" y="324" type="line"/>
      <point x="622" y="385" type="line"/>
      <point x="424" y="385" type="line"/>
      <point x="424" y="635" type="line"/>
      <point x="645" y="635" type="line"/>
      <point x="645" y="697" type="line"/>
      <point x="394" y="697" type="line" smooth="yes"/>
      <point x="149" y="697"/>
      <point x="96" y="591"/>
      <point x="96" y="437" type="curve" smooth="yes"/>
      <point x="96" y="250" type="line" smooth="yes"/>
      <point x="96" y="102"/>
      <point x="151" y="0"/>
    </contour>
    <contour>
      <point x="389" y="61" type="line" smooth="yes"/>
      <point x="259" y="61"/>
      <point x="175" y="88"/>
      <point x="175" y="244" type="curve" smooth="yes"/>
      <point x="175" y="447" type="line" smooth="yes"/>
      <point x="175" y="603"/>
      <point x="259" y="637"/>
      <point x="388" y="637" type="curve" smooth="yes"/>
      <point x="346" y="637" type="line"/>
      <point x="346" y="61" type="line"/>
    </contour>
  </outline>
</glyph>
<glyph name="oe" format="1">
  <advance width="1706"/>
  <unicode hex="0153"/>
  <outline>
    <contour>
      <point x="560" y="-18" type="curve" smooth="yes"/>
      <point x="728" y="-18"/>
      <point x="814" y="41"/>
      <point x="870" y="141" type="curve"/>
      <point x="924" y="45"/>
      <point x="1028" y="-18"/>
      <point x="1184" y="-18" type="curve" smooth="yes"/>
      <point x="1474" y="-18"/>
      <point x="1533" y="90"/>
      <point x="1563" y="315" type="curve"/>
      <point x="1443" y="315" type="line"/>
      <point x="1425" y="124"/>
      <point x="1373" y="94"/>
      <point x="1181" y="94" type="curve" smooth="yes"/>
      <point x="1014" y="94"/>
      <point x="941" y="176"/>
      <point x="941" y="332" type="curve" smooth="yes"/>
      <point x="941" y="502" type="line"/>
      <point x="1564" y="502" type="line"/>
      <point x="1564" y="766" type="line" smooth="yes"/>
      <point x="1564" y="958"/>
      <point x="1431" y="1070"/>
      <point x="1185" y="1070" type="curve" smooth="yes"/>
      <point x="1031" y="1070"/>
      <point x="930" y="1032"/>
      <point x="871" y="934" type="curve"/>
      <point x="806" y="1033"/>
      <point x="702" y="1070"/>
      <point x="560" y="1070" type="curve" smooth="yes"/>
      <point x="305" y="1070"/>
      <point x="166" y="933"/>
      <point x="166" y="746" type="curve" smooth="yes"/>
      <point x="166" y="312" type="line" smooth="yes"/>
      <point x="166" y="126"/>
      <point x="257" y="-18"/>
    </contour>
    <contour>
      <point x="560" y="94" type="curve" smooth="yes"/>
      <point x="399" y="94"/>
      <point x="303" y="149"/>
      <point x="303" y="293" type="curve" smooth="yes"/>
      <point x="303" y="764" type="line" smooth="yes"/>
      <point x="303" y="908"/>
      <point x="406" y="957"/>
      <point x="560" y="957" type="curve" smooth="yes"/>
      <point x="718" y="957"/>
      <point x="804" y="899"/>
      <point x="804" y="764" type="curve" smooth="yes"/>
      <point x="804" y="293" type="line" smooth="yes"/>
      <point x="804" y="151"/>
      <point x="714" y="94"/>
    </contour>
    <contour>
      <point x="941" y="620" type="line"/>
      <point x="941" y="760" type="line" smooth="yes"/>
      <point x="941" y="901"/>
      <point x="1006" y="957"/>
      <point x="1181" y="957" type="curve" smooth="yes"/>
      <point x="1347" y="957"/>
      <point x="1427" y="919"/>
      <point x="1427" y="786" type="curve" smooth="yes"/>
      <point x="1427" y="620" type="line"/>
    </contour>
  </outline>
</glyph>
<glyph name="florin" format="1">
  <advance width="810"/>
  <unicode hex="0192"/>
  <outline>
    <contour>
      <point x="172" y="-187" type="curve" smooth="yes"/>
      <point x="312" y="-187"/>
      <point x="443" y="-136"/>
      <point x="443" y="85" type="curve" smooth="yes"/>
      <point x="443" y="676" type="line"/>
      <point x="652" y="676" type="line"/>
      <point x="652" y="755" type="line"/>
      <point x="443" y="755" type="line"/>
      <point x="443" y="1159" type="line" smooth="yes"/>
      <point x="443" y="1298"/>
      <point x="488" y="1373"/>
      <point x="623" y="1373" type="curve" smooth="yes"/>
      <point x="638" y="1373"/>
      <point x="653" y="1372"/>
      <point x="670" y="1370" type="curve"/>
      <point x="670" y="1447" type="line"/>
      <point x="639" y="1450"/>
      <point x="607" y="1453"/>
      <point x="576" y="1453" type="curve" smooth="yes"/>
      <point x="435" y="1453"/>
      <point x="311" y="1401"/>
      <point x="311" y="1139" type="curve" smooth="yes"/>
      <point x="311" y="755" type="line"/>
      <point x="112" y="755" type="line"/>
      <point x="112" y="676" type="line"/>
      <point x="311" y="676" type="line"/>
      <point x="311" y="56" type="line" smooth="yes"/>
      <point x="311" y="-70"/>
      <point x="218" y="-98"/>
      <point x="89" y="-98" type="curve" smooth="yes"/>
      <point x="75" y="-98" type="line"/>
      <point x="75" y="-180" type="line"/>
      <point x="107" y="-184"/>
      <point x="140" y="-187"/>
    </contour>
  </outline>
</glyph>
<glyph name="dotlessj" format="1">
  <advance width="267"/>
  <unicode hex="0237"/>
  <outline>
    <contour>
      <point x="22" y="-175" type="line"/>
      <point x="62" y="-174" type="line" smooth="yes"/>
      <point x="150" y="-171"/>
      <point x="179" y="-151"/>
      <point x="179" y="-3" type="curve" smooth="yes"/>
      <point x="179" y="514" type="line"/>
      <point x="111" y="514" type="line"/>
      <point x="111" y="-16" type="line" smooth="yes"/>
      <point x="111" y="-104"/>
      <point x="101" y="-114"/>
      <point x="45" y="-116" type="curve" smooth="yes"/>
      <point x="19" y="-117" type="line"/>
    </contour>
  </outline>
</glyph>
<glyph name="uni0237" format="1">
  <advance width="548"/>
  <unicode hex="0237"/>
  <outline>
    <contour>
      <point x="46" y="-359" type="line"/>
      <point x="128" y="-356" type="line" smooth="yes"/>
      <point x="308" y="-349"/>
      <point x="366" y="-310"/>
      <point x="366" y="-7" type="curve" smooth="yes"/>
      <point x="366" y="1052" type="line"/>
      <point x="228" y="1052" type="line"/>
      <point x="228" y="-32" type="line" smooth="yes"/>
      <point x="228" y="-213"/>
      <point x="207" y="-233"/>
      <point x="92" y="-237" type="curve" smooth="yes"/>
      <point x="39" y="-239" type="line"/>
    </contour>
  </outline>
</glyph>
<glyph name="circumflex" format="1">
  <advance width="512"/>
  <unicode hex="02C6"/>
  <outline>
    <contour>
      <point x="-8" y="1206" type="line"/>
      <point x="142" y="1206" type="line"/>
      <point x="258" y="1350" type="line"/>
      <point x="366" y="1206" type="line"/>
      <point x="512" y="1206" type="line"/>
      <point x="309" y="1452" type="line"/>
      <point x="204" y="1452" type="line"/>
    </contour>
  </outline>
</glyph>
<glyph name="caron" format="1">
  <advance width="250"/>
  <unicode hex="02C7"/>
  <outline>
    <contour>
      <point x="152" y="581" type="line"/>
      <point x="251" y="701" type="line"/>
      <point x="180" y="701" type="line"/>
      <point x="127" y="630" type="line"/>
      <point x="71" y="701" type="line"/>
      <point x="-2" y="701" type="line"/>
      <point x="101" y="581" type="line"/>
    </contour>
  </outline>
</glyph>
<glyph name="firsttonechinese" format="1">
  <advance width="250"/>
  <unicode hex="02C9"/>
  <outline>
    <contour>
      <point x="7" y="618" type="line"/>
      <point x="244" y="618" type="line"/>
      <point x="244" y="672" type="line"/>
      <point x="7" y="672" type="line"/>
    </contour>
  </outline>
</glyph>
<glyph name="uni02C9" format="1">
  <advance width="514"/>
  <unicode hex="02C9"/>
  <outline>
    <contour>
      <point x="15" y="1265" type="line"/>
      <point x="499" y="1265" type="line"/>
      <point x="499" y="1376" type="line"/>
      <point x="15" y="1376" type="line"/>
    </contour>
  </outline>
</glyph>
<glyph name="breve" format="1">
  <advance width="512"/>
  <unicode hex="02D8"/>
  <outline>
    <contour>
      <point x="267" y="1052" type="move" name="_top"/>
    </contour>
    <contour>
      <point x="256" y="1173" type="curve" smooth="yes"/>
      <point x="402" y="1173"/>
      <point x="464" y="1293"/>
      <point x="464" y="1357" type="curve"/>
      <point x="349" y="1357" type="line"/>
      <point x="349" y="1307"/>
      <point x="302" y="1273"/>
      <point x="256" y="1273" type="curve" smooth="yes"/>
      <point x="210" y="1273"/>
      <point x="163" y="1307"/>
      <point x="163" y="1357" type="curve"/>
      <point x="48" y="1357" type="line"/>
      <point x="48" y="1293"/>
      <point x="110" y="1173"/>
    </contour>
  </outline>
</glyph>
<glyph name="dotaccent" format="1">
  <advance width="526"/>
  <unicode hex="02D9"/>
  <outline>
    <contour>
      <point x="174" y="1243" type="line"/>
      <point x="312" y="1243" type="line"/>
      <point x="312" y="1423" type="line"/>
      <point x="174" y="1423" type="line"/>
    </contour>
  </outline>
</glyph>
<glyph name="ring" format="1">
  <advance width="464"/>
  <unicode hex="02DA"/>
  <outline>
    <contour>
      <point x="232" y="1226" type="curve" smooth="yes"/>
      <point x="182" y="1226"/>
      <point x="128" y="1252"/>
      <point x="128" y="1334" type="curve" smooth="yes"/>
      <point x="128" y="1416"/>
      <point x="183" y="1440"/>
      <point x="233" y="1440" type="curve" smooth="yes"/>
      <point x="285" y="1440"/>
      <point x="336" y="1413"/>
      <point x="336" y="1332" type="curve" smooth="yes"/>
      <point x="336" y="1251"/>
      <point x="283" y="1226"/>
    </contour>
    <contour>
      <point x="232" y="1176" type="curve" smooth="yes"/>
      <point x="306" y="1176"/>
      <point x="404" y="1218"/>
      <point x="404" y="1333" type="curve" smooth="yes"/>
      <point x="404" y="1448"/>
      <point x="307" y="1491"/>
      <point x="232" y="1491" type="curve" smooth="yes"/>
      <point x="158" y="1491"/>
      <point x="60" y="1448"/>
      <point x="60" y="1333" type="curve" smooth="yes"/>
      <point x="60" y="1218"/>
      <point x="158" y="1176"/>
    </contour>
    <contour>
      <point x="231" y="1052" type="move" name="_top"/>
    </contour>
  </outline>
</glyph>
<glyph name="ogonek" format="1">
  <advance width="258"/>
  <unicode hex="02DB"/>
  <outline>
    <contour>
      <point x="198" y="-223" type="curve"/>
      <point x="194" y="-188" type="line"/>
      <point x="135" y="-188"/>
      <point x="114" y="-163"/>
      <point x="114" y="-125" type="curve" smooth="yes"/>
      <point x="114" y="-75"/>
      <point x="158" y="-22"/>
      <point x="198" y="5" type="curve"/>
      <point x="168" y="5" type="line"/>
      <point x="93" y="-41"/>
      <point x="71" y="-100"/>
      <point x="71" y="-133" type="curve" smooth="yes"/>
      <point x="71" y="-176"/>
      <point x="105" y="-223"/>
    </contour>
    <contour>
      <point x="174" y="0" type="move" name="_ogonek"/>
    </contour>
  </outline>
</glyph>
<glyph name="tilde" format="1">
  <advance width="364"/>
  <unicode hex="02DC"/>
  <outline>
    <contour>
      <point x="292" y="1420" type="curve" smooth="yes"/>
      <point x="160" y="1420"/>
      <point x="126" y="1310"/>
      <point x="55" y="1310" type="curve" smooth="yes"/>
      <point x="14" y="1310"/>
      <point x="-13" y="1349"/>
      <point x="-13" y="1408" type="curve"/>
      <point x="-97" y="1408" type="line"/>
      <point x="-97" y="1256"/>
      <point x="-39" y="1212"/>
      <point x="71" y="1212" type="curve" smooth="yes"/>
      <point x="198" y="1212"/>
      <point x="245" y="1310"/>
      <point x="296" y="1322" type="curve" smooth="yes"/>
      <point x="301" y="1323"/>
      <point x="305" y="1324"/>
      <point x="309" y="1324" type="curve" smooth="yes"/>
      <point x="347" y="1324"/>
      <point x="375" y="1282"/>
      <point x="375" y="1225" type="curve"/>
      <point x="459" y="1225" type="line"/>
      <point x="459" y="1362"/>
      <point x="402" y="1420"/>
    </contour>
  </outline>
</glyph>
<glyph name="hungarumlaut" format="1">
  <advance width="500"/>
  <unicode hex="02DD"/>
  <outline>
    <contour>
      <point x="107" y="593" type="line"/>
      <point x="153" y="593" type="line"/>
      <point x="269" y="784" type="line"/>
      <point x="181" y="784" type="line"/>
    </contour>
    <contour>
      <point x="273" y="593" type="line"/>
      <point x="322" y="593" type="line"/>
      <point x="461" y="784" type="line"/>
      <point x="372" y="784" type="line"/>
    </contour>
  </outline>
</glyph>
<glyph name="uni0307" format="1">
  <advance width="145"/>
  <unicode hex="0307"/>
  <outline>
    <contour>
      <point x="32" y="648" type="line"/>
      <point x="126" y="648" type="line"/>
      <point x="126" y="750" type="line"/>
      <point x="32" y="750" type="line"/>
    </contour>
  </outline>
</glyph>
<glyph name="uni030F" format="1">
  <advance width="500"/>
  <unicode hex="030F"/>
  <outline>
    <contour>
      <point x="261" y="784" type="line"/>
      <point x="376" y="593" type="line"/>
      <point x="422" y="593" type="line"/>
      <point x="348" y="784" type="line"/>
    </contour>
    <contour>
      <point x="68" y="784" type="line"/>
      <point x="208" y="593" type="line"/>
      <point x="256" y="593" type="line"/>
      <point x="158" y="784" type="line"/>
    </contour>
  </outline>
</glyph>
<glyph name="uni0311" format="1">
  <advance width="474"/>
  <unicode hex="0311"/>
  <outline>
    <contour>
      <point x="247" y="1052" type="move" name="_top"/>
    </contour>
    <contour>
      <point x="28" y="1279" type="curve"/>
      <point x="143" y="1279" type="line"/>
      <point x="143" y="1330"/>
      <point x="189" y="1363"/>
      <point x="236" y="1363" type="curve" smooth="yes"/>
      <point x="282" y="1363"/>
      <point x="328" y="1330"/>
      <point x="328" y="1279" type="curve"/>
      <point x="444" y="1279" type="line"/>
      <point x="444" y="1343"/>
      <point x="381" y="1463"/>
      <point x="236" y="1463" type="curve" smooth="yes"/>
      <point x="90" y="1463"/>
      <point x="28" y="1343"/>
    </contour>
  </outline>
</glyph>
<glyph name="uni0358" format="1">
  <advance width="600"/>
  <unicode hex="0358"/>
  <outline>
    <contour>
      <point x="199" y="1279" type="line"/>
      <point x="392" y="1279" type="line"/>
      <point x="392" y="1487" type="line"/>
      <point x="199" y="1487" type="line"/>
    </contour>
    <contour>
      <point x="306" y="1052" type="move" name="_top"/>
    </contour>
  </outline>
</glyph>
<glyph name="uni0394" format="1">
  <advance width="699"/>
  <unicode hex="0394"/>
  <outline>
    <contour>
      <point x="94" y="0" type="line"/>
      <point x="601" y="0" type="line"/>
      <point x="383" y="697" type="line"/>
      <point x="309" y="697" type="line"/>
    </contour>
    <contour>
      <point x="195" y="54" type="line"/>
      <point x="360" y="600" type="line"/>
      <point x="527" y="54" type="line"/>
    </contour>
  </outline>
</glyph>
<glyph name="Sigma" format="1">
  <advance width="1132"/>
  <unicode hex="03A3"/>
  <outline>
    <contour>
      <point x="1068" y="0" type="line"/>
      <point x="1068" y="124" type="line"/>
      <point x="246" y="124" type="line"/>
      <point x="719" y="740" type="line"/>
      <point x="719" y="804" type="line"/>
      <point x="238" y="1306" type="line"/>
      <point x="1068" y="1306" type="line"/>
      <point x="1068" y="1428" type="line"/>
      <point x="124" y="1428" type="line"/>
      <point x="124" y="1302" type="line"/>
      <point x="611" y="763" type="line"/>
      <point x="124" y="133" type="line"/>
      <point x="124" y="0" type="line"/>
    </contour>
  </outline>
</glyph>
<glyph name="uni03A9" format="1">
  <advance width="760"/>
  <unicode hex="03A9"/>
  <outline>
    <contour>
      <point x="380" y="710" type="curve" smooth="yes"/>
      <point x="213" y="710"/>
      <point x="103" y="656"/>
      <point x="103" y="341" type="curve" smooth="yes"/>
      <point x="103" y="151"/>
      <point x="150" y="85"/>
      <point x="230" y="50" type="curve"/>
      <point x="113" y="50" type="line"/>
      <point x="113" y="0" type="line"/>
      <point x="329" y="0" type="line"/>
      <point x="329" y="54" type="line"/>
      <point x="216" y="87"/>
      <point x="168" y="151"/>
      <point x="168" y="347" type="curve" smooth="yes"/>
      <point x="168" y="615"/>
      <point x="245" y="646"/>
      <point x="380" y="646" type="curve" smooth="yes"/>
      <point x="512" y="646"/>
      <point x="592" y="615"/>
      <point x="592" y="347" type="curve" smooth="yes"/>
      <point x="592" y="151"/>
      <point x="545" y="87"/>
      <point x="431" y="54" type="curve"/>
      <point x="431" y="0" type="line"/>
      <point x="647" y="0" type="line"/>
      <point x="647" y="50" type="line"/>
      <point x="531" y="50" type="line"/>
      <point x="611" y="85"/>
      <point x="658" y="151"/>
      <point x="658" y="341" type="curve" smooth="yes"/>
      <point x="658" y="656"/>
      <point x="544" y="710"/>
    </contour>
  </outline>
</glyph>
<glyph name="mu" format="1">
  <advance width="1211"/>
  <unicode hex="03BC"/>
  <outline>
    <contour>
      <point x="868" y="1052" type="line"/>
      <point x="868" y="304" type="line" smooth="yes"/>
      <point x="868" y="222"/>
      <point x="795" y="96"/>
      <point x="560" y="96" type="curve" smooth="yes"/>
      <point x="401" y="96"/>
      <point x="327" y="177"/>
      <point x="327" y="278" type="curve" smooth="yes"/>
      <point x="327" y="1052" type="line"/>
      <point x="190" y="1052" type="line"/>
      <point x="190" y="-471" type="line"/>
      <point x="339" y="-471" type="line"/>
      <point x="339" y="10" type="line"/>
      <point x="383" y="-11"/>
      <point x="446" y="-24"/>
      <point x="531" y="-24" type="curve" smooth="yes"/>
      <point x="696" y="-24"/>
      <point x="804" y="36"/>
      <point x="868" y="132" type="curve"/>
      <point x="896" y="0" type="line"/>
      <point x="1005" y="0" type="line"/>
      <point x="1005" y="1052" type="line"/>
    </contour>
  </outline>
</glyph>
<glyph name="pi" format="1">
  <advance width="1134"/>
  <unicode hex="03C0"/>
  <outline>
    <contour>
      <point x="28" y="919" type="line"/>
      <point x="24" y="916"/>
      <point x="23" y="915"/>
      <point x="23" y="914" type="curve" smooth="yes"/>
      <point x="23" y="914"/>
      <point x="23" y="913"/>
      <point x="24" y="913" type="curve" smooth="yes"/>
      <point x="37" y="913"/>
      <point x="148" y="961"/>
      <point x="245" y="961" type="curve" smooth="yes"/>
      <point x="259" y="961" type="line"/>
      <point x="259" y="0" type="line"/>
      <point x="408" y="0" type="line"/>
      <point x="408" y="960" type="line"/>
      <point x="739" y="960" type="line"/>
      <point x="739" y="249" type="line" smooth="yes"/>
      <point x="739" y="30"/>
      <point x="817" y="-20"/>
      <point x="1004" y="-23" type="curve"/>
      <point x="1054" y="105" type="line"/>
      <point x="913" y="138"/>
      <point x="889" y="157"/>
      <point x="889" y="327" type="curve" smooth="yes"/>
      <point x="889" y="960" type="line"/>
      <point x="1071" y="960" type="line"/>
      <point x="1071" y="1052" type="line"/>
      <point x="207" y="1052" type="line" smooth="yes"/>
      <point x="96" y="1052"/>
      <point x="29" y="1002"/>
      <point x="24" y="1002" type="curve" smooth="yes"/>
      <point x="23" y="1002"/>
      <point x="24" y="1004"/>
      <point x="28" y="1008" type="curve"/>
    </contour>
  </outline>
</glyph>
<glyph name="endash" format="1">
  <advance width="211"/>
  <unicode hex="2013"/>
  <outline>
    <contour>
      <point x="-36" y="343" type="line"/>
      <point x="246" y="343" type="line"/>
      <point x="246" y="393" type="line"/>
      <point x="-36" y="393" type="line"/>
    </contour>
  </outline>
</glyph>
<glyph name="emdash" format="1">
  <advance width="578"/>
  <unicode hex="2014"/>
  <outline>
    <contour>
      <point x="0" y="202" type="line"/>
      <point x="578" y="202" type="line"/>
      <point x="578" y="265" type="line"/>
      <point x="0" y="265" type="line"/>
    </contour>
  </outline>
</glyph>
<glyph name="quoteleft" format="1">
  <advance width="344"/>
  <unicode hex="2018"/>
  <outline>
    <contour>
      <point x="240" y="707" type="line"/>
      <point x="213" y="681"/>
      <point x="163" y="623"/>
      <point x="163" y="533" type="curve" smooth="yes"/>
      <point x="163" y="455" type="line"/>
      <point x="270" y="455" type="line"/>
      <point x="270" y="557" type="line"/>
      <point x="208" y="557" type="line"/>
      <point x="208" y="619"/>
      <point x="251" y="660"/>
      <point x="272" y="686" type="curve"/>
    </contour>
  </outline>
</glyph>
<glyph name="quoteright" format="1">
  <advance width="356"/>
  <unicode hex="2019"/>
  <outline>
    <contour>
      <point x="104" y="455" type="line"/>
      <point x="131" y="481"/>
      <point x="182" y="538"/>
      <point x="182" y="628" type="curve" smooth="yes"/>
      <point x="182" y="706" type="line"/>
      <point x="75" y="706" type="line"/>
      <point x="75" y="605" type="line"/>
      <point x="137" y="605" type="line"/>
      <point x="137" y="543"/>
      <point x="94" y="502"/>
      <point x="73" y="476" type="curve"/>
    </contour>
  </outline>
</glyph>
<glyph name="quotesinglbase" format="1">
  <advance width="344"/>
  <unicode hex="201A"/>
  <outline>
    <contour>
      <point x="93" y="-150" type="line"/>
      <point x="120" y="-125"/>
      <point x="170" y="-67"/>
      <point x="170" y="23" type="curve" smooth="yes"/>
      <point x="170" y="101" type="line"/>
      <point x="63" y="101" type="line"/>
      <point x="63" y="0" type="line"/>
      <point x="125" y="0" type="line"/>
      <point x="125" y="-62"/>
      <point x="82" y="-103"/>
      <point x="61" y="-129" type="curve"/>
    </contour>
  </outline>
</glyph>
<glyph name="quotedblleft" format="1">
  <advance width="1104"/>
  <unicode hex="201C"/>
  <outline>
    <contour>
      <point x="516" y="1440" type="line"/>
      <point x="460" y="1387"/>
      <point x="358" y="1269"/>
      <point x="358" y="1084" type="curve" smooth="yes"/>
      <point x="358" y="925" type="line"/>
      <point x="576" y="925" type="line"/>
      <point x="576" y="1132" type="line"/>
      <point x="450" y="1132" type="line"/>
      <point x="450" y="1261"/>
      <point x="537" y="1344"/>
      <point x="581" y="1397" type="curve"/>
    </contour>
    <contour>
      <point x="890" y="1440" type="line"/>
      <point x="834" y="1387"/>
      <point x="732" y="1269"/>
      <point x="732" y="1084" type="curve" smooth="yes"/>
      <point x="732" y="925" type="line"/>
      <point x="950" y="925" type="line"/>
      <point x="950" y="1132" type="line"/>
      <point x="823" y="1132" type="line"/>
      <point x="823" y="1261"/>
      <point x="910" y="1344"/>
      <point x="955" y="1397" type="curve"/>
    </contour>
  </outline>
</glyph>
<glyph name="quotedblright" format="1">
  <advance width="527"/>
  <unicode hex="201D"/>
  <outline>
    <contour>
      <point x="93" y="452" type="line"/>
      <point x="120" y="477"/>
      <point x="170" y="535"/>
      <point x="170" y="625" type="curve" smooth="yes"/>
      <point x="170" y="703" type="line"/>
      <point x="63" y="703" type="line"/>
      <point x="63" y="602" type="line"/>
      <point x="125" y="602" type="line"/>
      <point x="125" y="540"/>
      <point x="82" y="498"/>
      <point x="61" y="472" type="curve"/>
    </contour>
    <contour>
      <point x="275" y="452" type="line"/>
      <point x="302" y="477"/>
      <point x="352" y="535"/>
      <point x="352" y="625" type="curve" smooth="yes"/>
      <point x="352" y="703" type="line"/>
      <point x="246" y="703" type="line"/>
      <point x="246" y="602" type="line"/>
      <point x="308" y="602" type="line"/>
      <point x="308" y="540"/>
      <point x="265" y="498"/>
      <point x="243" y="472" type="curve"/>
    </contour>
  </outline>
</glyph>
<glyph name="quotedblbase" format="1">
  <advance width="520"/>
  <unicode hex="201E"/>
  <outline>
    <contour>
      <point x="269" y="-150" type="line"/>
      <point x="296" y="-125"/>
      <point x="345" y="-67"/>
      <point x="345" y="23" type="curve" smooth="yes"/>
      <point x="345" y="101" type="line"/>
      <point x="239" y="101" type="line"/>
      <point x="239" y="0" type="line"/>
      <point x="301" y="0" type="line"/>
      <point x="301" y="-62"/>
      <point x="258" y="-103"/>
      <point x="236" y="-129" type="curve"/>
    </contour>
    <contour>
      <point x="93" y="-150" type="line"/>
      <point x="120" y="-125"/>
      <point x="170" y="-67"/>
      <point x="170" y="23" type="curve" smooth="yes"/>
      <point x="170" y="101" type="line"/>
      <point x="63" y="101" type="line"/>
      <point x="63" y="0" type="line"/>
      <point x="125" y="0" type="line"/>
      <point x="125" y="-62"/>
      <point x="82" y="-103"/>
      <point x="61" y="-129" type="curve"/>
    </contour>
  </outline>
</glyph>
<glyph name="dagger" format="1">
  <advance width="395"/>
  <unicode hex="2020"/>
  <outline>
    <contour>
      <point x="152" y="0" type="line"/>
      <point x="239" y="0" type="line"/>
      <point x="239" y="476" type="line"/>
      <point x="373" y="476" type="line"/>
      <point x="373" y="531" type="line"/>
      <point x="239" y="531" type="line"/>
      <point x="239" y="742" type="line"/>
      <point x="152" y="742" type="line"/>
      <point x="152" y="531" type="line"/>
      <point x="22" y="531" type="line"/>
      <point x="22" y="476" type="line"/>
      <point x="152" y="476" type="line"/>
    </contour>
  </outline>
</glyph>
<glyph name="daggerdbl" format="1">
  <advance width="432"/>
  <unicode hex="2021"/>
  <outline>
    <contour>
      <point x="171" y="0" type="line"/>
      <point x="258" y="0" type="line"/>
      <point x="258" y="208" type="line"/>
      <point x="409" y="208" type="line"/>
      <point x="409" y="253" type="line"/>
      <point x="258" y="253" type="line"/>
      <point x="258" y="472" type="line"/>
      <point x="409" y="472" type="line"/>
      <point x="409" y="518" type="line"/>
      <point x="258" y="518" type="line"/>
      <point x="258" y="742" type="line"/>
      <point x="171" y="742" type="line"/>
      <point x="171" y="518" type="line"/>
      <point x="23" y="518" type="line"/>
      <point x="23" y="472" type="line"/>
      <point x="171" y="472" type="line"/>
      <point x="171" y="253" type="line"/>
      <point x="23" y="253" type="line"/>
      <point x="23" y="208" type="line"/>
      <point x="171" y="208" type="line"/>
    </contour>
  </outline>
</glyph>
<glyph name="bullet" format="1">
  <advance width="461"/>
  <unicode hex="2022"/>
  <outline>
    <contour>
      <point x="230" y="119" type="curve" smooth="yes"/>
      <point x="351" y="119"/>
      <point x="377" y="163"/>
      <point x="377" y="261" type="curve" smooth="yes"/>
      <point x="377" y="360"/>
      <point x="351" y="404"/>
      <point x="230" y="404" type="curve" smooth="yes"/>
      <point x="111" y="404"/>
      <point x="84" y="360"/>
      <point x="84" y="261" type="curve" smooth="yes"/>
      <point x="84" y="163"/>
      <point x="110" y="119"/>
    </contour>
  </outline>
</glyph>
<glyph name="perthousand" format="1">
  <advance width="1443"/>
  <unicode hex="2030"/>
  <outline>
    <contour>
      <point x="271" y="374" type="curve" smooth="yes"/>
      <point x="201" y="374"/>
      <point x="190" y="427"/>
      <point x="190" y="497" type="curve" smooth="yes"/>
      <point x="190" y="545" type="line" smooth="yes"/>
      <point x="190" y="613"/>
      <point x="198" y="661"/>
      <point x="271" y="661" type="curve" smooth="yes"/>
      <point x="345" y="661"/>
      <point x="352" y="613"/>
      <point x="352" y="544" type="curve" smooth="yes"/>
      <point x="352" y="497" type="line" smooth="yes"/>
      <point x="352" y="427"/>
      <point x="341" y="374"/>
    </contour>
    <contour>
      <point x="271" y="321" type="curve" smooth="yes"/>
      <point x="383" y="321"/>
      <point x="417" y="394"/>
      <point x="417" y="506" type="curve" smooth="yes"/>
      <point x="417" y="533" type="line"/>
      <point x="416" y="647"/>
      <point x="383" y="713"/>
      <point x="271" y="713" type="curve" smooth="yes"/>
      <point x="158" y="713"/>
      <point x="126" y="646"/>
      <point x="126" y="532" type="curve" smooth="yes"/>
      <point x="126" y="506" type="line" smooth="yes"/>
      <point x="126" y="395"/>
      <point x="159" y="321"/>
    </contour>
    <contour>
      <point x="806" y="43" type="curve" smooth="yes"/>
      <point x="736" y="43"/>
      <point x="726" y="97"/>
      <point x="726" y="167" type="curve" smooth="yes"/>
      <point x="726" y="215" type="line" smooth="yes"/>
      <point x="726" y="283"/>
      <point x="733" y="330"/>
      <point x="806" y="330" type="curve" smooth="yes"/>
      <point x="880" y="330"/>
      <point x="887" y="283"/>
      <point x="887" y="214" type="curve" smooth="yes"/>
      <point x="887" y="167" type="line" smooth="yes"/>
      <point x="887" y="97"/>
      <point x="877" y="43"/>
    </contour>
    <contour>
      <point x="806" y="-9" type="curve" smooth="yes"/>
      <point x="918" y="-9"/>
      <point x="952" y="64"/>
      <point x="952" y="176" type="curve" smooth="yes"/>
      <point x="952" y="202" type="line"/>
      <point x="951" y="316"/>
      <point x="918" y="383"/>
      <point x="806" y="383" type="curve" smooth="yes"/>
      <point x="693" y="383"/>
      <point x="661" y="316"/>
      <point x="661" y="202" type="curve" smooth="yes"/>
      <point x="661" y="176" type="line" smooth="yes"/>
      <point x="661" y="65"/>
      <point x="694" y="-9"/>
    </contour>
    <contour>
      <point x="1193" y="43" type="curve" smooth="yes"/>
      <point x="1123" y="43"/>
      <point x="1114" y="97"/>
      <point x="1114" y="167" type="curve" smooth="yes"/>
      <point x="1114" y="215" type="line" smooth="yes"/>
      <point x="1114" y="283"/>
      <point x="1120" y="330"/>
      <point x="1193" y="330" type="curve" smooth="yes"/>
      <point x="1267" y="330"/>
      <point x="1274" y="283"/>
      <point x="1274" y="214" type="curve" smooth="yes"/>
      <point x="1274" y="167" type="line" smooth="yes"/>
      <point x="1274" y="97"/>
      <point x="1264" y="43"/>
    </contour>
    <contour>
      <point x="1193" y="-9" type="curve" smooth="yes"/>
      <point x="1305" y="-9"/>
      <point x="1340" y="64"/>
      <point x="1340" y="176" type="curve" smooth="yes"/>
      <point x="1340" y="202" type="line"/>
      <point x="1339" y="316"/>
      <point x="1305" y="383"/>
      <point x="1193" y="383" type="curve" smooth="yes"/>
      <point x="1080" y="383"/>
      <point x="1049" y="316"/>
      <point x="1049" y="202" type="curve" smooth="yes"/>
      <point x="1049" y="176" type="line" smooth="yes"/>
      <point x="1049" y="65"/>
      <point x="1081" y="-9"/>
    </contour>
    <contour>
      <point x="367" y="0" type="line"/>
      <point x="436" y="0" type="line"/>
      <point x="698" y="706" type="line"/>
      <point x="632" y="706" type="line"/>
    </contour>
  </outline>
</glyph>
<glyph name="guilsinglleft" format="1">
  <advance width="768"/>
  <unicode hex="2039"/>
  <outline>
    <contour>
      <point x="434" y="80" type="line"/>
      <point x="524" y="130" type="line"/>
      <point x="317" y="530" type="line"/>
      <point x="524" y="930" type="line"/>
      <point x="427" y="980" type="line"/>
      <point x="164" y="530" type="line"/>
    </contour>
  </outline>
</glyph>
<glyph name="guilsinglright" format="1">
  <advance width="375"/>
  <unicode hex="203A"/>
  <outline>
    <contour>
      <point x="152" y="479" type="line"/>
      <point x="104" y="454" type="line"/>
      <point x="206" y="259" type="line"/>
      <point x="104" y="63" type="line"/>
      <point x="148" y="39" type="line"/>
      <point x="280" y="259" type="line"/>
    </contour>
  </outline>
</glyph>
<glyph name="fraction" format="1">
  <advance width="330"/>
  <unicode hex="2044"/>
  <outline>
    <contour>
      <point x="-3" y="0" type="line"/>
      <point x="66" y="0" type="line"/>
      <point x="334" y="732" type="line"/>
      <point x="267" y="732" type="line"/>
    </contour>
  </outline>
</glyph>
<glyph name="foursuperior" format="1">
  <advance width="493"/>
  <unicode hex="2074"/>
  <outline>
    <contour>
      <point x="295" y="350" type="line"/>
      <point x="338" y="350" type="line"/>
      <point x="338" y="453" type="line"/>
      <point x="403" y="453" type="line"/>
      <point x="403" y="488" type="line"/>
      <point x="338" y="488" type="line"/>
      <point x="338" y="594" type="line"/>
      <point x="295" y="594" type="line"/>
      <point x="295" y="488" type="line"/>
      <point x="150" y="488" type="line"/>
      <point x="275" y="744" type="line"/>
      <point x="231" y="744" type="line"/>
      <point x="97" y="479" type="line"/>
      <point x="97" y="453" type="line"/>
      <point x="295" y="453" type="line"/>
    </contour>
  </outline>
</glyph>
<glyph name="Euro" format="1">
  <advance width="704"/>
  <unicode hex="20AC"/>
  <outline>
    <component base="C"/>
    <contour>
      <point x="350" y="409" type="line"/>
      <point x="350" y="460" type="line"/>
      <point x="-13" y="460" type="line"/>
      <point x="-13" y="409" type="line"/>
    </contour>
    <contour>
      <point x="350" y="252" type="line"/>
      <point x="350" y="303" type="line"/>
      <point x="-13" y="303" type="line"/>
      <point x="-13" y="252" type="line"/>
    </contour>
  </outline>
</glyph>
<glyph name="Euro" format="1">
  <advance width="1442"/>
  <unicode hex="20AC"/>
  <outline>
    <contour>
      <point x="716" y="808" type="line"/>
      <point x="716" y="942" type="line"/>
      <point x="-26" y="942" type="line"/>
      <point x="-26" y="808" type="line"/>
    </contour>
    <contour>
      <point x="716" y="486" type="line"/>
      <point x="716" y="620" type="line"/>
      <point x="-26" y="620" type="line"/>
      <point x="-26" y="486" type="line"/>
    </contour>
    <component base="C"/>
  </outline>
</glyph>
<glyph name="trademark" format="1">
  <advance width="899"/>
  <unicode hex="2122"/>
  <outline>
    <contour>
      <point x="418" y="374" type="line"/>
      <point x="468" y="374" type="line"/>
      <point x="468" y="675" type="line"/>
      <point x="561" y="455" type="line"/>
      <point x="640" y="455" type="line"/>
      <point x="729" y="675" type="line"/>
      <point x="729" y="374" type="line"/>
      <point x="780" y="374" type="line"/>
      <point x="780" y="706" type="line"/>
      <point x="690" y="706" type="line"/>
      <point x="599" y="484" type="line"/>
      <point x="509" y="706" type="line"/>
      <point x="418" y="706" type="line"/>
    </contour>
    <contour>
      <point x="177" y="374" type="line"/>
      <point x="226" y="374" type="line"/>
      <point x="226" y="659" type="line"/>
      <point x="338" y="659" type="line"/>
      <point x="338" y="706" type="line"/>
      <point x="65" y="706" type="line"/>
      <point x="65" y="659" type="line"/>
      <point x="177" y="659" type="line"/>
    </contour>
  </outline>
</glyph>
<glyph name="estimated" format="1">
  <advance width="1195"/>
  <unicode hex="212E"/>
  <outline>
    <contour>
      <point x="639" y="1232" type="curve" smooth="yes"/>
      <point x="767" y="1232"/>
      <point x="892" y="1179"/>
      <point x="963" y="1072" type="curve"/>
      <point x="963" y="779" type="line"/>
      <point x="301" y="779" type="line"/>
      <point x="301" y="1074" type="line"/>
      <point x="379" y="1178"/>
      <point x="511" y="1232"/>
    </contour>
    <contour>
      <point x="95" y="730" type="curve" smooth="yes"/>
      <point x="95" y="413"/>
      <point x="282" y="178"/>
      <point x="662" y="178" type="curve" smooth="yes"/>
      <point x="868" y="178"/>
      <point x="1002" y="267"/>
      <point x="1101" y="385" type="curve"/>
      <point x="1070" y="419" type="line"/>
      <point x="954" y="296"/>
      <point x="787" y="240"/>
      <point x="655" y="240" type="curve" smooth="yes"/>
      <point x="528" y="240"/>
      <point x="385" y="293"/>
      <point x="297" y="395" type="curve"/>
      <point x="297" y="715" type="line"/>
      <point x="1109" y="715" type="line"/>
      <point x="1109" y="1044"/>
      <point x="955" y="1280"/>
      <point x="637" y="1280" type="curve" smooth="yes"/>
      <point x="317" y="1280"/>
      <point x="95" y="1041"/>
    </contour>
  </outline>
</glyph>
<glyph name="partialdiff" format="1">
  <advance width="1194"/>
  <unicode hex="2202"/>
  <outline>
    <contour>
      <point x="466" y="-20" type="curve" smooth="yes"/>
      <point x="793" y="-20"/>
      <point x="1025" y="384"/>
      <point x="1025" y="920" type="curve" smooth="yes"/>
      <point x="1025" y="1338"/>
      <point x="816" y="1514"/>
      <point x="577" y="1514" type="curve" smooth="yes"/>
      <point x="479" y="1514"/>
      <point x="381" y="1488"/>
      <point x="270" y="1431" type="curve"/>
      <point x="285" y="1394" type="line"/>
      <point x="342" y="1417"/>
      <point x="421" y="1433"/>
      <point x="493" y="1433" type="curve" smooth="yes"/>
      <point x="709" y="1433"/>
      <point x="888" y="1292"/>
      <point x="888" y="976" type="curve" smooth="yes"/>
      <point x="888" y="961"/>
      <point x="888" y="945"/>
      <point x="886" y="929" type="curve"/>
      <point x="432" y="935"/>
      <point x="177" y="565"/>
      <point x="177" y="284" type="curve" smooth="yes"/>
      <point x="177" y="112"/>
      <point x="273" y="-20"/>
    </contour>
    <contour>
      <point x="480" y="79" type="curve" smooth="yes"/>
      <point x="382" y="79"/>
      <point x="341" y="159"/>
      <point x="341" y="256" type="curve" smooth="yes"/>
      <point x="341" y="474"/>
      <point x="524" y="846"/>
      <point x="882" y="848" type="curve"/>
      <point x="864" y="550"/>
      <point x="755" y="79"/>
    </contour>
  </outline>
</glyph>
<glyph name="emptyset" format="1">
  <advance width="757"/>
  <unicode hex="2205"/>
  <outline>
    <contour>
      <point x="380" y="70" type="curve" smooth="yes"/>
      <point x="231" y="70"/>
      <point x="121" y="183"/>
      <point x="121" y="333" type="curve" smooth="yes"/>
      <point x="121" y="482"/>
      <point x="231" y="595"/>
      <point x="380" y="595" type="curve" smooth="yes"/>
      <point x="530" y="595"/>
      <point x="638" y="482"/>
      <point x="638" y="333" type="curve" smooth="yes"/>
      <point x="638" y="183"/>
      <point x="530" y="70"/>
    </contour>
    <contour>
      <point x="379" y="32" type="curve" smooth="yes"/>
      <point x="549" y="32"/>
      <point x="680" y="162"/>
      <point x="680" y="333" type="curve" smooth="yes"/>
      <point x="680" y="503"/>
      <point x="549" y="633"/>
      <point x="379" y="633" type="curve" smooth="yes"/>
      <point x="210" y="633"/>
      <point x="78" y="503"/>
      <point x="78" y="333" type="curve" smooth="yes"/>
      <point x="78" y="162"/>
      <point x="210" y="32"/>
    </contour>
    <contour>
      <point x="104" y="21" type="line"/>
      <point x="130" y="0" type="line"/>
      <point x="656" y="626" type="line"/>
      <point x="629" y="648" type="line"/>
    </contour>
  </outline>
</glyph>
<glyph name="product" format="1">
  <advance width="879"/>
  <unicode hex="220F"/>
  <outline>
    <contour>
      <point x="325" y="156" type="line"/>
      <point x="389" y="156" type="line"/>
      <point x="389" y="318" type="line"/>
      <point x="476" y="318" type="line" smooth="yes"/>
      <point x="583" y="318"/>
      <point x="610" y="372"/>
      <point x="610" y="437" type="curve" smooth="yes"/>
      <point x="610" y="443" type="line"/>
      <point x="608" y="528"/>
      <point x="559" y="563"/>
      <point x="482" y="563" type="curve" smooth="yes"/>
      <point x="325" y="563" type="line"/>
    </contour>
    <contour>
      <point x="389" y="362" type="line"/>
      <point x="389" y="519" type="line"/>
      <point x="484" y="519" type="line" smooth="yes"/>
      <point x="542" y="519"/>
      <point x="546" y="469"/>
      <point x="546" y="440" type="curve" smooth="yes"/>
      <point x="546" y="428" type="line" smooth="yes"/>
      <point x="546" y="397"/>
      <point x="535" y="362"/>
      <point x="479" y="362" type="curve" smooth="yes"/>
    </contour>
    <contour>
      <point x="441" y="40" type="curve" smooth="yes"/>
      <point x="263" y="40"/>
      <point x="134" y="175"/>
      <point x="134" y="353" type="curve" smooth="yes"/>
      <point x="134" y="531"/>
      <point x="263" y="665"/>
      <point x="441" y="665" type="curve" smooth="yes"/>
      <point x="620" y="665"/>
      <point x="748" y="531"/>
      <point x="748" y="353" type="curve" smooth="yes"/>
      <point x="748" y="175"/>
      <point x="620" y="40"/>
    </contour>
    <contour>
      <point x="440" y="-7" type="curve" smooth="yes"/>
      <point x="643" y="-7"/>
      <point x="799" y="148"/>
      <point x="799" y="353" type="curve" smooth="yes"/>
      <point x="799" y="557"/>
      <point x="643" y="711"/>
      <point x="440" y="711" type="curve" smooth="yes"/>
      <point x="238" y="711"/>
      <point x="81" y="557"/>
      <point x="81" y="353" type="curve" smooth="yes"/>
      <point x="81" y="148"/>
      <point x="238" y="-7"/>
    </contour>
  </outline>
</glyph>
<glyph name="summation" format="1">
  <advance width="1079"/>
  <unicode hex="2211"/>
  <outline>
    <contour>
      <point x="1072" y="0" type="line"/>
      <point x="1072" y="120" type="line"/>
      <point x="240" y="120" type="line"/>
      <point x="701" y="750" type="line"/>
      <point x="701" y="801" type="line"/>
      <point x="226" y="1310" type="line"/>
      <point x="1072" y="1310" type="line"/>
      <point x="1072" y="1428" type="line"/>
      <point x="102" y="1428" type="line"/>
      <point x="102" y="1331" type="line"/>
      <point x="598" y="762" type="line"/>
      <point x="102" y="107" type="line"/>
      <point x="102" y="0" type="line"/>
    </contour>
  </outline>
</glyph>
<glyph name="minus" format="1">
  <advance width="982"/>
  <unicode hex="2212"/>
  <outline>
    <contour>
      <point x="154" y="439" type="line"/>
      <point x="832" y="439" type="line"/>
      <point x="832" y="603" type="line"/>
      <point x="154" y="603" type="line"/>
    </contour>
  </outline>
</glyph>
<glyph name="bulletoperator" format="1">
  <advance width="992"/>
  <unicode hex="2219"/>
  <outline>
    <contour>
      <point x="563" y="-231" type="curve"/>
      <point x="354" y="-231"/>
      <point x="50" y="-59"/>
      <point x="50" y="150" type="curve"/>
      <point x="50" y="360"/>
      <point x="205" y="383"/>
      <point x="415" y="383" type="curve"/>
      <point x="624" y="383"/>
      <point x="928" y="212"/>
      <point x="928" y="2" type="curve"/>
      <point x="928" y="-208"/>
      <point x="773" y="-231"/>
    </contour>
  </outline>
</glyph>
<glyph name="uni2219" format="1">
  <advance width="292"/>
  <unicode hex="2219"/>
  <outline>
    <contour>
      <point x="97" y="334" type="line"/>
      <point x="191" y="334" type="line"/>
      <point x="191" y="436" type="line"/>
      <point x="97" y="436" type="line"/>
    </contour>
  </outline>
</glyph>
<glyph name="radical" format="1">
  <advance width="595"/>
  <unicode hex="221A"/>
  <outline>
    <contour>
      <point x="77" y="195" type="line"/>
      <point x="135" y="195" type="line"/>
      <point x="224" y="0" type="line"/>
      <point x="290" y="0" type="line"/>
      <point x="596" y="735" type="line"/>
      <point x="547" y="735" type="line"/>
      <point x="263" y="57" type="line"/>
      <point x="181" y="250" type="line"/>
      <point x="77" y="250" type="line"/>
    </contour>
  </outline>
</glyph>
<glyph name="infinity" format="1">
  <advance width="1411"/>
  <unicode hex="221E"/>
  <outline>
    <contour>
      <point x="705" y="948" type="curve"/>
      <point x="694" y="959"/>
      <point x="495" y="1155"/>
      <point x="286" y="1155" type="curve" smooth="yes"/>
      <point x="88" y="1155"/>
      <point x="24" y="1002"/>
      <point x="24" y="859" type="curve" smooth="yes"/>
      <point x="24" y="720"/>
      <point x="88" y="564"/>
      <point x="286" y="564" type="curve" smooth="yes"/>
      <point x="495" y="564"/>
      <point x="694" y="792"/>
      <point x="705" y="805" type="curve"/>
      <point x="717" y="792"/>
      <point x="916" y="564"/>
      <point x="1125" y="564" type="curve" smooth="yes"/>
      <point x="1323" y="564"/>
      <point x="1387" y="720"/>
      <point x="1387" y="859" type="curve" smooth="yes"/>
      <point x="1387" y="1002"/>
      <point x="1323" y="1155"/>
      <point x="1125" y="1155" type="curve" smooth="yes"/>
      <point x="916" y="1155"/>
      <point x="717" y="959"/>
    </contour>
    <contour>
      <point x="137" y="859" type="curve" smooth="yes"/>
      <point x="137" y="1002"/>
      <point x="205" y="1069"/>
      <point x="304" y="1069" type="curve" smooth="yes"/>
      <point x="403" y="1069"/>
      <point x="533" y="1001"/>
      <point x="658" y="874" type="curve"/>
      <point x="522" y="730"/>
      <point x="386" y="653"/>
      <point x="288" y="653" type="curve" smooth="yes"/>
      <point x="197" y="653"/>
      <point x="137" y="720"/>
    </contour>
    <contour>
      <point x="753" y="874" type="curve"/>
      <point x="878" y="1001"/>
      <point x="1008" y="1069"/>
      <point x="1107" y="1069" type="curve" smooth="yes"/>
      <point x="1206" y="1069"/>
      <point x="1274" y="1002"/>
      <point x="1274" y="859" type="curve" smooth="yes"/>
      <point x="1274" y="720"/>
      <point x="1214" y="653"/>
      <point x="1123" y="653" type="curve" smooth="yes"/>
      <point x="1025" y="653"/>
      <point x="889" y="730"/>
    </contour>
  </outline>
</glyph>
<glyph name="integral" format="1">
  <advance width="1008"/>
  <unicode hex="222B"/>
  <outline>
    <contour>
      <point x="296" y="-450" type="curve" smooth="yes"/>
      <point x="481" y="-450"/>
      <point x="579" y="-386"/>
      <point x="579" y="-184" type="curve" smooth="yes"/>
      <point x="579" y="1198" type="line" smooth="yes"/>
      <point x="579" y="1291"/>
      <point x="605" y="1367"/>
      <point x="767" y="1367" type="curve" smooth="yes"/>
      <point x="775" y="1367"/>
      <point x="775" y="1370"/>
      <point x="780" y="1369" type="curve"/>
      <point x="780" y="1479" type="line"/>
      <point x="751" y="1482"/>
      <point x="714" y="1484"/>
      <point x="687" y="1484" type="curve" smooth="yes"/>
      <point x="493" y="1484"/>
      <point x="401" y="1420"/>
      <point x="401" y="1179" type="curve" smooth="yes"/>
      <point x="401" y="-213" type="line" smooth="yes"/>
      <point x="401" y="-299"/>
      <point x="356" y="-333"/>
      <point x="233" y="-333" type="curve" smooth="yes"/>
      <point x="218" y="-333"/>
      <point x="208" y="-335"/>
      <point x="195" y="-334" type="curve"/>
      <point x="195" y="-444" type="line"/>
      <point x="227" y="-448"/>
      <point x="266" y="-450"/>
    </contour>
  </outline>
</glyph>
<glyph name="approxequal" format="1">
  <advance width="795"/>
  <unicode hex="2248"/>
  <outline>
    <contour>
      <point x="529" y="573" type="curve" smooth="yes"/>
      <point x="640" y="573"/>
      <point x="729" y="647"/>
      <point x="729" y="798" type="curve"/>
      <point x="639" y="798" type="line"/>
      <point x="639" y="741"/>
      <point x="612" y="706"/>
      <point x="537" y="706" type="curve" smooth="yes"/>
      <point x="471" y="706"/>
      <point x="394" y="811"/>
      <point x="267" y="811" type="curve" smooth="yes"/>
      <point x="156" y="811"/>
      <point x="66" y="736"/>
      <point x="66" y="586" type="curve"/>
      <point x="157" y="586" type="line"/>
      <point x="157" y="642"/>
      <point x="183" y="677"/>
      <point x="258" y="677" type="curve" smooth="yes"/>
      <point x="325" y="677"/>
      <point x="402" y="573"/>
    </contour>
    <contour>
      <point x="529" y="827" type="curve" smooth="yes"/>
      <point x="640" y="827"/>
      <point x="729" y="901"/>
      <point x="729" y="1052" type="curve"/>
      <point x="639" y="1052" type="line"/>
      <point x="639" y="995"/>
      <point x="612" y="960"/>
      <point x="537" y="960" type="curve" smooth="yes"/>
      <point x="471" y="960"/>
      <point x="394" y="1065"/>
      <point x="267" y="1065" type="curve" smooth="yes"/>
      <point x="156" y="1065"/>
      <point x="66" y="990"/>
      <point x="66" y="840" type="curve"/>
      <point x="157" y="840" type="line"/>
      <point x="157" y="896"/>
      <point x="183" y="931"/>
      <point x="258" y="931" type="curve" smooth="yes"/>
      <point x="325" y="931"/>
      <point x="402" y="827"/>
    </contour>
  </outline>
</glyph>
<glyph name="notequal" format="1">
  <advance width="330"/>
  <unicode hex="2260"/>
  <outline>
    <component base="equal" xOffset="-188"/>
    <contour>
      <point x="63" y="116" type="line"/>
      <point x="127" y="116" type="line"/>
      <point x="293" y="606" type="line"/>
      <point x="232" y="606" type="line"/>
    </contour>
  </outline>
</glyph>
<glyph name="lozenge" format="1">
  <advance width="539"/>
  <unicode hex="25CA"/>
  <outline>
    <contour>
      <point x="238" y="0" type="line"/>
      <point x="313" y="0" type="line"/>
      <point x="479" y="346" type="line"/>
      <point x="313" y="689" type="line"/>
      <point x="238" y="689" type="line"/>
      <point x="61" y="346" type="line"/>
    </contour>
    <contour>
      <point x="277" y="70" type="line"/>
      <point x="138" y="346" type="line"/>
      <point x="277" y="614" type="line"/>
      <point x="404" y="346" type="line"/>
    </contour>
  </outline>
</glyph>
<glyph name="caron.alt" format="1">
  <advance width="600"/>
  <outline>
    <contour>
      <point x="280" y="1052" type="move" name="_caron.alt"/>
    </contour>
    <contour>
      <point x="710" y="1239" type="line"/>
      <point x="766" y="1292"/>
      <point x="868" y="1410"/>
      <point x="868" y="1595" type="curve" smooth="yes"/>
      <point x="868" y="1754" type="line"/>
      <point x="650" y="1754" type="line"/>
      <point x="650" y="1547" type="line"/>
      <point x="776" y="1547" type="line"/>
      <point x="776" y="1418"/>
      <point x="689" y="1335"/>
      <point x="645" y="1282" type="curve"/>
    </contour>
  </outline>
</glyph>
